<?xml version="1.0" encoding="UTF-8" standalone="no"?>
<!-- Created with Inkscape (http://www.inkscape.org/) -->

<svg
   width="88.962128mm"
   height="15.982853mm"
   viewBox="0 0 88.962128 15.982853"
   version="1.1"
   id="svg57018"
   sodipodi:docname="hema_free.svg"
   inkscape:version="1.1 (c68e22c387, 2021-05-23)"
   xmlns:inkscape="http://www.inkscape.org/namespaces/inkscape"
   xmlns:sodipodi="http://sodipodi.sourceforge.net/DTD/sodipodi-0.dtd"
   xmlns="http://www.w3.org/2000/svg"
   xmlns:svg="http://www.w3.org/2000/svg">
  <sodipodi:namedview
     id="namedview57020"
     pagecolor="#ffffff"
     bordercolor="#666666"
     borderopacity="1.0"
     inkscape:pageshadow="2"
     inkscape:pageopacity="0.0"
     inkscape:pagecheckerboard="0"
     inkscape:document-units="mm"
     showgrid="false"
     fit-margin-top="0"
     fit-margin-left="0"
     fit-margin-right="0"
     fit-margin-bottom="0"
     inkscape:zoom="1.3826038"
     inkscape:cx="220.9599"
     inkscape:cy="-58.585112"
     inkscape:window-width="1920"
     inkscape:window-height="1043"
     inkscape:window-x="0"
     inkscape:window-y="0"
     inkscape:window-maximized="1"
     inkscape:current-layer="layer1" />
  <defs
     id="defs57015" />
  <g
     inkscape:label="Layer 1"
     inkscape:groupmode="layer"
     id="layer1"
     transform="translate(-23.478649,-120.21787)">
    <path
       style="fill:#333333;fill-opacity:1;stroke:none;stroke-width:0.109205"
       d="m 85.816977,120.25292 c -1.571782,0.20639 -3.098466,0.6494 -4.36819,1.64826 -3.367325,2.64889 -3.970788,7.85491 -1.259344,11.19155 1.800235,2.21533 4.59522,3.18779 7.37481,2.82196 8.137166,-1.07108 8.832798,-13.02449 1.092045,-15.31603 -0.877134,-0.25968 -1.925499,-0.46573 -2.839321,-0.34574 m -20.202867,1.81014 c 1.714731,-0.12891 -0.371186,2.47789 0.365289,3.25162 1.042358,1.0952 2.411783,-0.3341 3.566082,0.35315 1.031764,0.6143 1.555404,1.80838 1.732749,2.94751 0.05166,0.33242 0.257072,0.86599 -0.03032,1.13529 -0.362017,0.33897 -1.074027,0.0628 -1.483983,-0.0433 v 0.43682 c 0.697489,0 1.975734,0.24702 2.588042,-0.11226 0.689733,-0.4046 1.004795,-1.66906 1.133217,-2.39944 0.426445,-2.42385 -0.520143,-4.97155 -2.629214,-6.32402 -5.211246,-3.34179 -12.238132,3.08188 -8.490991,8.39246 0.79457,1.12612 3.843785,0.34203 3.400744,-1.29222 -0.09708,-0.35831 -1.049566,-1.31803 -1.376091,-1.50594 -0.385381,-0.22184 -1.21905,-0.11947 -1.119893,-0.79965 0.10844,-0.74424 0.907818,-1.02144 1.245041,-1.59324 0.31888,-0.5407 0.0041,-1.66955 0.241892,-2.33704 0.192746,-0.54064 0.597237,-0.60772 0.857471,-0.10979 m -17.145144,-1.59164 c -1.248537,0.16996 -2.437885,0.52615 -3.49455,1.23664 -0.847865,0.5701 -1.661659,1.34298 -2.204296,2.21148 -3.546859,5.67602 1.142608,12.92404 7.773735,11.98139 1.031875,-0.14677 2.067136,-0.53346 2.948526,-1.08593 6.742823,-4.22644 3.013154,-15.43755 -5.023437,-14.34358 m -17.909569,0.10912 c -1.502197,0.19773 -2.91512,0.57489 -4.149778,1.50864 -4.116366,3.11315 -3.829582,9.62965 0.436819,12.4753 1.617365,1.07873 3.567848,1.37325 5.460234,1.1176 7.793284,-1.05273 8.288854,-12.06728 1.310457,-14.69 -0.930785,-0.34983 -2.066524,-0.54201 -3.057732,-0.41154 m 73.16714,9e-5 c -1.18203,0.1609 -2.25858,0.51042 -3.27615,1.14554 -7.005472,4.37258 -2.740153,15.54495 5.35103,14.39153 1.06104,-0.15125 2.14391,-0.55334 3.05774,-1.10996 6.98342,-4.25374 2.94022,-15.52602 -5.13262,-14.42711 m -17.254338,0.17197 c 1.159531,1.77511 3.983453,1.60663 4.804999,3.71296 l -2.128396,1.35183 -0.71092,1.37829 c 1.390063,0.0132 2.374983,-0.99938 3.603756,-1.52887 0.746956,1.42319 0.686675,3.21799 0.129406,4.6958 -0.160094,0.4247 -0.378506,1.14753 -0.826027,1.35381 -0.963734,0.44414 -2.939568,0.0849 -3.999185,0.0659 v -0.1092 c 0.756896,-0.57715 1.287419,-1.20333 1.310457,-2.18409 l -2.18409,1.31045 c 0.0052,-1.46814 2.102189,-1.489 2.18409,-3.27614 -0.932279,0.12616 -1.511068,0.57097 -2.074891,1.31046 h -0.109199 c 0.001,-1.60254 2.099454,-1.53665 2.18409,-3.38535 -0.951392,0.0494 -1.529197,0.57634 -2.074891,1.31046 h -0.109199 v -0.98284 c 1.224837,-0.2562 2.124899,-1.11059 2.18409,-2.40251 -1.008398,0.15115 -1.625075,0.71045 -2.18409,1.52887 H 86.363 c 0.4425,-1.51443 0.735255,-2.13 0.03068,-3.64632 -1.468482,1.14975 -0.214244,2.38015 -0.139876,3.75552 h -0.109203 c -0.152889,-0.46076 -1.35993,-2.11508 -1.990039,-1.45277 -0.850599,0.89405 1.531488,2.09845 2.099242,2.21721 v 0.98284 c -0.838474,-0.53154 -1.182251,-1.25957 -2.293298,-1.31046 0.139452,0.67354 0.347818,1.25279 0.878007,1.72394 0.532152,0.4728 1.845667,0.59699 1.196879,1.5522 -0.544165,-0.70828 -1.175369,-1.12271 -2.074886,-1.20125 0.227474,1.1692 0.910219,2.1628 2.184095,2.2933 v 0.98284 h -0.109209 c -0.558692,-0.73265 -1.132884,-1.17919 -2.074886,-1.20125 0.195368,0.93392 0.616354,1.55999 1.41966,2.07489 v 0.1092 l -3.822162,0.10921 2.053266,-1.55213 c 0.0076,-0.39024 -0.167446,-0.63635 0.02165,-1.17799 l 0.784068,0.20751 -0.456452,-0.64433 -3.385343,1.85648 c -0.871676,-2.6787 -0.440538,-5.65868 1.965677,-7.43417 0.861625,-0.6358 1.821423,-0.74597 2.71603,-1.23875 0.505178,-0.27827 0.682745,-0.8856 1.215341,-1.1555 M 25.7544,132.00068 c -1.108755,-1.99942 -1.657377,-4.12374 -0.709492,-6.33387 1.81994,-4.24343 7.720957,-5.38996 10.845434,-1.85639 1.514997,1.71339 2.048025,4.16168 1.330441,6.33378 -0.187177,0.56645 -0.518504,1.79358 -1.211299,1.92081 -0.49699,0.0912 -1.151235,-0.29409 -1.627914,-0.42088 -0.976497,-0.25991 -1.94464,-0.40296 -2.948526,-0.49852 -2.011539,-0.19143 -3.753419,0.56666 -5.678644,0.85507 m 85.17966,-4.47739 0.2184,0.32762 c 0,1.62813 -0.21338,3.64405 -1.63807,4.6958 l -0.21841,0.21841 c -0.39991,0.82056 -1.45832,1.37259 -2.29329,1.67105 -2.27878,0.81455 -5.49322,0.43463 -6.9891,-1.67105 l -0.109206,-0.21841 c -1.207041,-0.61679 -1.6372,-2.58575 -1.638073,-3.82217 0.604487,-0.71433 0.272275,-1.01096 0,-1.31045 0.501686,-3.88486 4.570649,-6.45189 8.299559,-5.2955 1.91916,0.59519 5.05213,3.0243 4.36819,5.4047 m -65.085998,4.36819 c -0.419127,0 -1.005447,0.10396 -1.3964,-0.0659 -0.869597,-0.37785 -1.201143,-2.16662 -1.302485,-2.99188 -0.281092,-2.289 0.922343,-4.74864 2.917295,-5.91054 2.896108,-1.68671 6.789146,-0.84248 8.502677,2.08837 0.968427,1.6563 1.608257,5.29064 -0.23905,6.70484 -0.309922,0.2372 -1.306852,0.33275 -1.584232,0 -0.636554,-0.76377 -0.572669,-1.64626 -1.546884,-2.27669 -2.053048,-1.32885 -5.230577,-0.17517 -5.350921,2.45175 m 3.71296,-3.49455 v -2.2933 l 0.0027,-0.79926 0.32494,2.87415 c 1.504076,-1.39362 0.610891,-5.61751 -1.850036,-5.33047 -0.640704,0.0747 -0.443262,1.05292 -0.443262,1.50831 1.09e-4,1.53035 0.571686,3.21271 1.965684,4.04057 m -14.524223,-4.80501 c -0.902686,1.17412 -2.188648,1.15531 -3.49455,1.58558 -1.517585,0.5 -2.670393,1.60412 -2.948527,3.21943 h -0.109205 c 0.02768,-1.38524 -0.313668,-3.16123 -1.965684,-3.49455 0.572047,1.66433 -1.383154,3.77706 0.982842,4.91421 l -0.327614,-1.63807 h 0.109205 l 0.436819,1.63807 h 0.218409 l 0.436819,-1.09205 h 0.109204 c -0.08153,0.52233 -1.19448,1.90464 -0.798056,2.33021 0.295245,0.31692 1.189512,-0.97126 1.671694,-1.01331 2.766504,-0.24145 5.092542,-1.51695 5.650141,-4.48383 0.114774,-0.61078 0.275524,-1.37708 0.0285,-1.96569 m 15.397859,4.91421 h 0.109205 l 0.436819,-0.54602 -0.327614,0.76443 c 1.19863,-0.0247 2.221988,-0.39547 3.026171,-1.31088 0.247457,-0.2817 0.756897,-0.76936 0.421748,-1.15355 -1.363748,-1.56333 -3.636952,0.86789 -3.666329,2.24602 m -2.184093,0.32762 -0.764433,-1.09205 0.982842,0.76443 c -0.163916,-1.26294 -0.993107,-2.26513 -2.293299,-2.47606 -0.421311,-0.0683 -1.173295,-0.0443 -1.456571,0.33891 -0.282622,0.3823 0.244945,0.87782 0.473839,1.15001 0.773497,0.91978 1.879084,1.29044 3.057622,1.31476 m -15.725474,-2.73012 v 0.10921 l -3.2282,2.83932 -1.467602,1.96568 c -0.0043,-0.62126 0.422393,-1.15145 0.781458,-1.63807 0.959768,-1.30077 2.417519,-2.63032 3.914344,-3.27614 m 19.11082,1.31046 -0.655228,0.54602 0.655228,-0.54602 m -24.46185,0.1092 v 0.65523 H 27.06488 l 0.109204,-0.65523 m 20.312072,0.10921 -0.109205,0.1092 0.109205,-0.1092 m 19.32923,0.87363 -0.764435,1.63807 1.421301,-0.44948 1.418021,0.0127 v -0.1092 l -2.074887,-1.09205"
       id="path954"
       sodipodi:nodetypes="ccscccccscccccccccccscccccccccsccccccsccccccccccccccccccccccccccscccccccccccccccccccsccccccccccccccccccccccsccccccccccsccccccccccccccccccccccccccccsccccccccccccccccccccccccc" />
    <g
       aria-label="vegan"
       transform="matrix(0.36242227,0,0,0.47004849,17.697461,115.87554)"
       id="text2701"
       style="font-weight:bold;font-size:5.70065px;line-height:1.25;font-family:'Bebas Neue';-inkscape-font-specification:'Bebas Neue Bold';fill:#ffffff;stroke-width:0.142517">
      <path
         d="m 25.969849,35.688487 h 0.996501 l 0.776602,2.154445 0.773819,-2.154445 h 0.999284 l -1.227533,3.117543 h -1.093924 z"
         style="font-family:'DejaVu Sans';-inkscape-font-specification:'DejaVu Sans Bold';fill:#ffffff"
         id="path43333" />
      <path
         d="m 33.190302,37.238908 v 0.283919 h -2.329807 q 0.03619,0.350724 0.2533,0.526086 0.217115,0.175361 0.606808,0.175361 0.314538,0 0.642993,-0.09186 0.331239,-0.09464 0.679179,-0.283919 v 0.768252 q -0.353507,0.133609 -0.707014,0.200413 -0.353507,0.06959 -0.707014,0.06959 -0.84619,0 -1.316605,-0.428662 -0.467632,-0.431445 -0.467632,-1.208048 0,-0.762684 0.459281,-1.199697 0.462064,-0.437013 1.269285,-0.437013 0.73485,0 1.174646,0.44258 0.44258,0.44258 0.44258,1.182996 z m -1.024336,-0.331239 q 0,-0.283919 -0.167011,-0.456497 -0.164228,-0.175362 -0.431446,-0.175362 -0.289486,0 -0.470415,0.164228 -0.180928,0.161444 -0.225465,0.467631 z"
         style="font-family:'DejaVu Sans';-inkscape-font-specification:'DejaVu Sans Bold';fill:#ffffff"
         id="path43335" />
      <path
         d="m 36.065679,38.277161 q -0.205981,0.272785 -0.453714,0.400827 -0.247734,0.128042 -0.573405,0.128042 -0.570622,0 -0.943614,-0.448147 -0.372992,-0.45093 -0.372992,-1.14681 0,-0.698664 0.372992,-1.144027 0.372992,-0.448147 0.943614,-0.448147 0.325671,0 0.573405,0.128042 0.247733,0.128042 0.453714,0.403611 v -0.462065 h 1.002067 v 2.803005 q 0,0.751551 -0.475982,1.146811 -0.473198,0.398043 -1.375059,0.398043 -0.29227,0 -0.565055,-0.04454 -0.272785,-0.04454 -0.548353,-0.136392 v -0.776603 q 0.261651,0.15031 0.512167,0.222682 0.250517,0.07516 0.503818,0.07516 0.489899,0 0.718148,-0.214331 0.228249,-0.214331 0.228249,-0.670829 z m -0.656911,-1.940114 q -0.308971,0 -0.481549,0.228249 -0.172579,0.228249 -0.172579,0.645777 0,0.428662 0.167012,0.651344 0.167011,0.219898 0.487116,0.219898 0.311754,0 0.484332,-0.228249 0.172579,-0.228248 0.172579,-0.642993 0,-0.417528 -0.172579,-0.645777 -0.172578,-0.228249 -0.484332,-0.228249 z"
         style="font-family:'DejaVu Sans';-inkscape-font-specification:'DejaVu Sans Bold';fill:#ffffff"
         id="path43337" />
      <path
         d="m 39.422605,37.403136 q -0.311755,0 -0.470415,0.105774 -0.155878,0.105773 -0.155878,0.311754 0,0.189279 0.125259,0.297837 0.128042,0.105773 0.353507,0.105773 0.281136,0 0.473198,-0.200413 0.192063,-0.203197 0.192063,-0.506601 v -0.114124 z m 1.522585,-0.375775 v 1.778669 h -1.004851 v -0.462064 q -0.200413,0.283919 -0.45093,0.414744 -0.250517,0.128042 -0.609591,0.128042 -0.484333,0 -0.787736,-0.281135 -0.300621,-0.283919 -0.300621,-0.73485 0,-0.548353 0.375776,-0.804437 0.378559,-0.256084 1.18578,-0.256084 h 0.587322 v -0.07794 q 0,-0.236599 -0.186496,-0.345156 -0.186495,-0.111341 -0.581755,-0.111341 -0.320105,0 -0.595674,0.06402 -0.275568,0.06402 -0.512168,0.192063 v -0.759901 q 0.320105,-0.07794 0.642994,-0.116908 0.322888,-0.04175 0.645777,-0.04175 0.843406,0 1.216398,0.334023 0.375775,0.331239 0.375775,1.080005 z"
         style="font-family:'DejaVu Sans';-inkscape-font-specification:'DejaVu Sans Bold';fill:#ffffff"
         id="path43339" />
      <path
         d="M 45.006347,36.907669 V 38.80603 H 44.00428 v -0.308971 -1.144026 q 0,-0.403611 -0.01949,-0.556705 -0.0167,-0.153093 -0.06124,-0.225465 -0.05845,-0.09742 -0.15866,-0.15031 -0.100207,-0.05567 -0.228249,-0.05567 -0.311754,0 -0.4899,0.242166 -0.178145,0.239383 -0.178145,0.665261 v 1.53372 h -0.9965 v -3.117543 h 0.9965 v 0.456498 q 0.225465,-0.272785 0.478766,-0.400827 0.2533,-0.130826 0.559487,-0.130826 0.540003,0 0.818355,0.331239 0.281136,0.331239 0.281136,0.963098 z"
         style="font-family:'DejaVu Sans';-inkscape-font-specification:'DejaVu Sans Bold';fill:#ffffff"
         id="path43341" />
    </g>
    <g
       aria-label="FREE"
       transform="matrix(0.38748397,0,0,0.43964669,17.697461,115.87554)"
       id="text2701-3"
       style="font-weight:bold;font-size:4.9161px;line-height:1.25;font-family:'Bebas Neue';-inkscape-font-specification:'Bebas Neue Bold';fill:#ffffff;stroke-width:0.122903">
      <path
         d="m 75.140888,39.622546 h 2.494057 v 0.698528 h -1.569887 v 0.667322 h 1.47627 v 0.698528 h -1.47627 v 1.519478 h -0.92417 z"
         style="font-family:'DejaVu Sans';-inkscape-font-specification:'DejaVu Sans Bold'"
         id="path43416" />
      <path
         d="m 79.812144,41.211637 q 0.290453,0 0.415276,-0.10802 0.127223,-0.10802 0.127223,-0.355265 0,-0.244845 -0.127223,-0.350464 -0.124823,-0.10562 -0.415276,-0.10562 h -0.388872 v 0.919369 z m -0.388872,0.638517 v 1.356248 h -0.924169 v -3.583856 h 1.411459 q 0.708129,0 1.036989,0.237643 0.331261,0.237644 0.331261,0.751338 0,0.355265 -0.172832,0.583307 -0.170431,0.228041 -0.516094,0.336061 0.189635,0.04321 0.338462,0.196836 0.151228,0.151228 0.304856,0.460884 l 0.501692,1.017787 h -0.984181 l -0.43688,-0.890563 q -0.132024,-0.268849 -0.268849,-0.367267 -0.134424,-0.09842 -0.360066,-0.09842 z"
         style="font-family:'DejaVu Sans';-inkscape-font-specification:'DejaVu Sans Bold'"
         id="path43418" />
      <path
         d="m 82.284597,39.622546 h 2.494056 v 0.698528 h -1.569887 v 0.667322 h 1.47627 v 0.698528 h -1.47627 v 0.82095 h 1.622697 v 0.698528 h -2.546866 z"
         style="font-family:'DejaVu Sans';-inkscape-font-specification:'DejaVu Sans Bold'"
         id="path43420" />
      <path
         d="m 85.642811,39.622546 h 2.494057 v 0.698528 H 86.56698 v 0.667322 h 1.47627 v 0.698528 h -1.47627 v 0.82095 h 1.622697 v 0.698528 h -2.546866 z"
         style="font-family:'DejaVu Sans';-inkscape-font-specification:'DejaVu Sans Bold'"
         id="path43422" />
    </g>
    <g
       id="g35426"
       transform="matrix(0.4127421,0,0,0.4127421,17.697461,116.04052)"
       style="fill:#ffffff">
      <g
         aria-label="FREE"
         transform="scale(0.93880406,1.065185)"
         id="text2701-3-8"
         style="font-weight:bold;font-size:4.06173px;line-height:1.25;font-family:'Bebas Neue';-inkscape-font-specification:'Bebas Neue Bold';fill:#ffffff;stroke-width:0.101543">
        <path
           d="m 171.91332,41.213387 h 2.06061 v 0.577131 h -1.29705 v 0.551348 h 1.21971 v 0.57713 h -1.21971 v 1.255408 h -0.76356 z"
           style="font-family:'DejaVu Sans';-inkscape-font-specification:'DejaVu Sans Bold';fill:#ffffff"
           id="path43618" />
        <path
           d="m 175.77276,42.52631 q 0.23997,0 0.3431,-0.08925 0.10512,-0.08925 0.10512,-0.293524 0,-0.202293 -0.10512,-0.289557 -0.10313,-0.08726 -0.3431,-0.08726 h -0.32129 v 0.759591 z m -0.32129,0.527549 v 1.120545 h -0.76356 v -2.961017 h 1.16616 q 0.58506,0 0.85677,0.196344 0.27369,0.196343 0.27369,0.620762 0,0.293523 -0.14279,0.481934 -0.14081,0.18841 -0.4264,0.277657 0.15667,0.0357 0.27964,0.162628 0.12494,0.124946 0.25187,0.380787 l 0.4145,0.840905 h -0.81314 l -0.36095,-0.735792 q -0.10908,-0.222126 -0.22213,-0.30344 -0.11106,-0.08131 -0.29749,-0.08131 z"
           style="font-family:'DejaVu Sans';-inkscape-font-specification:'DejaVu Sans Bold';fill:#ffffff"
           id="path43620" />
        <path
           d="m 177.81552,41.213387 h 2.06062 v 0.577131 h -1.29706 v 0.551348 h 1.21971 v 0.57713 h -1.21971 v 0.678278 h 1.34069 v 0.57713 h -2.10425 z"
           style="font-family:'DejaVu Sans';-inkscape-font-specification:'DejaVu Sans Bold';fill:#ffffff"
           id="path43622" />
        <path
           d="m 180.59011,41.213387 h 2.06062 v 0.577131 h -1.29706 v 0.551348 h 1.21971 v 0.57713 h -1.21971 v 0.678278 h 1.34069 v 0.57713 h -2.10425 z"
           style="font-family:'DejaVu Sans';-inkscape-font-specification:'DejaVu Sans Bold';fill:#ffffff"
           id="path43624" />
      </g>
      <g
         aria-label="GLUTEN"
         transform="scale(0.93880406,1.065185)"
         id="text2701-3-8-5"
         style="font-weight:bold;font-size:4.18568px;line-height:1.25;font-family:'Bebas Neue';-inkscape-font-specification:'Bebas Neue Bold';fill:#ffffff;stroke-width:0.104642">
        <path
           d="m 171.18782,39.929641 q -0.29431,0.143065 -0.61109,0.214598 -0.31679,0.07153 -0.65402,0.07153 -0.76233,0 -1.20788,-0.425108 -0.44554,-0.427152 -0.44554,-1.156785 0,-0.737808 0.45372,-1.160872 0.45372,-0.423065 1.24262,-0.423065 0.30453,0 0.58248,0.05723 0.28,0.05723 0.5273,0.169634 v 0.631531 q -0.25547,-0.145109 -0.5089,-0.216642 -0.25139,-0.07153 -0.50482,-0.07153 -0.47007,0 -0.72554,0.263648 -0.25343,0.261605 -0.25343,0.750071 0,0.484378 0.24525,0.748027 0.24526,0.263649 0.69693,0.263649 0.12263,0 0.22686,-0.01431 0.10628,-0.01635 0.19008,-0.04905 v -0.592699 h -0.48029 v -0.527297 h 1.22627 z"
           style="font-family:'DejaVu Sans';-inkscape-font-specification:'DejaVu Sans Bold';fill:#ffffff"
           id="path43627" />
        <path
           d="m 171.88066,37.105125 h 0.78686 v 2.456634 h 1.3816 v 0.594743 h -2.16846 z"
           style="font-family:'DejaVu Sans';-inkscape-font-specification:'DejaVu Sans Bold';fill:#ffffff"
           id="path43629" />
        <path
           d="m 174.39861,37.105125 h 0.78686 v 1.829191 q 0,0.378101 0.12263,0.541604 0.12467,0.161459 0.40467,0.161459 0.28204,0 0.40467,-0.161459 0.12467,-0.163503 0.12467,-0.541604 v -1.829191 h 0.78686 v 1.829191 q 0,0.647881 -0.32496,0.964668 -0.32497,0.316788 -0.99124,0.316788 -0.66423,0 -0.9892,-0.316788 -0.32496,-0.316787 -0.32496,-0.964668 z"
           style="font-family:'DejaVu Sans';-inkscape-font-specification:'DejaVu Sans Bold';fill:#ffffff"
           id="path43631" />
        <path
           d="m 177.43364,37.105125 h 2.81225 v 0.594742 h -1.01167 v 2.456635 h -0.78686 v -2.456635 h -1.01372 z"
           style="font-family:'DejaVu Sans';-inkscape-font-specification:'DejaVu Sans Bold';fill:#ffffff"
           id="path43633" />
        <path
           d="m 180.65261,37.105125 h 2.12349 v 0.594742 h -1.33664 v 0.568174 h 1.25693 v 0.594742 h -1.25693 v 0.698976 h 1.38161 v 0.594743 h -2.16846 z"
           style="font-family:'DejaVu Sans';-inkscape-font-specification:'DejaVu Sans Bold';fill:#ffffff"
           id="path43635" />
        <path
           d="m 183.51187,37.105125 h 0.87883 l 1.10977,2.09284 v -2.09284 h 0.74599 v 3.051377 h -0.87883 l -1.10978,-2.09284 v 2.09284 h -0.74598 z"
           style="font-family:'DejaVu Sans';-inkscape-font-specification:'DejaVu Sans Bold';fill:#ffffff"
           id="path43637" />
      </g>
    </g>
    <g
       id="g35420"
       transform="matrix(0.4127421,0,0,0.4127421,17.697461,115.91793)"
       style="fill:#333333;fill-opacity:1">
      <text
         xml:space="preserve"
         style="font-style:normal;font-variant:normal;font-weight:bold;font-stretch:normal;font-size:7.87276px;line-height:1.25;font-family:'Bebas Neue';-inkscape-font-specification:'Bebas Neue Bold';fill:#333333;fill-opacity:1;stroke-width:0.19682"
         x="211.85133"
         y="24.620752"
         id="text2701-3-5-4"
         transform="scale(0.93880406,1.065185)"><tspan
           sodipodi:role="line"
           id="tspan2699-9-7-9"
           style="font-style:normal;font-variant:normal;font-weight:bold;font-stretch:normal;font-family:'DejaVu Sans';-inkscape-font-specification:'DejaVu Sans Bold';fill:#333333;fill-opacity:1;stroke-width:0.19682"
           x="211.85133"
           y="24.620752">HEMA</tspan></text>
      <text
         xml:space="preserve"
         style="font-style:normal;font-variant:normal;font-weight:bold;font-stretch:normal;font-size:9.35104px;line-height:1.25;font-family:'Bebas Neue';-inkscape-font-specification:'Bebas Neue Bold';fill:#333333;fill-opacity:1;stroke-width:0.233777"
         x="211.30371"
         y="37.838833"
         id="text2701-3-5-4-0"
         transform="scale(0.93880406,1.065185)"><tspan
           sodipodi:role="line"
           id="tspan2699-9-7-9-2"
           style="font-style:normal;font-variant:normal;font-weight:bold;font-stretch:normal;font-family:'DejaVu Sans';-inkscape-font-specification:'DejaVu Sans Bold';fill:#333333;fill-opacity:1;stroke-width:0.233777"
           x="211.30371"
           y="37.838833">FREE</tspan></text>
      <text
         xml:space="preserve"
         style="font-style:normal;font-variant:normal;font-weight:bold;font-stretch:normal;font-size:6.33471px;line-height:1.25;font-family:'Bebas Neue';-inkscape-font-specification:'Bebas Neue Bold';fill:#333333;fill-opacity:1;stroke-width:0.158368"
         x="207.47868"
         y="29.596201"
         id="text2701-3-5-4-01"
         transform="scale(0.93880406,1.065185)"><tspan
           sodipodi:role="line"
           id="tspan2699-9-7-9-9"
           style="font-style:normal;font-variant:normal;font-weight:bold;font-stretch:normal;font-family:'DejaVu Sans';-inkscape-font-specification:'DejaVu Sans Bold';fill:#333333;fill-opacity:1;stroke-width:0.158368"
           x="207.47868"
           y="29.596201">monomer</tspan></text>
    </g>
    <g
       aria-label="FREE"
       transform="matrix(0.38748396,0,0,0.43964669,17.697461,115.97815)"
       id="text2701-3-5"
       style="font-weight:bold;font-size:9.31524px;line-height:1.25;font-family:'Bebas Neue';-inkscape-font-specification:'Bebas Neue Bold';fill:#333333;fill-opacity:1;stroke-width:0.232882">
      <path
         d="m 116.32222,39.184053 h 4.72585 v 1.323601 h -2.97469 v 1.264471 h 2.7973 v 1.323601 h -2.7973 v 2.879173 h -1.75116 z"
         style="font-family:'DejaVu Sans';-inkscape-font-specification:'DejaVu Sans Bold';fill:#333333;fill-opacity:1"
         id="path43464" />
      <path
         d="m 125.17352,42.195132 q 0.55036,0 0.78688,-0.204681 0.24107,-0.204681 0.24107,-0.673172 0,-0.463942 -0.24107,-0.664074 -0.23652,-0.200132 -0.78688,-0.200132 h -0.73685 v 1.742059 z m -0.73685,1.209889 v 2.569878 h -1.75116 V 39.184053 H 125.36 q 1.3418,0 1.96494,0.450297 0.62768,0.450297 0.62768,1.423667 0,0.673172 -0.32748,1.105275 -0.32295,0.432104 -0.97792,0.636784 0.35932,0.08187 0.64133,0.372974 0.28655,0.286553 0.57765,0.873304 l 0.95063,1.928545 h -1.86487 l -0.82782,-1.687477 q -0.25016,-0.509427 -0.50942,-0.695914 -0.25472,-0.186487 -0.68227,-0.186487 z"
         style="font-family:'DejaVu Sans';-inkscape-font-specification:'DejaVu Sans Bold';fill:#333333;fill-opacity:1"
         id="path43466" />
      <path
         d="m 129.85843,39.184053 h 4.72584 v 1.323601 h -2.97469 v 1.264471 h 2.7973 v 1.323601 h -2.7973 v 1.555572 h 3.07476 v 1.323601 h -4.82591 z"
         style="font-family:'DejaVu Sans';-inkscape-font-specification:'DejaVu Sans Bold';fill:#333333;fill-opacity:1"
         id="path43468" />
      <path
         d="m 136.22172,39.184053 h 4.72585 v 1.323601 h -2.97469 v 1.264471 h 2.7973 v 1.323601 h -2.7973 v 1.555572 h 3.07475 v 1.323601 h -4.82591 z"
         style="font-family:'DejaVu Sans';-inkscape-font-specification:'DejaVu Sans Bold';fill:#333333;fill-opacity:1"
         id="path43470" />
    </g>
    <g
       aria-label="CRUELTY"
       transform="matrix(0.38748396,0,0,0.43964669,17.697461,115.97815)"
       id="text2701-3-5-0"
       style="font-weight:bold;font-size:5.11038px;line-height:1.25;font-family:'Bebas Neue';-inkscape-font-specification:'Bebas Neue Bold';fill:#333333;fill-opacity:1;stroke-width:0.12776">
      <path
         d="m 119.47158,37.765543 q -0.2645,0.137241 -0.55146,0.20711 -0.28696,0.06987 -0.59887,0.06987 -0.93075,0 -1.47473,-0.519023 -0.54397,-0.521518 -0.54397,-1.412341 0,-0.893318 0.54397,-1.412341 0.54398,-0.521519 1.47473,-0.521519 0.31191,0 0.59887,0.06987 0.28696,0.06987 0.55146,0.20711 v 0.771049 q -0.26699,-0.182158 -0.52651,-0.266998 -0.25951,-0.08484 -0.54647,-0.08484 -0.51403,0 -0.80848,0.32938 -0.29444,0.32938 -0.29444,0.90829 0,0.576415 0.29444,0.905795 0.29445,0.32938 0.80848,0.32938 0.28696,0 0.54647,-0.08484 0.25952,-0.08484 0.52651,-0.266998 z"
         style="font-family:'DejaVu Sans';-inkscape-font-specification:'DejaVu Sans Bold';fill:#333333;fill-opacity:1"
         id="path43473" />
      <path
         d="m 121.63251,35.896561 q 0.30194,0 0.43169,-0.112289 0.13225,-0.112288 0.13225,-0.369304 0,-0.254521 -0.13225,-0.364315 -0.12975,-0.109793 -0.43169,-0.109793 h -0.40423 v 0.955701 z m -0.40423,0.663751 v 1.409846 h -0.9607 v -3.725487 h 1.46724 q 0.73612,0 1.07797,0.247034 0.34435,0.247035 0.34435,0.78103 0,0.369305 -0.17966,0.606359 -0.17716,0.237054 -0.53649,0.349342 0.19713,0.04492 0.35184,0.204615 0.1572,0.157204 0.3169,0.479098 l 0.52152,1.058009 h -1.02307 L 122.15403,37.0444 q -0.13724,-0.279474 -0.27947,-0.381781 -0.13974,-0.102307 -0.3743,-0.102307 z"
         style="font-family:'DejaVu Sans';-inkscape-font-specification:'DejaVu Sans Bold';fill:#333333;fill-opacity:1"
         id="path43475" />
      <path
         d="m 124.20268,34.244671 h 0.96069 v 2.233296 q 0,0.461631 0.14972,0.661255 0.15221,0.197129 0.49407,0.197129 0.34435,0 0.49407,-0.197129 0.15221,-0.199624 0.15221,-0.661255 v -2.233296 h 0.96069 v 2.233296 q 0,0.791011 -0.39675,1.177782 -0.39676,0.386772 -1.21022,0.386772 -0.81098,0 -1.20773,-0.386772 -0.39675,-0.386771 -0.39675,-1.177782 z"
         style="font-family:'DejaVu Sans';-inkscape-font-specification:'DejaVu Sans Bold';fill:#333333;fill-opacity:1"
         id="path43477" />
      <path
         d="m 128.35237,34.244671 h 2.59261 v 0.726133 h -1.63192 v 0.693694 h 1.53461 v 0.726133 h -1.53461 v 0.853394 h 1.68682 v 0.726133 h -2.64751 z"
         style="font-family:'DejaVu Sans';-inkscape-font-specification:'DejaVu Sans Bold';fill:#333333;fill-opacity:1"
         id="path43479" />
      <path
         d="m 131.84329,34.244671 h 0.9607 v 2.999354 h 1.68682 v 0.726133 h -2.64752 z"
         style="font-family:'DejaVu Sans';-inkscape-font-specification:'DejaVu Sans Bold';fill:#333333;fill-opacity:1"
         id="path43481" />
      <path
         d="m 133.80959,34.244671 h 3.43354 v 0.726133 h -1.23518 v 2.999354 h -0.96069 v -2.999354 h -1.23767 z"
         style="font-family:'DejaVu Sans';-inkscape-font-specification:'DejaVu Sans Bold';fill:#333333;fill-opacity:1"
         id="path43483" />
      <path
         d="m 137.22067,34.244671 h 1.05052 l 0.84841,1.327501 0.8484,-1.327501 h 1.05302 l -1.41983,2.155941 v 1.569546 h -0.96069 v -1.569546 z"
         style="font-family:'DejaVu Sans';-inkscape-font-specification:'DejaVu Sans Bold';fill:#333333;fill-opacity:1"
         id="path43485" />
    </g>
    <g
       aria-label="9"
       transform="matrix(0.36242227,0,0,0.47004849,17.697461,115.87554)"
       id="text2701-0"
       style="font-weight:bold;font-size:10.1038px;line-height:1.25;font-family:AkzidenzGrotesk;-inkscape-font-specification:'AkzidenzGrotesk Bold';fill:#ffffff;stroke-width:0.252597">
      <path
         d="m 86.100694,34.360154 q 0.03031,0.363737 0.242492,0.575917 0.222283,0.212179 0.575916,0.212179 0.363737,0 0.596124,-0.212179 0.242492,-0.21218 0.373841,-0.525398 0.131349,-0.323322 0.181868,-0.687058 0.05052,-0.363737 0.05052,-0.666851 h -0.02021 q -0.06062,0.09093 -0.171765,0.202076 -0.111142,0.111142 -0.272802,0.21218 -0.161661,0.09093 -0.383945,0.16166 -0.222283,0.06062 -0.515294,0.06062 -0.484982,0 -0.858823,-0.161661 -0.37384,-0.171764 -0.636539,-0.464774 -0.262699,-0.303114 -0.404152,-0.71737 -0.131349,-0.414256 -0.131349,-0.919446 0,-0.474879 0.16166,-0.889134 0.171765,-0.414256 0.474879,-0.71737 0.303114,-0.303114 0.71737,-0.474879 0.424359,-0.181868 0.939653,-0.181868 0.767889,0 1.252871,0.303114 0.484983,0.303114 0.747682,0.788096 0.262698,0.484983 0.353633,1.091211 0.101038,0.606228 0.101038,1.202352 0,0.818408 -0.161661,1.505466 -0.161661,0.676955 -0.484983,1.172041 -0.313217,0.495086 -0.7982,0.777992 -0.474878,0.272803 -1.121522,0.272803 -0.868926,0 -1.424635,-0.434463 -0.545606,-0.444568 -0.687059,-1.313494 z m 0.919446,-1.798476 q 0.484983,0 0.737578,-0.293011 0.262698,-0.303114 0.262698,-0.838615 0,-0.535501 -0.262698,-0.828512 -0.252595,-0.303114 -0.737578,-0.303114 -0.484982,0 -0.747681,0.303114 -0.252595,0.293011 -0.252595,0.828512 0,0.535501 0.252595,0.838615 0.262699,0.293011 0.747681,0.293011 z"
         id="path43425" />
    </g>
  </g>
</svg>
