<?xml version="1.0" encoding="UTF-8" standalone="no"?>
<svg
   id="b76bd6b3-ad77-41ff-b778-1d1d054fe577"
   data-name="Layer 1"
   width="570"
   height="511.67482"
   viewBox="0 0 570 511.67482"
   version="1.1"
   sodipodi:docname="message.svg"
   inkscape:version="1.1 (c68e22c387, 2021-05-23)"
   xmlns:inkscape="http://www.inkscape.org/namespaces/inkscape"
   xmlns:sodipodi="http://sodipodi.sourceforge.net/DTD/sodipodi-0.dtd"
   xmlns="http://www.w3.org/2000/svg"
   xmlns:svg="http://www.w3.org/2000/svg">
  <defs
     id="defs21" />
  <sodipodi:namedview
     id="namedview19"
     pagecolor="#ffffff"
     bordercolor="#666666"
     borderopacity="1.0"
     inkscape:pageshadow="2"
     inkscape:pageopacity="0.0"
     inkscape:pagecheckerboard="0"
     showgrid="false"
     inkscape:zoom="0.82363957"
     inkscape:cx="224.00575"
     inkscape:cy="235.53992"
     inkscape:window-width="1600"
     inkscape:window-height="831"
     inkscape:window-x="0"
     inkscape:window-y="0"
     inkscape:window-maximized="1"
     inkscape:current-layer="b76bd6b3-ad77-41ff-b778-1d1d054fe577" />
  <path
     d="M879.99927,389.83741a.99678.99678,0,0,1-.5708-.1792L602.86963,197.05469a5.01548,5.01548,0,0,0-5.72852.00977L322.57434,389.65626a1.00019,1.00019,0,0,1-1.14868-1.6377l274.567-192.5918a7.02216,7.02216,0,0,1,8.02-.01318l276.55883,192.603a1.00019,1.00019,0,0,1-.57226,1.8208Z"
     transform="translate(-315 -194.16259)"
     fill="#3f3d56"
     id="path2" />
  <polygon
     points="23.264 202.502 285.276 8.319 549.276 216.319 298.776 364.819 162.776 333.819 23.264 202.502"
     fill="#e6e6e6"
     id="polygon4" />
  <path
     d="M489.25553,650.70367H359.81522a6.04737,6.04737,0,1,1,0-12.09473H489.25553a6.04737,6.04737,0,1,1,0,12.09473Z"
     transform="translate(-315 -194.16259)"
     fill="#99ffff"
     id="path6" />
  <path
     d="M406.25553,624.70367H359.81522a6.04737,6.04737,0,1,1,0-12.09473h46.44031a6.04737,6.04737,0,1,1,0,12.09473Z"
     transform="translate(-315 -194.16259)"
     fill="#99ffff"
     id="path8" />
  <path
     d="M603.96016,504.82207a7.56366,7.56366,0,0,1-2.86914-.562L439.5002,437.21123v-209.874a7.00817,7.00817,0,0,1,7-7h310a7.00818,7.00818,0,0,1,7,7v210.0205l-.30371.12989L606.91622,504.22734A7.61624,7.61624,0,0,1,603.96016,504.82207Z"
     transform="translate(-315 -194.16259)"
     fill="#fff"
     id="path10" />
  <path
     d="M603.96016,505.32158a8.07177,8.07177,0,0,1-3.05957-.59863L439.0002,437.54521v-210.208a7.50851,7.50851,0,0,1,7.5-7.5h310a7.50851,7.50851,0,0,1,7.5,7.5V437.68779l-156.8877,66.999A8.10957,8.10957,0,0,1,603.96016,505.32158Zm-162.96-69.1123,160.66309,66.66455a6.1182,6.1182,0,0,0,4.668-.02784l155.669-66.47851V227.33721a5.50653,5.50653,0,0,0-5.5-5.5h-310a5.50653,5.50653,0,0,0-5.5,5.5Z"
     transform="translate(-315 -194.16259)"
     fill="#3f3d56"
     id="path12" />
  <path
     d="M878,387.83741h-.2002L763,436.85743l-157.06982,67.07a5.06614,5.06614,0,0,1-3.88038.02L440,436.71741l-117.62012-48.8-.17968-.08H322a7.00778,7.00778,0,0,0-7,7v304a7.00779,7.00779,0,0,0,7,7H878a7.00779,7.00779,0,0,0,7-7v-304A7.00778,7.00778,0,0,0,878,387.83741Zm5,311a5.002,5.002,0,0,1-5,5H322a5.002,5.002,0,0,1-5-5v-304a5.01106,5.01106,0,0,1,4.81006-5L440,438.87739l161.28027,66.92a7.12081,7.12081,0,0,0,5.43994-.03L763,439.02741l115.2002-49.19a5.01621,5.01621,0,0,1,4.7998,5Z"
     transform="translate(-315 -194.16259)"
     fill="#3f3d56"
     id="path14" />
  <path
     d="M602.345,445.30958a27.49862,27.49862,0,0,1-16.5459-5.4961l-.2959-.22217-62.311-47.70752a27.68337,27.68337,0,1,1,33.67407-43.94921l40.36035,30.94775,95.37793-124.38672a27.68235,27.68235,0,0,1,38.81323-5.12353l-.593.80517.6084-.79346a27.71447,27.71447,0,0,1,5.12353,38.81348L624.36938,434.50586A27.69447,27.69447,0,0,1,602.345,445.30958Z"
     transform="translate(-315 -194.16259)"
     fill="#99ffff"
     id="path16" />
  <g
     id="g952"
     transform="matrix(0.63891123,-0.38353198,0.38353198,0.63891123,51.893859,297.81055)">
    <g
       id="layer1"
       transform="matrix(1.6706259,0,0,1.6706259,216.60422,228.60905)">
      <g
         id="g116">
        <path
           style="fill:#8ceaed;fill-opacity:1;stroke-width:0.131635"
           d="m 87.070761,82.472044 c -5.519316,-0.42046 -9.491351,-3.02735 -10.930899,-7.17407 -0.691411,-1.99165 -0.688187,-1.9455 -0.747158,-10.695974 -0.04189,-6.21818 -0.01736,-8.24863 0.101384,-8.39173 0.196799,-0.23713 1.225606,-0.25058 1.418186,-0.0186 0.09624,0.11596 0.155544,2.81207 0.186032,8.45755 0.04418,8.183754 0.04851,8.299634 0.344551,9.272434 0.495612,1.62857 1.141117,2.71571 2.315991,3.90048 0.877502,0.8849 1.27382,1.17235 2.309782,1.67535 2.023635,0.98254 4.08924,1.40613 6.82164,1.39891 3.367336,-0.009 5.822488,-0.64087 7.928223,-2.04076 1.245626,-0.82809 2.138776,-1.8681 2.822341,-3.2864 1.030486,-2.13811 1.016006,-1.9886 1.083846,-11.188634 0.0441,-5.98443 0.10085,-8.18692 0.21269,-8.25808 0.1856,-0.1181 0.90885,-0.13092 1.19483,-0.0212 0.18671,0.0717 0.20822,0.90624 0.20822,8.07831 0,6.564584 -0.0359,8.204044 -0.20004,9.145484 -0.55547,3.1853 -2.337465,5.7803 -5.02551,7.31828 -2.521292,1.44258 -6.23528,2.11872 -10.044109,1.82856 z m 61.868449,0 c -5.51933,-0.42046 -9.49136,-3.02735 -10.93091,-7.17407 -0.69141,-1.99165 -0.68818,-1.9455 -0.74716,-10.695974 -0.0419,-6.21818 -0.0174,-8.24863 0.10139,-8.39173 0.19681,-0.23713 1.22561,-0.25058 1.41819,-0.0186 0.0962,0.11596 0.15554,2.81207 0.18603,8.45755 0.0442,8.183754 0.0485,8.299634 0.34455,9.272434 0.49561,1.62857 1.14112,2.71571 2.31599,3.90048 0.87751,0.8849 1.27382,1.17235 2.30979,1.67535 2.02364,0.98254 4.08924,1.40613 6.82164,1.39891 3.36734,-0.009 5.82247,-0.64087 7.92821,-2.04076 1.24564,-0.82809 2.13878,-1.8681 2.82235,-3.2864 1.03049,-2.13811 1.016,-1.9886 1.08384,-11.188634 0.0441,-5.98443 0.10085,-8.18692 0.2127,-8.25808 0.18561,-0.1181 0.90885,-0.13092 1.19483,-0.0212 0.1867,0.0717 0.20822,0.90624 0.20822,8.07831 0,6.564584 -0.0359,8.204044 -0.20004,9.145484 -0.55547,3.1853 -2.33746,5.7803 -5.02552,7.31828 -2.52128,1.44258 -6.23527,2.11872 -10.0441,1.82856 z M 14.566212,81.532364 c -0.120648,-0.12065 -0.157962,-3.11763 -0.157962,-12.68666 0,-10.678984 0.02766,-12.551664 0.18745,-12.684264 0.141673,-0.11758 2.528735,-0.1431 9.773896,-0.1045 10.727131,0.0571 10.599582,0.047 12.614053,1.00419 2.063387,0.98044 3.2203,2.52081 3.484467,4.6394 0.340591,2.73153 -0.902154,5.083064 -3.237265,6.125554 -0.457866,0.20441 -0.834075,0.40786 -0.83602,0.45212 -0.002,0.0442 0.337064,0.21065 0.753362,0.36978 1.617327,0.61823 2.794699,1.66257 3.459766,3.06885 0.523916,1.10783 0.698824,2.06625 0.618972,3.39174 -0.224037,3.71895 -3.021975,5.97888 -7.984872,6.44951 -2.087899,0.198 -18.4747,0.17543 -18.675847,-0.0257 z m 19.850552,-1.73688 c 2.457595,-0.50936 4.233571,-1.76605 4.86103,-3.4397 0.418652,-1.11668 0.354751,-2.833 -0.145364,-3.90433 -0.631883,-1.3536 -2.093701,-2.42581 -3.991673,-2.9278 -1.441732,-0.38131 -4.050409,-0.48092 -11.583877,-0.44227 l -7.37156,0.0378 -0.03443,5.33104 c -0.01896,2.93207 -0.0045,5.4097 0.03264,5.50583 0.05508,0.14353 1.590789,0.16553 8.590708,0.12305 7.495244,-0.0455 8.65863,-0.0797 9.642527,-0.28363 z m 0.153106,-12.48945 c 1.290184,-0.30692 2.326221,-0.84752 3.093374,-1.614114 1.153321,-1.15247 1.501917,-2.83588 0.954354,-4.60868 -0.484105,-1.56735 -1.929515,-2.68867 -4.114296,-3.19179 -0.823317,-0.1896 -2.038067,-0.21745 -9.630074,-0.22074 l -8.687908,-0.004 -0.03458,4.8041 c -0.019,2.64226 -0.0045,4.882854 0.03259,4.979104 0.107439,0.27999 17.165825,0.14628 18.386565,-0.14411 z m 14.616337,14.22633 c -0.229057,-0.22906 -0.229057,-25.123834 0,-25.352904 0.214346,-0.21434 1.222441,-0.20055 1.404837,0.0192 0.105339,0.12692 0.156578,3.53371 0.180658,12.011694 l 0.03363,11.83451 8.819542,0.0658 8.819547,0.0658 0.04095,0.64544 c 0.02711,0.42722 -0.01741,0.68244 -0.131638,0.75488 -0.292004,0.18518 -18.981215,0.14181 -19.16751,-0.0445 z m 61.868443,0 c -0.22906,-0.22906 -0.22906,-25.123834 0,-25.352904 0.21435,-0.21434 1.22245,-0.20055 1.40484,0.0192 0.10534,0.12692 0.15658,3.53371 0.18066,12.011694 l 0.0336,11.83451 8.81954,0.0658 8.81955,0.0658 0.0409,0.64544 c 0.0271,0.42722 -0.0174,0.68244 -0.13164,0.75488 -0.292,0.18518 -18.98122,0.14181 -19.16751,-0.0445 z m 60.40392,0.0352 c -0.2281,-0.14436 -0.56012,0.22467 6.50615,-7.23135 2.96837,-3.13209 5.41707,-5.75101 5.44157,-5.81982 0.0245,-0.0688 -2.60305,-2.819384 -5.83899,-6.112384 -4.01442,-4.0852 -5.85943,-6.05005 -5.8077,-6.18487 0.0873,-0.22748 1.51929,-0.28416 1.90906,-0.0756 0.12541,0.0671 2.62211,2.56983 5.54821,5.56158 2.92611,2.99174 5.40225,5.459834 5.50257,5.484624 0.10127,0.025 2.65037,-2.453394 5.73083,-5.571964 l 5.54844,-5.61705 0.91096,0.0433 c 0.51193,0.0243 0.93201,0.1071 0.95902,0.18896 0.0265,0.0801 -2.62041,2.85325 -5.88189,6.16254 -4.07159,4.131274 -5.89849,6.071144 -5.82953,6.190014 0.0553,0.0952 2.76607,2.97477 6.02403,6.39901 3.25796,3.42424 5.92357,6.31906 5.92357,6.43293 0,0.16204 -0.1789,0.21555 -0.82316,0.24624 -0.45273,0.0215 -0.90407,-0.008 -1.00294,-0.0658 -0.0989,-0.0578 -2.6808,-2.74101 -5.73758,-5.96277 -3.05677,-3.22177 -5.65658,-5.85776 -5.77734,-5.85776 -0.12076,0 -2.40233,2.31019 -5.07013,5.13376 -2.66781,2.82357 -5.22276,5.50399 -5.67769,5.95648 -0.82686,0.82244 -0.82739,0.82272 -1.59846,0.82071 -0.42423,-0.001 -0.85577,-0.0555 -0.959,-0.12079 z"
           id="path1064-3" />
        <path
           style="fill:#000000;stroke-width:0.131635"
           d="m 128.21071,142.10946 c -0.45409,-0.24714 -0.8647,-1.03103 -1.05741,-2.01865 -0.22642,-1.16039 -0.0866,-4.21481 0.26915,-5.87991 1.04397,-4.88625 4.13708,-10.65899 7.86941,-14.68688 l 0.91786,-0.99052 0.34905,-2.23451 c 0.19198,-1.22899 0.3841,-2.44185 0.42693,-2.69524 0.0758,-0.44867 0.063,-0.44006 -0.48918,0.32909 -1.32801,1.84972 -1.85712,2.30137 -2.6977,2.30273 -0.83249,0.001 -1.50552,-0.84555 -1.50552,-1.89446 0,-0.23661 -0.0369,-0.46705 -0.0819,-0.51209 -0.08,-0.08 -3.41826,3.75342 -5.17761,5.94569 l -0.88521,1.10304 0.12447,0.67403 c 0.16916,0.9159 0.0238,2.30808 -0.35442,3.39581 -0.90721,2.60866 -3.13598,4.41934 -4.13321,3.35785 -0.77693,-0.82702 0.14337,-3.23395 2.5536,-6.67862 l 0.69542,-0.99388 -0.29343,-0.71736 c -0.16139,-0.39456 -0.65249,-1.28011 -1.09135,-1.9679 -1.45297,-2.27714 -2.15045,-3.92087 -2.15045,-5.06792 0,-2.0204 1.62632,-3.8222 3.59238,-3.98002 1.29243,-0.10374 2.10589,0.35808 1.70391,0.96736 -0.06,0.091 -0.5282,0.14091 -1.2341,0.13163 -1.07637,-0.0141 -1.16816,0.007 -1.71125,0.39809 -0.34922,0.25134 -0.72054,0.68935 -0.94856,1.1189 -0.71261,1.34249 -0.3692,2.70343 1.39333,5.52172 0.47156,0.75403 1.00028,1.65472 1.17494,2.00153 l 0.31756,0.63057 0.71388,-0.89085 c 0.39263,-0.48996 1.90381,-2.28421 3.35817,-3.98724 2.06337,-2.41615 2.68219,-3.22655 2.81677,-3.68876 0.3591,-1.23333 0.77782,-1.62357 1.19838,-1.11683 0.13466,0.16226 0.11528,0.35281 -0.10378,1.02017 -0.60454,1.84174 -0.67287,3.44652 -0.17303,4.0638 l 0.22653,0.27975 0.49511,-0.4347 c 0.51471,-0.45192 1.90978,-2.35096 2.78114,-3.78584 0.43191,-0.71121 0.55189,-0.82364 0.84283,-0.78981 0.26022,0.0302 0.34897,0.1239 0.38095,0.40193 0.0381,0.33069 -0.67251,5.52674 -0.85799,6.27428 -0.0648,0.26119 0.0958,0.16674 0.89519,-0.52653 1.52252,-1.32035 2.54436,-2.09961 4.45756,-3.39933 1.54937,-1.05256 1.80943,-1.28204 2.06901,-1.82575 0.67992,-1.42413 1.81427,-2.24968 3.24948,-2.36489 1.28234,-0.10293 2.09445,0.36121 1.69401,0.96816 -0.06,0.091 -0.5282,0.14091 -1.23409,0.13163 -1.07638,-0.0141 -1.16817,0.007 -1.71126,0.39809 -0.34923,0.25134 -0.72056,0.68935 -0.94856,1.1189 -0.71262,1.34249 -0.36921,2.70343 1.39331,5.52172 0.47157,0.75403 0.9995,1.65314 1.17318,1.99802 l 0.31576,0.62706 0.77697,-0.95615 c 1.54242,-1.89811 5.90182,-6.94551 5.99881,-6.94551 0.0546,0 0.14023,-0.22213 0.19031,-0.49363 0.0501,-0.2715 0.5046,-2.29171 1.01006,-4.48937 0.50547,-2.19766 0.89268,-4.02208 0.86048,-4.05428 -0.0322,-0.0322 -2.22036,0.004 -4.86262,0.0816 -2.64224,0.0771 -4.89431,0.10553 -5.00459,0.0632 -0.27695,-0.10627 -0.37106,-0.55351 -0.16072,-0.76384 0.18311,-0.18311 3.04957,-0.33362 6.89911,-0.36225 1.05628,-0.008 2.27141,-0.0523 2.70027,-0.0987 l 0.77975,-0.0844 0.75866,-3.004096 c 0.41724,-1.65225 0.82886,-3.08872 0.9147,-3.19215 0.0858,-0.10342 0.26521,-0.18805 0.39859,-0.18805 0.55097,0 0.52109,0.38052 -0.27103,3.45175 l -0.76777,2.976746 7.78649,-0.0717 c 7.26523,-0.0669 10.03402,0.01 10.78635,0.29836 0.26299,0.10092 0.39329,0.46824 0.27524,0.77588 -0.0691,0.17994 -0.17406,0.20827 -0.49662,0.13401 -0.58453,-0.13458 -13.37742,-0.23342 -16.22084,-0.12533 l -2.38503,0.0907 -0.21107,0.94077 c -0.11611,0.51742 -0.53393,2.3328 -0.92852,4.03418 -1.62791,7.01926 -3.79843,17.60452 -4.62079,22.53486 l -0.47629,2.85546 0.27211,0.27212 c 0.25973,0.25971 0.26252,0.29454 0.0615,0.76449 -0.11586,0.27082 -0.24143,0.56695 -0.27904,0.65807 -0.0376,0.0911 -0.21496,0.20247 -0.39409,0.24743 -0.67771,0.17009 -0.85214,-0.45601 -0.6285,-2.256 0.2937,-2.36391 1.46213,-8.62815 2.76673,-14.83306 0.46707,-2.22145 0.84922,-4.07837 0.84922,-4.1265 0,-0.10298 -3.84608,4.38049 -5.12786,5.97767 l -0.88522,1.10304 0.12449,0.67403 c 0.16915,0.9159 0.0238,2.30808 -0.35443,3.39581 -0.9072,2.60866 -3.13598,4.41934 -4.13321,3.35785 -0.77693,-0.82702 0.14337,-3.23395 2.5536,-6.67862 l 0.69542,-0.99388 -0.29343,-0.71736 c -0.16138,-0.39456 -0.65242,-1.28011 -1.0912,-1.9679 -1.03447,-1.62155 -1.60222,-2.74768 -1.94541,-3.85869 l -0.27705,-0.89693 -1.54247,1.0761 c -1.60168,1.1174 -4.4093,3.40868 -5.25912,4.29194 -0.48142,0.50036 -0.49665,0.54904 -0.96237,3.07431 -1.76116,9.54941 -3.68673,15.99112 -5.67343,18.97953 -0.98569,1.4827 -1.92356,1.98089 -2.81539,1.49552 z m 1.4727,-1.39704 c 1.22093,-1.28346 2.88763,-5.61554 4.24648,-11.03743 0.59526,-2.37511 1.91755,-8.66023 1.91755,-9.11451 0,-0.1806 -1.15492,1.17906 -2.02951,2.38931 -3.35282,4.63957 -5.35285,9.48897 -5.72304,13.87643 -0.20816,2.46713 0.17995,4.42084 0.87822,4.42084 0.11094,0 0.43057,-0.24059 0.7103,-0.53464 z m -6.26323,-13.70728 c 0.69854,-0.64389 1.1341,-1.34187 1.49873,-2.40169 0.25298,-0.7353 0.50718,-2.44347 0.36363,-2.44347 -0.13799,0 -1.69646,2.51439 -2.14862,3.46651 -0.50416,1.06162 -0.71312,1.93053 -0.46426,1.93053 0.0835,0 0.42122,-0.24835 0.75052,-0.55188 z m 23.03612,0 c 0.69855,-0.64389 1.1341,-1.34187 1.49873,-2.40169 0.25299,-0.7353 0.50719,-2.44347 0.36363,-2.44347 -0.13798,0 -1.69644,2.51439 -2.14861,3.46651 -0.50416,1.06162 -0.71312,1.93053 -0.46427,1.93053 0.0835,0 0.42122,-0.24835 0.75052,-0.55188 z m -56.768917,7.05271 c -0.205256,-0.31325 -0.211385,-0.49956 -0.06824,-2.07325 0.252436,-2.77514 1.014818,-7.49637 2.176333,-13.47747 0.242531,-1.24888 0.42698,-2.27069 0.409886,-2.27069 -0.01712,0 -0.342542,0.54793 -0.723222,1.21761 -2.500661,4.39914 -5.766578,8.29809 -8.121067,9.69515 -4.357035,2.58531 -7.223345,-0.695 -6.629384,-7.58689 0.544818,-6.32165 3.127966,-13.53391 7.383755,-20.615736 3.09619,-5.1522 5.596243,-7.65056 7.655749,-7.65056 2.875679,0 3.619807,4.11981 1.99641,11.052946 -0.375352,1.60303 -0.464105,1.77707 -0.906234,1.77707 -0.448906,0 -0.498279,-0.37159 -0.204097,-1.53612 0.800377,-3.168316 1.130297,-6.460056 0.811308,-8.094746 -0.278605,-1.42774 -0.90206,-2.21628 -1.752294,-2.21628 -0.514523,0 -1.612565,0.62927 -2.365156,1.35542 -2.144248,2.06894 -4.673356,5.96557 -7.020517,10.816626 -2.383927,4.92704 -3.637653,8.71852 -4.354153,13.16766 -0.314397,1.9523 -0.320904,5.33475 -0.01249,6.48099 0.315043,1.17077 0.806198,2.0672 1.366966,2.49492 0.410034,0.31275 0.610449,0.37016 1.292188,0.37016 0.673501,0 0.979837,-0.0854 1.853136,-0.51695 0.884517,-0.43703 1.30199,-0.77279 2.700597,-2.17197 2.329032,-2.33 4.420797,-5.34147 6.612692,-9.52019 0.597236,-1.13859 0.698003,-1.41505 0.515747,-1.41498 -0.124578,4e-5 -1.914728,0.18515 -3.978105,0.41134 -4.555548,0.4994 -5.502853,0.5353 -5.707263,0.21631 -0.112976,-0.17631 -0.09788,-0.27605 0.06669,-0.44062 0.220689,-0.22069 1.091217,-0.3399 7.468861,-1.02278 2.362007,-0.25292 2.970989,-0.3581 3.067054,-0.52977 0.136753,-0.24436 0.641326,-0.28517 0.857164,-0.0693 0.182321,0.18232 2.528681,-0.16732 4.018419,-0.59881 1.142217,-0.33083 1.48036,-0.25226 1.397642,0.32478 -0.0621,0.43323 -1.201347,0.8118 -3.599553,1.19614 -1.013588,0.16244 -1.862274,0.30932 -1.885966,0.32641 -0.241913,0.17449 -2.243329,10.76425 -2.983283,15.78496 -0.414631,2.81334 -0.414661,2.8811 -9.95e-4,3.06947 0.404895,0.18448 0.419517,0.53583 0.05569,1.33793 -0.499856,1.10199 -0.97813,1.34601 -1.394035,0.71126 z m 16.278917,-3.4711 c -0.47014,-0.29878 -0.002,-3.46462 1.72145,-11.63986 0.50227,-2.38259 0.89542,-4.34977 0.87367,-4.37152 -0.0217,-0.0217 -0.30041,0.28739 -0.61927,0.68698 -0.31885,0.39958 -1.21017,1.33559 -1.9807,2.08001 -2.02278,1.95426 -3.28837,2.51749 -4.50993,2.00709 -0.58287,-0.24353 -1.23419,-1.02037 -1.42216,-1.69622 -0.362193,-1.30229 -0.05817,-3.72567 0.73012,-5.81998 1.26052,-3.3489 3.14532,-5.29313 4.15374,-4.28471 0.69633,0.69633 -0.0115,2.13076 -2.07876,4.21232 l -1.50335,1.5138 -0.24756,1.18472 c -0.28663,1.37168 -0.30849,1.95876 -0.10329,2.77368 0.33442,1.32811 1.4552,1.59054 2.80947,0.65782 1.57981,-1.08806 5.33354,-5.45073 5.5371,-6.43535 0.26838,-1.29817 1.85448,-7.8985 2.4256,-10.09384 1.81864,-6.990626 3.40638,-10.026186 4.61303,-8.819536 0.33982,0.33982 0.3416,1.04781 0.006,2.44699 -0.45814,1.91085 -1.84967,4.99013 -3.46088,7.658506 -0.70415,1.16616 -0.76885,1.35249 -1.46247,4.21232 -1.43962,5.93555 -3.37458,15.00445 -4.23476,19.84786 -0.31051,1.74836 -0.32458,1.95826 -0.13825,2.06253 0.2644,0.14797 0.26269,0.4861 -0.006,1.15726 -0.27697,0.6922 -0.67591,0.93059 -1.10308,0.65913 z m -2.41671,-21.16636 c 0.25382,-0.38226 0.43921,-0.76189 0.41196,-0.84362 -0.0627,-0.18798 -0.86892,0.80518 -1.35596,1.67029 l -0.37054,0.65817 0.42652,-0.3949 c 0.23459,-0.2172 0.63419,-0.70767 0.88802,-1.08994 z m 11.4157,-13.432866 c 0.45274,-1.31165 0.65726,-2.12902 0.53272,-2.12902 -0.2512,0 -1.94248,4.39681 -2.20261,5.72613 -0.12221,0.624476 1.18374,-2.18864 1.66989,-3.59711 z M 46.598919,126.16273 c -10.896051,-1.76333 -19.937747,-3.23671 -20.092659,-3.27418 -0.154912,-0.0375 -0.314083,-0.15261 -0.353711,-0.25588 -0.05983,-0.1559 5.466262,-20.3094 5.595615,-20.40709 0.02304,-0.0174 2.648234,-1.80994 5.833784,-3.983406 3.185551,-2.17348 8.363028,-5.70755 11.505497,-7.8535 5.247507,-3.58345 5.757562,-3.90111 6.252662,-3.89423 0.296491,0.004 5.010027,0.4632 10.474526,1.02017 l 9.935448,1.01268 0.121345,0.34554 c 0.176425,0.50237 -8.361987,40.083936 -8.702524,40.342356 -0.127807,0.097 -0.350849,0.17122 -0.495647,0.16497 -0.144798,-0.006 -9.178253,-1.45411 -20.074336,-3.21743 z m 16.969943,1.61196 C 63.266948,127.52372 38.528636,115.0425 38.39657,115.07452 c -0.09764,0.0237 -2.47498,1.61277 -5.28298,3.53133 l -5.105477,3.48832 0.640435,0.10894 c 2.348283,0.39948 34.520488,5.59012 34.722864,5.60216 0.138763,0.008 0.227614,-0.006 0.19745,-0.0306 z M 58.140179,116.9664 c -3.922318,-5.75244 -7.167206,-10.46168 -7.210863,-10.46497 -0.09062,-0.007 -11.024285,7.43829 -11.271177,7.67493 -0.125254,0.12005 2.716658,1.62544 12.636944,6.6939 7.039204,3.59648 12.838607,6.54266 12.887568,6.54709 0.04896,0.004 -3.120155,-4.69852 -7.042472,-10.45095 z m 6.606815,-4.53366 c -0.78373,-7.84778 -1.450205,-14.293926 -1.481056,-14.324786 -0.07155,-0.0716 -11.390129,7.631796 -11.396711,7.756526 -0.0081,0.15297 14.210031,20.95599 14.270007,20.87895 0.01801,-0.0231 -0.608509,-6.46294 -1.39224,-14.31069 z m 6.206272,-4.7354 c 2.032441,-9.438656 3.677365,-17.215156 3.65538,-17.281106 -0.02199,-0.0659 -2.349559,1.45696 -5.1724,3.38425 -4.252709,2.90354 -5.128152,3.55291 -5.10752,3.78853 0.491553,5.613666 2.762877,27.677716 2.831788,27.508556 0.05357,-0.13148 1.760304,-7.96158 3.792752,-17.40023 z M 32.347307,117.8831 c 2.542546,-1.73689 4.608987,-3.17182 4.592091,-3.18872 -0.07695,-0.0769 -7.22761,-1.09659 -7.285356,-1.03884 -0.03587,0.0359 -0.416184,1.32725 -0.845159,2.86975 -0.428975,1.54251 -0.892786,3.20816 -1.030693,3.70146 -0.137903,0.4933 -0.206406,0.87833 -0.152226,0.85563 0.05419,-0.0227 2.178791,-1.46239 4.721343,-3.19928 z m 5.746818,-4.37808 c 0.614726,-2.04642 2.321003,-8.89993 2.235516,-8.97926 -0.140763,-0.13061 -7.681432,-1.3676 -7.773801,-1.27523 -0.09479,0.0948 -2.641164,9.22395 -2.590307,9.28667 0.05149,0.0635 7.207528,1.16234 7.706272,1.18333 0.230882,0.01 0.377076,-0.0649 0.42232,-0.21551 z m 7.820289,-4.89314 c 2.048898,-1.39812 3.703952,-2.56336 3.677897,-2.58942 -0.05929,-0.0593 -8.031808,-1.37846 -8.071141,-1.33548 -0.05646,0.0617 -2.162162,8.09832 -2.162162,8.25213 0,0.0863 0.636785,-0.28008 1.415073,-0.81415 0.778283,-0.53407 3.091434,-2.11496 5.140333,-3.51308 z m 0.992896,-8.09015 c -1.653799,-2.427456 -3.036939,-4.416236 -3.073641,-4.419496 -0.06818,-0.006 -1.983114,7.192446 -1.976905,7.431436 0.003,0.11082 7.879618,1.51766 8.012331,1.43107 0.02483,-0.0162 -1.30799,-2.01555 -2.961785,-4.44301 z m 12.874245,-1.374646 c 1.349911,-0.91774 2.44063,-1.68363 2.423819,-1.70198 -0.06928,-0.0756 -8.063027,-0.9616 -8.358179,-0.92637 -0.310158,0.037 -0.347939,0.16635 -1.145575,3.921516 -0.453667,2.13578 -0.827647,3.93096 -0.831074,3.98928 -0.0035,0.0583 1.222914,-0.73092 2.7252,-1.75389 1.50228,-1.02297 3.835899,-2.61083 5.185809,-3.528556 z M 51.68915,100.2648 c 0.446652,-2.111676 0.772447,-3.875506 0.723989,-3.919616 -0.10824,-0.0985 -7.534782,-0.94163 -7.612235,-0.86417 -0.03055,0.0305 1.286318,2.021 2.926316,4.4233 1.639994,2.402286 3.019616,4.330016 3.065821,4.283846 0.04622,-0.0462 0.449458,-1.81169 0.896109,-3.92336 z m -9.974104,-0.429246 c 0.524709,-1.99776 0.930331,-3.65599 0.901375,-3.68494 -0.06051,-0.0605 -9.0416,6.045516 -8.983585,6.107736 0.041,0.044 6.573734,1.17263 6.920811,1.19571 0.163005,0.0109 0.411509,-0.7634 1.161399,-3.618506 z m 21.655077,-3.57471 c 0.127544,-0.41206 1.779354,-7.72163 1.751025,-7.7486 -0.06799,-0.0647 -9.603263,-0.98388 -9.656313,-0.93083 -0.0967,0.0967 -1.678467,7.71648 -1.615008,7.77994 0.05167,0.0517 8.44919,1.07206 9.161685,1.11325 0.168868,0.01 0.316705,-0.0784 0.358611,-0.21376 z m 5.973122,-3.64958 c 2.541221,-1.73577 4.60311,-3.17323 4.58198,-3.19436 -0.0712,-0.0712 -7.640308,-0.80843 -7.698871,-0.74986 -0.106434,0.10643 -1.684163,7.17439 -1.593142,7.137 0.0493,-0.0203 2.168821,-1.45701 4.710033,-3.19278 z m -15.869403,-0.82601 c 0.405761,-1.93668 0.720068,-3.53897 0.698456,-3.56064 -0.02159,-0.0217 -2.055362,1.34071 -4.519449,3.02752 -2.464083,1.6868 -4.453414,3.09365 -4.420732,3.12634 0.04324,0.0432 5.460475,0.71519 7.364268,0.91346 0.07935,0.008 0.458443,-1.50677 0.877457,-3.50668 z M 165.46995,119.40431 c -0.075,-0.14003 -0.1358,-0.39178 -0.13523,-0.55944 0.001,-0.34324 0.58512,-3.2048 0.72802,-3.56764 0.051,-0.12938 -0.72902,0.58679 -1.73327,1.5915 -2.44955,2.45061 -3.62417,3.03826 -4.95855,2.48072 -0.58287,-0.24353 -1.2342,-1.02037 -1.42216,-1.69622 -0.36219,-1.30229 -0.0582,-3.72567 0.73011,-5.81998 1.26053,-3.3489 3.14533,-5.29313 4.15375,-4.28471 0.69632,0.69633 -0.0116,2.13076 -2.07876,4.21232 l -1.50336,1.5138 -0.24755,1.18472 c -0.28663,1.37168 -0.30849,1.95876 -0.1033,2.77368 0.33443,1.32811 1.4552,1.59054 2.80947,0.65782 1.5802,-1.08832 5.11009,-5.18259 5.54256,-6.42874 0.68549,-1.97523 1.03589,-2.46721 1.55164,-2.17859 0.29409,0.16458 0.27189,0.4744 -0.0938,1.30912 -0.52874,1.20691 -2.01271,5.90704 -1.86503,5.90704 0.0253,0 0.35639,-0.51831 0.73568,-1.1518 1.08387,-1.81026 2.74054,-4.21126 2.96523,-4.29748 0.29238,-0.1122 0.69788,0.14174 0.77264,0.48387 0.0351,0.16081 0.0803,1.22248 0.10028,2.35928 0.023,1.30784 0.0908,2.12116 0.18439,2.21465 0.10953,0.10935 0.44281,-0.44964 1.28193,-2.15008 1.15818,-2.34697 1.69458,-3.11874 2.16763,-3.11874 0.48566,0 0.63727,0.32163 0.72988,1.54827 0.14702,1.94767 0.45814,2.66405 1.15694,2.66405 0.70684,0 1.56842,-0.54758 2.95142,-1.87579 0.73499,-0.7059 1.43093,-1.28344 1.54651,-1.28344 0.296,0 0.52293,0.46863 0.36754,0.75898 -0.0684,0.12785 -0.69236,0.7819 -1.38654,1.45345 -1.4037,1.35795 -2.51004,1.99959 -3.44807,1.99977 -1.12219,2.7e-4 -1.91515,-0.98068 -2.12821,-2.63258 l -0.11037,-0.85563 -1.06384,2.10615 c -0.58513,1.15838 -1.17429,2.20281 -1.30926,2.32094 -0.40924,0.35823 -0.81819,0.42065 -1.18426,0.1808 -0.52691,-0.34525 -0.73767,-1.03452 -0.82479,-2.69744 l -0.0792,-1.51205 -0.80751,1.24879 c -0.44414,0.68682 -1.26514,2.07807 -1.82447,3.09165 -0.55934,1.01358 -1.10848,1.94654 -1.22033,2.07324 -0.27013,0.30599 -0.77795,0.293 -0.94773,-0.0243 z m -4.00097,-9.98392 c 0.25382,-0.38226 0.43921,-0.76189 0.41197,-0.84362 -0.0627,-0.18798 -0.86892,0.80518 -1.35596,1.67029 l -0.37054,0.65817 0.42652,-0.3949 c 0.23458,-0.2172 0.63419,-0.70767 0.88801,-1.08994 z"
           id="path891-6" />
      </g>
    </g>
  </g>
</svg>
