<?xml version="1.0" encoding="UTF-8" standalone="no"?>
<svg
   id="efb3668a-ae8f-465f-bc1a-fafc243ec1a9"
   data-name="Layer 1"
   width="652"
   height="570.12526"
   viewBox="0 0 652 570.12526"
   version="1.1"
   sodipodi:docname="success.svg"
   inkscape:version="1.1 (c68e22c387, 2021-05-23)"
   xmlns:inkscape="http://www.inkscape.org/namespaces/inkscape"
   xmlns:sodipodi="http://sodipodi.sourceforge.net/DTD/sodipodi-0.dtd"
   xmlns="http://www.w3.org/2000/svg"
   xmlns:svg="http://www.w3.org/2000/svg">
  <defs
     id="defs57" />
  <sodipodi:namedview
     id="namedview55"
     pagecolor="#ffffff"
     bordercolor="#666666"
     borderopacity="1.0"
     inkscape:pageshadow="2"
     inkscape:pageopacity="0.0"
     inkscape:pagecheckerboard="0"
     showgrid="false"
     inkscape:zoom="0.73919835"
     inkscape:cx="413.28555"
     inkscape:cy="290.85563"
     inkscape:window-width="1600"
     inkscape:window-height="831"
     inkscape:window-x="0"
     inkscape:window-y="0"
     inkscape:window-maximized="1"
     inkscape:current-layer="efb3668a-ae8f-465f-bc1a-fafc243ec1a9" />
  <path
     d="M383.95544,670.80537c-21.41987,11.54992-30.61494,36.063-30.61494,36.063s25.53333,5.787,46.95319-5.763,30.61493-36.063,30.61493-36.063S405.3753,659.25547,383.95544,670.80537Z"
     transform="translate(-274 -164.93737)"
     fill="#f2f2f2"
     id="path2" />
  <path
     d="M391.00243,678.74409c-12.54547,20.85238-37.4643,28.88326-37.4643,28.88326s-4.57855-25.77746,7.96693-46.62985,37.46424-28.88328,37.46424-28.88328S403.54791,657.8917,391.00243,678.74409Z"
     transform="translate(-274 -164.93737)"
     fill="#f2f2f2"
     id="path4" />
  <rect
     x="437.44488"
     y="40.12526"
     width="76"
     height="45"
     fill="#2f2e41"
     id="rect6" />
  <path
     d="M636.15176,212.3186h-39.1842V198.65473a19.5921,19.5921,0,0,1,39.1842,0Zm-38.31666-.86755h37.44912V198.65473a18.72456,18.72456,0,0,0-37.44912,0Z"
     transform="translate(-274 -164.93737)"
     fill="#3f3d56"
     id="path8" />
  <polygon
     points="381.527 45.502 381.527 40.162 281.877 42.832 278.723 178.092 293.471 196.31 381.527 45.502"
     fill="#3f3d56"
     id="polygon10" />
  <polygon
     points="399.167 43.622 291.158 46.08 293.471 196.31 397.705 185.075 399.167 43.622"
     fill="#99ffff"
     id="polygon12" />
  <polygon
     points="490.997 530.355 478.737 530.355 472.905 483.067 490.999 483.067 490.997 530.355"
     fill="#ffb6b6"
     id="polygon14" />
  <path
     d="M768.12328,707.17645l-39.53076-.00147v-.5A15.3873,15.3873,0,0,1,743.979,691.28875h.001l24.144.001Z"
     transform="translate(-274 -164.93737)"
     fill="#2f2e41"
     id="path16" />
  <polygon
     points="445.997 530.355 433.737 530.355 427.905 483.067 445.999 483.067 445.997 530.355"
     fill="#ffb6b6"
     id="polygon18" />
  <path
     d="M723.12328,707.17645l-39.53076-.00147v-.5A15.3873,15.3873,0,0,1,698.979,691.28875h.001l24.144.001Z"
     transform="translate(-274 -164.93737)"
     fill="#2f2e41"
     id="path20" />
  <path
     d="M683.99246,399.19649s-17.91244,38.5748-1.73,116.22047,16.31629,162.88821,16.31629,162.88821l24.74368.40336,13.9-183.52L744.5,676.11766h24.378l21.48451-178.0691s14.13754-79.51349-17.39-93.74971Z"
     transform="translate(-274 -164.93737)"
     fill="#2f2e41"
     id="path22" />
  <path
     d="M769.73255,263.06263,715.555,258.0685l0,0c-16.98986,12.38353-26.52543,34.62507-24.56793,57.57354,2.65407,31.11463,1.75616,73.93415-19.54217,92.53644,0,0,58.0494,45.8157,109.61509,2.34991,0,0-17.63267-47.23775-5.52651-66.10177S792.00719,272.56263,769.73255,263.06263Z"
     transform="translate(-274 -164.93737)"
     fill="#e4e4e4"
     id="path24" />
  <path
     d="M608.527,186.17919a10.7427,10.7427,0,0,0,11.43977,11.8524L691.5,264.78927l12.82084-19.52982-74.34632-59.47956a10.80091,10.80091,0,0,0-21.44756.3993Z"
     transform="translate(-274 -164.93737)"
     fill="#ffb6b6"
     id="path26" />
  <path
     d="M678.14208,254.47645l16.96983-17.43179a4.81689,4.81689,0,0,1,7.28075.438l14.712,19.2826a13.37737,13.37737,0,0,1-18.71875,19.11593l-19.61051-14.13836a4.81689,4.81689,0,0,1-.63333-7.26636Z"
     transform="translate(-274 -164.93737)"
     fill="#e4e4e4"
     id="path28" />
  <path
     d="M874.28441,348.7493a10.74268,10.74268,0,0,0-12.08059-11.19852l-75.13166-62.68039-11.716,20.21194,77.536,55.25723a10.80091,10.80091,0,0,0,21.39225-1.59026Z"
     transform="translate(-274 -164.93737)"
     fill="#ffb6b6"
     id="path30" />
  <path
     d="M800.98244,284.42515l-15.97515,18.34766a4.81688,4.81688,0,0,1-7.29384-.0328l-15.76058-18.43546a13.37737,13.37737,0,0,1,17.62782-20.12637l20.3657,13.027a4.81688,4.81688,0,0,1,1.03605,7.21995Z"
     transform="translate(-274 -164.93737)"
     fill="#e4e4e4"
     id="path32" />
  <path
     d="M881.9179,375.2531H852.237v-10.35a14.84048,14.84048,0,0,1,29.681,0Zm-29.02381-.65714h28.36666V364.9031a14.18333,14.18333,0,0,0-28.36666,0Z"
     transform="translate(-274 -164.93737)"
     fill="#3f3d56"
     id="path34" />
  <polygon
     points="622.594 208.892 622.594 204.847 547.112 206.87 544.723 309.325 555.894 323.125 622.594 208.892"
     fill="#3f3d56"
     id="polygon36" />
  <polygon
     points="635.956 207.468 554.142 209.33 555.894 323.125 634.849 314.615 635.956 207.468"
     fill="#99ffff"
     id="polygon38" />
  <circle
     cx="472.44488"
     cy="52.12526"
     r="32"
     fill="#ffb6b6"
     id="circle40" />
  <path
     d="M731.71177,202.80076c11.07,10.84841,30.33409,11.88815,42.50746,2.29425a71.78407,71.78407,0,0,1-15.288,67.676c6.77173,2.44676,14.56709.83705,20.61973-3.06277s10.53515-9.85419,13.91774-16.21037c8.37356-15.73462,10.4701-34.94725,4.54608-51.758s-20.11671-30.75035-37.3597-35.26409-37.01356,1.06186-48.53371,14.66262c-12.04649,14.22215-13.99821,35.06129-8.71923,52.93641s16.85751,33.22578,29.579,46.84748A195.4652,195.4652,0,0,1,720.926,232.02061c-.64717-5.73728-1.02538-11.65123.59548-17.19271s5.6099-10.70314,11.16965-12.26017"
     transform="translate(-274 -164.93737)"
     fill="#2f2e41"
     id="path42" />
  <path
     d="M925,709.06263H544a1,1,0,0,1,0-2H925a1,1,0,0,1,0,2Z"
     transform="translate(-274 -164.93737)"
     fill="#cacaca"
     id="path44" />
  <path
     d="M437,709.06263H275a1,1,0,0,1,0-2H437a1,1,0,0,1,0,2Z"
     transform="translate(-274 -164.93737)"
     fill="#cacaca"
     id="path46" />
  <path
     d="M865.9179,622.2531H836.237v-10.35a14.84048,14.84048,0,0,1,29.681,0Zm-29.02381-.65714h28.36666V611.9031a14.18333,14.18333,0,0,0-28.36666,0Z"
     transform="translate(-274 -164.93737)"
     fill="#cacaca"
     id="path48" />
  <polygon
     points="606.594 455.892 606.594 451.847 531.112 453.87 528.723 556.325 539.894 570.125 606.594 455.892"
     fill="#cacaca"
     id="polygon50" />
  <polygon
     points="619.956 454.468 538.142 456.33 539.894 570.125 618.849 561.615 619.956 454.468"
     fill="#e4e4e4"
     id="polygon52" />
  <path
     style="fill:#99ffff;fill-opacity:1;stroke-width:0.298167"
     d="m 269.58448,349.72111 c 0.21523,-0.0861 0.4724,-0.0755 0.57148,0.0236 0.0991,0.0991 -0.0771,0.16954 -0.39134,0.1566 -0.34735,-0.0143 -0.418,-0.085 -0.18014,-0.18015 z m 9.6208,-5.63548 c 0.0143,-0.34736 0.085,-0.418 0.18014,-0.18015 0.0861,0.21524 0.0755,0.47241 -0.0236,0.57149 -0.099,0.0991 -0.16956,-0.0771 -0.15661,-0.39134 z m -9.41581,-1.1928 c -6.66734,-0.54277 -7.51105,-0.76368 -8.9746,-2.34987 -1.34191,-1.45434 -2.15598,-3.39098 -3.07513,-7.31556 -1.31252,-5.60421 -2.2561,-16.5508 -2.06898,-24.00266 0.0942,-3.75252 0.17716,-4.30045 0.8209,-5.42412 1.22493,-2.13817 4.5712,-3.17685 9.71979,-3.01697 5.89818,0.18312 17.62089,0.0102 19.01374,-0.281 0.80236,-0.16756 1.49205,-0.18335 1.58298,-0.0363 0.0886,0.1434 0.52219,0.26203 0.9635,0.26363 2.06961,0.008 5.40297,2.47636 5.94144,4.40052 0.34932,1.24823 0.21626,14.06132 -0.18958,18.2573 -0.4425,4.57497 -1.41972,11.2427 -1.95294,13.32525 -0.21793,0.85121 -0.68819,1.95763 -1.04502,2.45874 -1.09992,1.54469 -3.97996,2.97779 -7.30332,3.63409 -2.29351,0.45293 -8.4475,0.49273 -13.43278,0.0869 z m -0.81177,-3.56989 c 0.51024,-0.3574 0.66268,-0.75935 0.66268,-1.7474 0,-1.39977 -0.70686,-2.66736 -2.69914,-4.84029 -2.55489,-2.78656 -3.0741,-5.63618 -1.55552,-8.53733 0.68713,-1.31269 0.81507,-1.92776 0.81973,-3.94081 0.006,-2.74639 -0.74609,-4.72113 -2.89349,-7.59376 -1.51886,-2.0318 -5.23413,-5.67469 -5.78746,-5.67469 -0.58126,0 -0.53082,2.92252 0.19859,11.50666 0.85115,10.01681 1.73956,15.25713 3.01525,17.78566 0.40112,0.79508 1.01108,1.34432 2.12345,1.91208 3.06282,1.56327 4.98908,1.91914 6.11591,1.12988 z m 20.26012,-0.62471 c -0.0758,-0.39643 -0.0573,-0.64024 0.0412,-0.54179 0.36144,0.36142 2.64437,-20.65011 2.9167,-26.84436 0.17668,-4.01837 -0.0733,-5.5161 -0.92031,-5.5161 -0.94375,0 -1.15323,1.33833 -1.5387,9.83051 -0.21239,4.67875 -0.5305,11.19031 -0.70692,14.47015 -0.48721,9.05713 -0.4856,9.83623 0.0196,9.52401 0.17943,-0.11089 0.26424,-0.52598 0.18846,-0.92242 z M 258.745,340.3636 c -0.10809,-0.1749 -0.13259,-0.38196 -0.0544,-0.46012 0.0781,-0.0782 0.22156,0.0649 0.31867,0.31801 0.20161,0.52539 0.0298,0.61781 -0.26424,0.14211 z m 36.32898,-23.83358 c 0,-0.90196 0.0559,-1.27093 0.12422,-0.81996 0.0683,0.45097 0.0683,1.18894 0,1.63992 -0.0683,0.45098 -0.12422,0.082 -0.12422,-0.81996 z m -0.0312,-3.13076 c 0.006,-0.49198 0.0729,-0.65714 0.14849,-0.36704 0.0756,0.29011 0.0706,0.69264 -0.0113,0.8945 -0.0817,0.20187 -0.14355,-0.0355 -0.13745,-0.52746 z m -40.5854,-2.70836 c 0.0143,-0.34735 0.085,-0.418 0.18015,-0.18014 0.0861,0.21524 0.0755,0.4724 -0.0235,0.57149 -0.0991,0.0991 -0.16955,-0.0771 -0.15661,-0.39135 z m 39.76958,-7.59826 c -0.10807,-0.17491 -0.13258,-0.38196 -0.0544,-0.46012 0.0782,-0.0782 0.22155,0.0649 0.31866,0.31801 0.20162,0.52541 0.0298,0.61782 -0.26424,0.14211 z m -34.57057,-2.6715 c 0.0746,-0.12073 0.46903,-0.28322 0.87646,-0.36111 0.40744,-0.0779 0.67976,-0.0428 0.60515,0.0779 -0.0746,0.12073 -0.46902,0.28322 -0.87646,0.36111 -0.40744,0.0779 -0.67975,0.0428 -0.60515,-0.0779 z m 28.21931,-6.84997 c 0,-0.40997 0.0677,-0.57769 0.1504,-0.37271 0.0827,0.20499 0.0827,0.54043 0,0.74542 -0.0827,0.205 -0.1504,0.0373 -0.1504,-0.37271 z"
     id="path7589"
     sodipodi:nodetypes="sssssssssscssssscccsssssccsssscssssssccsssssccsssssssscscccssssssssssssssscss" />
  <path
     style="fill:#e4e4e4;fill-opacity:1;stroke-width:0.298167"
     d="m 268.19513,349.63369 c -1.80883,-0.20573 -2.34579,-0.39698 -3.08063,-1.09718 -1.13993,-1.08617 -1.71101,-2.463 -1.94326,-4.68494 l -0.18526,-1.77256 1.16548,0.21657 c 1.81695,0.33759 9.99516,0.94016 12.61934,0.92977 l 2.36422,-0.009 0.18569,1.34177 c 0.10211,0.73796 0.33019,1.71073 0.5068,2.1617 0.30394,0.77618 0.42345,0.81997 2.23781,0.81997 1.96309,0 3.46844,0.51956 3.76813,1.30054 0.11829,0.30825 -0.14291,0.4782 -0.93291,0.60702 -1.88954,0.30809 -14.4081,0.44802 -16.70541,0.18671 z m 20.25975,-1.70797 c 0.21711,-0.36152 0.45892,-0.59314 0.53736,-0.51469 0.0785,0.0785 -0.0992,0.37423 -0.39474,0.65731 -0.51343,0.49177 -0.51978,0.48542 -0.14262,-0.14262 z m -26.84338,-0.57558 c -0.33989,-0.4321 -0.6139,-0.93526 -0.60892,-1.11814 0.005,-0.18288 0.15795,-0.0641 0.33991,0.26384 0.18196,0.32798 0.53412,0.83115 0.78257,1.11814 0.24844,0.28698 0.37357,0.52179 0.27807,0.52179 -0.0955,0 -0.45175,-0.35355 -0.79163,-0.78563 z m 25.91894,0.34116 c 0,-0.0998 0.19021,-0.54932 0.4227,-0.99889 0.23248,-0.44958 0.59386,-1.64608 0.80305,-2.65892 0.21429,-1.0375 0.5675,-1.91332 0.80898,-2.00599 0.60304,-0.2314 0.26164,1.74203 -0.66308,3.833 -0.61167,1.38311 -1.37165,2.39749 -1.37165,1.8308 z m 4.79423,-10.46346 c 0.0143,-0.34736 0.085,-0.418 0.18014,-0.18016 0.0861,0.21525 0.0755,0.47241 -0.0236,0.5715 -0.0991,0.0991 -0.16955,-0.0771 -0.1566,-0.39134 z m -34.88562,-1.19269 c 0.0143,-0.34733 0.085,-0.41799 0.18014,-0.18014 0.0861,0.21525 0.0756,0.47242 -0.0235,0.57149 -0.0991,0.0991 -0.16955,-0.0771 -0.1566,-0.39135 z m 36.37644,-5.66518 c 0.0143,-0.34736 0.085,-0.41801 0.18016,-0.18015 0.0861,0.21523 0.0755,0.47242 -0.0236,0.5715 -0.0991,0.099 -0.16954,-0.077 -0.1566,-0.39135 z m 0.32171,-1.91324 c 0,-0.41 0.0677,-0.5777 0.1504,-0.37271 0.0827,0.20498 0.0827,0.54041 0,0.74542 -0.0827,0.20499 -0.1504,0.0374 -0.1504,-0.37271 z m -38.76179,-1.78901 c 0,-0.40999 0.0677,-0.5777 0.15039,-0.37271 0.0827,0.20499 0.0827,0.54042 0,0.74542 -0.0827,0.20499 -0.15039,0.0374 -0.15039,-0.37271 z m 39.03642,-0.17393 c 0.0143,-0.34736 0.085,-0.418 0.18015,-0.18015 0.0861,0.21524 0.0755,0.47241 -0.0236,0.57149 -0.0991,0.099 -0.16956,-0.0771 -0.15661,-0.39134 z m -39.33459,-1.91325 c 0,-0.40998 0.0677,-0.57769 0.15039,-0.37271 0.0827,0.20498 0.0827,0.54043 0,0.74542 -0.0827,0.20499 -0.15039,0.0373 -0.15039,-0.37271 z m 39.66735,-1.04358 c 0.006,-0.49198 0.0729,-0.65715 0.1485,-0.36704 0.0757,0.29011 0.0706,0.69264 -0.0113,0.89451 -0.0817,0.20186 -0.14353,-0.0355 -0.13745,-0.52747 z m -39.95447,-1.4908 c 0.006,-0.49197 0.0729,-0.65714 0.14851,-0.36703 0.0756,0.29011 0.0706,0.69264 -0.0111,0.8945 -0.0817,0.20187 -0.14354,-0.0355 -0.13746,-0.52747 z m 40.28691,-2.38534 c 0.002,-0.98395 0.0573,-1.35053 0.12369,-0.81462 0.0663,0.53591 0.065,1.34097 -0.003,1.789 -0.0681,0.44805 -0.12233,0.0101 -0.12065,-0.97438 z m -40.55792,-1.19268 c 0.002,-0.81995 0.0601,-1.11999 0.12868,-0.66677 0.0686,0.45324 0.0667,1.12411 -0.004,1.49085 -0.0708,0.36672 -0.12685,-0.005 -0.12462,-0.82408 z m 40.56095,-7.60331 c 0,-1.06595 0.0541,-1.50202 0.12026,-0.96905 0.0662,0.53298 0.0662,1.40512 0,1.9381 -0.0661,0.53298 -0.12026,0.0969 -0.12026,-0.96905 z M 254.503,309.37399 c 0,-0.57397 0.0614,-0.80878 0.13637,-0.52179 0.075,0.28699 0.075,0.7566 0,1.04358 -0.075,0.28699 -0.13637,0.0522 -0.13637,-0.52179 z m 40.24159,-3.13075 c 0.006,-0.49198 0.0729,-0.65715 0.1485,-0.36704 0.0757,0.2901 0.0706,0.69263 -0.0113,0.8945 -0.0817,0.20186 -0.14353,-0.0355 -0.13745,-0.52746 z m -39.96552,-0.44726 c 0,-0.40998 0.0677,-0.5777 0.1504,-0.37271 0.0827,0.20499 0.0827,0.54043 0,0.74542 -0.0827,0.205 -0.1504,0.0373 -0.1504,-0.37271 z m 39.63276,-1.96294 c 0.0143,-0.34734 0.085,-0.418 0.18015,-0.18013 0.0861,0.21523 0.0755,0.47241 -0.0236,0.57148 -0.0991,0.0991 -0.16956,-0.0769 -0.15661,-0.39135 z m -38.78533,-1.16782 c 0.38516,-0.40997 0.76737,-0.74542 0.84937,-0.74542 0.082,0 -0.16605,0.33545 -0.5512,0.74542 -0.38516,0.40999 -0.76738,0.74542 -0.84937,0.74542 -0.082,0 0.16604,-0.33543 0.5512,-0.74542 z m 37.61063,-0.75488 c -0.38715,-0.32253 -0.57566,-0.58642 -0.41891,-0.58642 0.15674,0 0.52782,0.26835 0.82465,0.59634 0.68188,0.75345 0.50542,0.74913 -0.40574,-0.0101 z m -34.62895,-1.18275 c 0.24599,-0.15898 0.58143,-0.28904 0.74541,-0.28904 0.164,0 0.0969,0.13006 -0.14908,0.28904 -0.24598,0.15896 -0.58142,0.28902 -0.74542,0.28902 -0.16399,0 -0.0969,-0.13006 0.14909,-0.28902 z m 11.10674,0.0926 c 0.28699,-0.075 0.7566,-0.075 1.04358,0 0.28699,0.075 0.0522,0.13636 -0.52179,0.13636 -0.57396,0 -0.80878,-0.0614 -0.52179,-0.13636 z m 10.13769,0 c 0.287,-0.075 0.75661,-0.075 1.04361,0 0.28698,0.075 0.0522,0.13636 -0.5218,0.13636 -0.57398,0 -0.80879,-0.0614 -0.52181,-0.13636 z m -13.84615,-0.29637 c 0.21524,-0.0861 0.47242,-0.0755 0.57149,0.0236 0.0991,0.0991 -0.077,0.16955 -0.39135,0.15661 -0.34734,-0.0143 -0.41799,-0.085 -0.18014,-0.18014 z m 17.89006,0 c 0.21523,-0.0861 0.47242,-0.0755 0.5715,0.0236 0.099,0.0991 -0.0771,0.16955 -0.39136,0.15661 -0.34735,-0.0143 -0.41799,-0.085 -0.18014,-0.18014 z m -20.57356,-0.29811 c 0.21523,-0.0861 0.4724,-0.0755 0.57149,0.0236 0.0991,0.0991 -0.077,0.16956 -0.39135,0.15661 -0.34735,-0.0143 -0.41801,-0.085 -0.18014,-0.18014 z m 24.61595,-3.07668 c 0,-1.72191 0.0492,-2.42635 0.10954,-1.56539 0.0602,0.86097 0.0602,2.2698 0,3.13077 -0.0601,0.86095 -0.10954,0.15653 -0.10954,-1.56538 z m -8.05795,0.13621 c -0.12699,-0.33094 0.10018,-1.10834 0.59868,-2.04918 0.44181,-0.83378 0.93848,-2.25393 1.10371,-3.15589 0.80808,-4.41129 0.61475,-16.45433 -0.4732,-29.47667 -0.23784,-2.84681 -0.35858,-5.29551 -0.26832,-5.44156 0.35398,-0.57276 0.95587,-0.21371 1.4292,0.85259 1.68958,3.80619 3.46723,19.06568 3.54797,30.45585 0.0228,3.21534 -0.0559,6.24858 -0.17474,6.74055 -0.30922,1.27951 -1.94884,2.30814 -3.94266,2.4735 -1.35269,0.11212 -1.64937,0.0471 -1.82064,-0.39919 z m -18.18221,-5.05609 c 8e-4,-1.63993 0.0508,-2.27276 0.11127,-1.40631 0.0605,0.86645 0.0598,2.20822 -0.002,2.98168 -0.0611,0.77347 -0.11054,0.0646 -0.10977,-1.57537 z m 25.92954,-7.75237 c 0.002,-1.14793 0.0552,-1.58102 0.11975,-0.96238 0.0646,0.61862 0.0635,1.55785 -0.002,2.08716 -0.0659,0.52933 -0.11868,0.0233 -0.11736,-1.12478 z m -25.64483,-2.53423 c 0,-1.06596 0.0541,-1.50202 0.12025,-0.96905 0.0661,0.53297 0.0661,1.40512 0,1.93809 -0.0661,0.53297 -0.12025,0.0969 -0.12025,-0.96904 z m 25.33001,-4.47251 c 0,-0.73797 0.0582,-1.03987 0.12924,-0.6709 0.0711,0.36899 0.0711,0.97279 0,1.34176 -0.0711,0.36899 -0.12924,0.0671 -0.12924,-0.67086 z m -25.04607,-2.38535 c 0,-0.73797 0.0581,-1.03986 0.12921,-0.67088 0.0711,0.36898 0.0711,0.97278 0,1.34175 -0.071,0.36898 -0.12921,0.0671 -0.12921,-0.67087 z m 24.73588,-2.68351 c 0,-0.57397 0.0614,-0.80878 0.13636,-0.5218 0.075,0.28699 0.075,0.75661 0,1.04359 -0.075,0.28699 -0.13636,0.0522 -0.13636,-0.52179 z m -24.44975,-2.68351 c 0,-0.57397 0.0614,-0.80878 0.13636,-0.52179 0.075,0.28699 0.075,0.75659 0,1.04358 -0.075,0.28699 -0.13636,0.0522 -0.13636,-0.52179 z m 24.12949,-1.49084 c 0,-0.40998 0.0677,-0.5777 0.15038,-0.37271 0.0827,0.20499 0.0827,0.54044 0,0.74542 -0.0827,0.20499 -0.15038,0.0373 -0.15038,-0.37271 z m -23.84237,-2.53442 c 0.006,-0.49198 0.0729,-0.65714 0.1485,-0.36704 0.0756,0.29011 0.0707,0.69264 -0.0111,0.89451 -0.0817,0.20186 -0.14351,-0.0355 -0.13743,-0.52747 z m 23.55524,-0.89451 c 0.006,-0.49197 0.0729,-0.65713 0.14851,-0.36703 0.0756,0.29011 0.0707,0.69264 -0.0113,0.8945 -0.0817,0.20187 -0.14352,-0.0355 -0.13744,-0.52747 z m -23.26812,-2.53442 c 0,-0.40998 0.0677,-0.5777 0.1504,-0.37271 0.0827,0.20499 0.0827,0.54043 0,0.74542 -0.0827,0.20499 -0.1504,0.0373 -0.1504,-0.37271 z m 22.9589,-0.29817 c 0,-0.40998 0.0677,-0.5777 0.1504,-0.3727 0.0827,0.20498 0.0827,0.54042 0,0.74541 -0.0827,0.20499 -0.1504,0.0373 -0.1504,-0.37271 z m -22.66073,-2.68351 c 0,-0.40998 0.0677,-0.5777 0.15039,-0.37271 0.0827,0.205 0.0827,0.54044 0,0.74542 -0.0827,0.205 -0.15039,0.0373 -0.15039,-0.37271 z m 22.33903,0.12424 c 0.0143,-0.34734 0.085,-0.418 0.18015,-0.18014 0.0861,0.21524 0.0755,0.47241 -0.0236,0.57148 -0.0991,0.0991 -0.16954,-0.077 -0.1566,-0.39134 z m -0.29816,-2.08717 c 0.0143,-0.34735 0.085,-0.418 0.18014,-0.18014 0.0861,0.21523 0.0755,0.47241 -0.0236,0.57148 -0.0991,0.0991 -0.16956,-0.077 -0.15661,-0.39134 z m -21.76624,-0.29817 c 0.0143,-0.34735 0.085,-0.41801 0.18014,-0.18015 0.0861,0.21525 0.0755,0.47242 -0.0236,0.5715 -0.0991,0.0991 -0.16954,-0.077 -0.1566,-0.39135 z m 21.46807,-1.789 c 0.0143,-0.34735 0.085,-0.418 0.18014,-0.18015 0.0861,0.21525 0.0755,0.47241 -0.0236,0.57149 -0.0991,0.0991 -0.16955,-0.077 -0.1566,-0.39134 z m -15.6028,-5.09241 c 0.20499,-0.0827 0.54043,-0.0827 0.74542,0 0.20499,0.0827 0.0374,0.15039 -0.37271,0.15039 -0.40998,0 -0.5777,-0.0677 -0.37271,-0.15039 z m 10.45449,-0.006 c 0.21525,-0.0861 0.47241,-0.0755 0.5715,0.0236 0.099,0.0991 -0.0771,0.16955 -0.39134,0.15661 -0.34735,-0.0143 -0.41801,-0.085 -0.18016,-0.18015 z m -7.16931,-0.3106 c 0.53591,-0.0663 1.34097,-0.065 1.789,0.003 0.44805,0.068 0.009,0.12232 -0.97438,0.12065 -0.98395,-0.002 -1.35053,-0.0573 -0.81462,-0.1237 z m 4.9201,0.009 c 0.29011,-0.0756 0.69264,-0.0707 0.89451,0.0111 0.20187,0.0817 -0.0355,0.14353 -0.52748,0.13745 -0.49197,-0.006 -0.65714,-0.0729 -0.36703,-0.1485 z"
     id="path7587"
     sodipodi:nodetypes="csscscccssssccssssssssssssssssssssssssssssssscssssssssssssssscscccssssscccccssssssssssssscscccsssssssssssssscssccsssssscssscsssssssssssssssssscsssccssssccssscsscscccssssscsssssssccsssssscssssssscscccssssscsssssssssssssssssssssssssssssssssssssssssss" />
  <path
     style="fill:#952d56;stroke-width:0.298167"
     d="m 273.14385,300.80353 c 1.18894,-0.0566 3.13449,-0.0566 4.32343,0 1.18894,0.0565 0.21617,0.10289 -2.16171,0.10289 -2.37789,0 -3.35067,-0.0463 -2.16172,-0.10289 z m -6.10676,-0.28334 c 0.29011,-0.0756 0.69263,-0.0707 0.8945,0.0113 0.20187,0.0817 -0.0355,0.14353 -0.52747,0.13745 -0.49197,-0.006 -0.65715,-0.0729 -0.36703,-0.1485 z m 15.50471,0 c 0.29011,-0.0756 0.69264,-0.0707 0.89451,0.0113 0.20187,0.0817 -0.0355,0.14353 -0.52747,0.13745 -0.49198,-0.006 -0.65715,-0.0729 -0.36704,-0.1485 z m -18.32434,-0.29523 c 0.21523,-0.0861 0.4724,-0.0755 0.57149,0.0236 0.0991,0.0991 -0.077,0.16955 -0.39135,0.1566 -0.34735,-0.0143 -0.418,-0.085 -0.18014,-0.18014 z m -2.5254,-2.92698 c 0.002,-1.31195 0.0535,-1.81156 0.1165,-1.11026 0.063,0.7013 0.0621,1.77471 -0.002,2.38535 -0.064,0.61063 -0.11561,0.0369 -0.11452,-1.27509 z m 19.52096,0.54173 c 0.21523,-0.0861 0.47241,-0.0755 0.57149,0.0236 0.099,0.0991 -0.0771,0.16955 -0.39135,0.1566 -0.34736,-0.0143 -0.41801,-0.085 -0.18014,-0.18014 z m 4.60361,-5.01402 c 0.003,-0.65598 0.0644,-0.88922 0.13568,-0.51832 0.0714,0.3709 0.0687,0.9076 -0.006,1.19268 -0.0746,0.28507 -0.13299,-0.0183 -0.12968,-0.67436 z m -4.226,-2.11201 c 0.0143,-0.34735 0.085,-0.418 0.18014,-0.18016 0.0861,0.21525 0.0755,0.47241 -0.0236,0.5715 -0.099,0.099 -0.16955,-0.077 -0.1566,-0.39134 z m 6.02916,-2.80775 c 0,-0.90196 0.0559,-1.27094 0.12421,-0.81997 0.0683,0.45098 0.0683,1.18894 0,1.63993 -0.0683,0.45098 -0.12421,0.082 -0.12421,-0.81996 z m -5.6319,-5.06885 c 0,-2.86987 0.0448,-4.04391 0.0994,-2.60897 0.0546,1.43493 0.0546,3.783 0,5.21794 -0.0546,1.43493 -0.0994,0.26089 -0.0994,-2.60897 z m 3.84594,3.42892 c 0.002,-0.98395 0.0573,-1.35053 0.1237,-0.81462 0.0663,0.53592 0.065,1.34097 -0.003,1.78901 -0.0681,0.44804 -0.12232,0.009 -0.12066,-0.97439 z m -23.8646,-1.34175 c 0,-0.73797 0.0581,-1.03986 0.12922,-0.67087 0.071,0.36898 0.071,0.97277 0,1.34174 -0.071,0.36898 -0.12922,0.0671 -0.12922,-0.67087 z m 23.53217,-4.91977 c 0.006,-0.49197 0.0729,-0.65714 0.1485,-0.36704 0.0756,0.29012 0.0707,0.69265 -0.0113,0.89451 -0.0817,0.20187 -0.14352,-0.0355 -0.13745,-0.52747 z m 1.78899,-0.59633 c 0.006,-0.49198 0.0729,-0.65715 0.14851,-0.36704 0.0757,0.29011 0.0706,0.69263 -0.0113,0.8945 -0.0817,0.20187 -0.14353,-0.0354 -0.13746,-0.52746 z m -25.03502,-2.23626 c 0,-0.57397 0.0614,-0.80878 0.13635,-0.52179 0.075,0.28699 0.075,0.7566 0,1.04358 -0.075,0.28699 -0.13635,0.0522 -0.13635,-0.52179 z m 22.94785,-1.04359 c 0.006,-0.49197 0.0729,-0.65713 0.1485,-0.36702 0.0756,0.2901 0.0707,0.69263 -0.0113,0.89449 -0.0817,0.20187 -0.14351,-0.0355 -0.13743,-0.52747 z m 1.77795,-2.23625 c 0,-0.40998 0.0677,-0.5777 0.15041,-0.37271 0.0827,0.20499 0.0827,0.54042 0,0.74541 -0.0827,0.20499 -0.15041,0.0373 -0.15041,-0.3727 z m -2.08716,-0.89451 c 0,-0.40997 0.0677,-0.57769 0.15039,-0.3727 0.0827,0.20498 0.0827,0.54042 0,0.74541 -0.0827,0.205 -0.15039,0.0373 -0.15039,-0.37271 z m -3.25173,-0.74542 c 0.003,-0.65596 0.0643,-0.8892 0.13569,-0.51831 0.0714,0.37089 0.0686,0.90759 -0.006,1.19267 -0.0746,0.28507 -0.13298,-0.0183 -0.12968,-0.67436 z m -19.09979,-0.8945 c 0.006,-0.49198 0.0729,-0.65714 0.14849,-0.36703 0.0756,0.2901 0.0706,0.69263 -0.0111,0.8945 -0.0817,0.20188 -0.14352,-0.0355 -0.13743,-0.52747 z m 22.02981,-1.21751 c 0.0143,-0.34735 0.085,-0.418 0.18014,-0.18015 0.0861,0.21524 0.0755,0.47241 -0.0236,0.57149 -0.0991,0.0991 -0.16956,-0.077 -0.15661,-0.39134 z m 2.11072,-0.72058 c 0,-0.40998 0.0677,-0.5777 0.15038,-0.37271 0.0827,0.205 0.0827,0.54043 0,0.74542 -0.0827,0.20499 -0.15038,0.0373 -0.15038,-0.37271 z m -5.34493,-2.08717 c 0,-0.57398 0.0613,-0.80878 0.13636,-0.5218 0.075,0.28699 0.075,0.75661 0,1.04359 -0.075,0.28698 -0.13636,0.0522 -0.13636,-0.52179 z m 2.93605,0.4224 c 0.0143,-0.34734 0.085,-0.418 0.18014,-0.18014 0.0861,0.21524 0.0755,0.47242 -0.0236,0.57149 -0.0991,0.0991 -0.16955,-0.077 -0.1566,-0.39135 z m -21.46807,-0.8945 c 0.0143,-0.34734 0.085,-0.418 0.18014,-0.18015 0.0861,0.21525 0.0755,0.47242 -0.0236,0.5715 -0.0991,0.0991 -0.16955,-0.077 -0.1566,-0.39135 z m 23.55524,-0.89451 c 0.0143,-0.34734 0.085,-0.418 0.18014,-0.18014 0.0861,0.21524 0.0755,0.47241 -0.0236,0.57149 -0.0991,0.0991 -0.16957,-0.077 -0.15662,-0.39135 z m -23.25707,-2.6835 c 0.0143,-0.34734 0.0849,-0.418 0.18013,-0.18014 0.0861,0.21524 0.0756,0.47241 -0.0235,0.57148 -0.0991,0.0991 -0.16955,-0.077 -0.15661,-0.39134 z m 17.91359,-0.12424 c 0,-0.40998 0.0677,-0.57769 0.15039,-0.37271 0.0827,0.20499 0.0827,0.54043 0,0.74542 -0.0827,0.205 -0.15039,0.0373 -0.15039,-0.37271 z m -17.61543,-2.85744 c 0.0143,-0.34735 0.085,-0.41799 0.18014,-0.18014 0.0861,0.21524 0.0755,0.47241 -0.0236,0.57149 -0.0991,0.0991 -0.16955,-0.077 -0.15661,-0.39135 z m 22.36257,0 c 0.0143,-0.34735 0.085,-0.41799 0.18015,-0.18014 0.0861,0.21524 0.0755,0.47241 -0.0236,0.57149 -0.0991,0.0991 -0.16954,-0.077 -0.1566,-0.39135 z M 280.71965,259.58 c 0,-0.40998 0.0677,-0.57769 0.1504,-0.37271 0.0827,0.20499 0.0827,0.54043 0,0.74542 -0.0827,0.20499 -0.1504,0.0373 -0.1504,-0.37271 z m -9.96115,-9.4407 c 0.20499,-0.0827 0.54044,-0.0827 0.74543,0 0.20499,0.0827 0.0373,0.1504 -0.37271,0.1504 -0.40998,0 -0.57771,-0.0677 -0.37272,-0.1504 z m 8.36733,-0.006 c 0.21525,-0.0861 0.47241,-0.0756 0.5715,0.0236 0.099,0.0991 -0.0769,0.16955 -0.39134,0.1566 -0.34736,-0.0143 -0.41801,-0.085 -0.18016,-0.18014 z m -3.295,-0.30535 c 0.3709,-0.0714 0.9076,-0.0686 1.19268,0.006 0.28507,0.0746 -0.0183,0.13298 -0.67436,0.12968 -0.65597,-0.003 -0.88921,-0.0644 -0.51832,-0.1357 z"
     id="path7583"
     sodipodi:nodetypes="ssssccccccccccssssscscccssssscscccssssssssssssscscccsssscsccccscccsssscccccscssscsscscccssssssssssscssssssssssssssssssssssssssscsssssssssssscsssssssssssccccc" />
  <path
     style="fill:#3f3d56;fill-opacity:1;stroke-width:0.298167"
     d="m 265.61512,300.3869 c -1.47593,-0.14296 -2.95186,-0.32014 -3.27985,-0.39376 -0.58593,-0.13151 -0.59281,-0.29416 -0.39472,-9.31583 0.44412,-20.22653 1.68319,-35.17949 3.16984,-38.25333 0.40885,-0.84536 0.81622,-1.15101 2.14464,-1.60914 1.37738,-0.47502 2.57079,-0.57007 7.4542,-0.59373 9.07854,-0.044 9.74433,0.32153 10.53354,5.78278 1.44273,9.98353 2.10505,19.35613 2.4691,34.94127 l 0.20681,8.8535 -0.71592,0.16673 c -3.17995,0.74059 -15.75763,0.98618 -21.58764,0.42151 z m 18.40187,-3.27514 c 0.6095,-0.30851 1.26723,-0.85813 1.46164,-1.22138 0.89165,-1.66606 0.57037,-13.91818 -0.64956,-24.7711 -1.13237,-10.07401 -2.38102,-14.84029 -3.75017,-14.3149 -0.42074,0.16145 -0.45966,0.53542 -0.28607,2.74846 1.0742,13.69453 1.4045,27.61358 0.76092,32.06667 -0.17376,1.20228 -0.6098,2.60281 -1.03769,3.33293 -0.9235,1.57584 -0.94408,2.4302 -0.0671,2.78706 0.82677,0.33643 2.10884,0.1109 3.56803,-0.62774 z"
     id="path7581"
     sodipodi:nodetypes="sssssssscsscssssssscc" />
  <path
     style="fill:#99ffff;fill-opacity:1;stroke-width:0.488255"
     d="m 106.21143,310.32993 c 0.35244,-0.14099 0.77356,-0.12364 0.93581,0.0386 0.1622,0.1622 -0.12625,0.27764 -0.64083,0.25644 -0.5688,-0.0235 -0.68449,-0.13914 -0.29498,-0.29499 z m 15.75426,-9.22824 c 0.0235,-0.56879 0.13915,-0.68448 0.295,-0.29499 0.14098,0.35246 0.12364,0.77358 -0.0386,0.93582 -0.16221,0.16221 -0.27767,-0.12624 -0.25646,-0.64083 z m -15.41859,-1.95322 c -10.917917,-0.8888 -12.299501,-1.25056 -14.696102,-3.84798 -2.197398,-2.38151 -3.530455,-5.55279 -5.035587,-11.97938 -2.149286,-9.17701 -3.694418,-27.10231 -3.387997,-39.30489 0.154312,-6.14483 0.290092,-7.04207 1.344233,-8.88211 2.005851,-3.50131 7.485438,-5.20216 15.916373,-4.94037 9.6584,0.29988 28.85459,0.0167 31.13542,-0.46013 1.31388,-0.27439 2.44326,-0.30024 2.59216,-0.0595 0.14504,0.23481 0.8551,0.42907 1.57775,0.43169 3.38903,0.013 8.84749,4.05509 9.72924,7.20596 0.57202,2.044 0.35413,23.02571 -0.31044,29.89673 -0.72461,7.49161 -2.32482,18.41017 -3.19799,21.82039 -0.35686,1.39387 -1.12693,3.20566 -1.71123,4.02624 -1.80115,2.52946 -6.51728,4.87619 -11.95936,5.9509 -3.75566,0.74168 -13.83297,0.80685 -21.99647,0.14227 z m -1.32929,-5.84578 c 0.83554,-0.58525 1.08516,-1.24346 1.08516,-2.8614 0,-2.29217 -1.1575,-4.36787 -4.4199,-7.92609 -4.183687,-4.56305 -5.033907,-9.22937 -2.547197,-13.98007 1.125177,-2.14956 1.334687,-3.15675 1.342317,-6.45316 0.0104,-4.49727 -1.221727,-7.73096 -4.738147,-12.43495 -2.487168,-3.32712 -8.571014,-9.29243 -9.47709,-9.29243 -0.951841,0 -0.869233,4.78569 0.325188,18.84241 1.393779,16.40275 2.848569,24.98389 4.937537,29.12442 0.656844,1.30195 1.655662,2.20135 3.477195,3.13106 5.015437,2.5599 8.169727,3.14264 10.014937,1.85021 z m 33.17639,-1.02297 c -0.12416,-0.64917 -0.0938,-1.04842 0.0676,-0.88719 0.59186,0.59183 4.33021,-33.81502 4.77616,-43.95823 0.28931,-6.58018 -0.11999,-9.03275 -1.50704,-9.03275 -1.5454,0 -1.88843,2.19154 -2.51965,16.09768 -0.34779,7.66156 -0.8687,18.32438 -1.15759,23.69519 -0.79782,14.83124 -0.79518,16.10705 0.0321,15.59578 0.29382,-0.18159 0.43271,-0.86131 0.30861,-1.51048 z m -49.93266,2.72707 c -0.177006,-0.2864 -0.21711,-0.62547 -0.08908,-0.75345 0.127942,-0.12807 0.362801,0.10629 0.521821,0.52074 0.330144,0.86035 0.04878,1.01169 -0.432692,0.23271 z m 59.4895,-39.02801 c 0,-1.47698 0.0916,-2.08118 0.20342,-1.34271 0.11177,0.73849 0.11177,1.94692 0,2.68542 -0.11177,0.73848 -0.20342,0.13434 -0.20342,-1.34271 z m -0.0511,-5.12669 c 0.009,-0.80562 0.11933,-1.07609 0.24315,-0.60103 0.12377,0.47506 0.11568,1.1342 -0.0185,1.46476 -0.1338,0.33056 -0.23505,-0.0582 -0.22508,-0.86373 z m -66.459486,-4.435 c 0.02348,-0.5688 0.139132,-0.68448 0.294996,-0.29498 0.141036,0.35245 0.123638,0.77357 -0.03847,0.93583 -0.162255,0.16221 -0.27765,-0.12624 -0.256457,-0.64085 z m 65.123566,-12.44232 c -0.17696,-0.28641 -0.21711,-0.62546 -0.0891,-0.75346 0.12807,-0.12807 0.3628,0.10629 0.52182,0.52075 0.33016,0.86038 0.0488,1.01169 -0.43269,0.23271 z m -56.61007,-4.37463 c 0.122203,-0.1977 0.76804,-0.46379 1.435227,-0.59134 0.667186,-0.12755 1.113117,-0.0702 0.99094,0.12755 -0.122203,0.19769 -0.768027,0.46378 -1.435214,0.59133 -0.6672,0.12755 -1.113117,0.0702 -0.990953,-0.12755 z m 46.20972,-11.21699 c 0,-0.67133 0.11085,-0.94598 0.24628,-0.61031 0.13545,0.33567 0.13545,0.88496 0,1.22064 -0.13545,0.33568 -0.24628,0.061 -0.24628,-0.61033 z"
     id="path7589-2"
     sodipodi:nodetypes="sssssssssscssssscccsssssccsssscssssssccsssssccsssssssscscccssssssssssssssscss" />
  <path
     style="fill:#e4e4e4;fill-opacity:1;stroke-width:0.488255"
     d="m 103.93634,310.18678 c -2.96201,-0.3369 -3.84128,-0.65006 -5.044607,-1.79666 -1.86666,-1.77863 -2.80182,-4.03322 -3.18212,-7.6717 l -0.30337,-2.90261 1.9085,0.35464 c 2.975287,0.55281 16.367297,1.53954 20.664447,1.52253 l 3.87146,-0.0147 0.30407,2.19717 c 0.1672,1.20842 0.5407,2.80135 0.82989,3.53984 0.49771,1.271 0.69341,1.34271 3.66446,1.34271 3.21462,0 5.67965,0.85079 6.17041,2.12967 0.19369,0.50476 -0.23403,0.78305 -1.52767,0.99401 -3.09415,0.5045 -23.59359,0.73364 -27.35547,0.30574 z m 33.17579,-2.79685 c 0.35551,-0.592 0.75149,-0.97128 0.87994,-0.84282 0.12846,0.12846 -0.16239,0.61282 -0.6464,1.07637 -0.84076,0.80528 -0.85116,0.79488 -0.23354,-0.23355 z M 93.155493,306.4474 c -0.556579,-0.70757 -1.005274,-1.5315 -0.997109,-1.83097 0.0078,-0.29947 0.258647,-0.10498 0.556604,0.43204 0.297969,0.53708 0.874632,1.36103 1.281475,1.83098 0.406831,0.46994 0.61173,0.85444 0.455347,0.85444 -0.156399,0 -0.739752,-0.57893 -1.296317,-1.28649 z m 42.442847,0.55867 c 0,-0.16349 0.31146,-0.89953 0.69217,-1.63571 0.3807,-0.73619 0.97246,-2.69549 1.31501,-4.35404 0.35092,-1.69892 0.9293,-3.1331 1.32472,-3.28486 0.9875,-0.37892 0.42845,2.85261 -1.08579,6.27663 -1.00164,2.26487 -2.24611,3.92594 -2.24611,2.99798 z m 7.85065,-17.13416 c 0.0235,-0.5688 0.13913,-0.68448 0.29498,-0.29501 0.14098,0.35248 0.12364,0.77359 -0.0386,0.93584 -0.16222,0.1622 -0.27765,-0.12624 -0.25645,-0.64083 z m -57.125977,-1.95304 c 0.02347,-0.56877 0.139131,-0.68448 0.294982,-0.29498 0.141049,0.35247 0.123768,0.77358 -0.03847,0.93582 -0.162255,0.16222 -0.277637,-0.12625 -0.256444,-0.64084 z M 145.89024,278.642 c 0.0235,-0.56881 0.13915,-0.68449 0.29501,-0.29499 0.14099,0.35244 0.12364,0.77359 -0.0386,0.93583 -0.16222,0.16221 -0.27764,-0.12611 -0.25644,-0.64084 z m 0.52681,-3.13297 c 0,-0.67138 0.11085,-0.946 0.24628,-0.61033 0.13546,0.33568 0.13546,0.88495 0,1.22065 -0.13545,0.33567 -0.24628,0.0612 -0.24628,-0.61032 z m -63.473284,-2.92955 c 0,-0.67136 0.110857,-0.94598 0.246271,-0.61031 0.135454,0.33567 0.135454,0.88495 0,1.22063 -0.135453,0.33569 -0.246271,0.0612 -0.246271,-0.61032 z m 63.922994,-0.28481 c 0.0235,-0.5688 0.13914,-0.68448 0.295,-0.295 0.14098,0.35246 0.12363,0.77359 -0.0386,0.93583 -0.16221,0.1622 -0.27766,-0.12625 -0.25646,-0.64083 z m -64.411258,-3.13299 c 0,-0.67135 0.110856,-0.94598 0.246271,-0.61032 0.135454,0.33567 0.135454,0.88497 0,1.22065 -0.135441,0.33567 -0.246271,0.0612 -0.246271,-0.61033 z m 64.956168,-1.70888 c 0.009,-0.80563 0.11933,-1.0761 0.24316,-0.60103 0.1239,0.47505 0.11568,1.13421 -0.0185,1.46477 -0.13378,0.33056 -0.23503,-0.0582 -0.22507,-0.86374 z m -65.42633,-2.44122 c 0.01043,-0.80562 0.119334,-1.07608 0.24318,-0.60101 0.123768,0.47505 0.115682,1.1342 -0.01813,1.46475 -0.133759,0.33057 -0.235042,-0.0582 -0.225091,-0.86374 z m 65.9707,-3.90604 c 0.004,-1.61125 0.0939,-2.21153 0.20255,-1.33397 0.10864,0.87757 0.10642,2.19587 -0.005,2.92954 -0.1115,0.73368 -0.20031,0.0166 -0.19756,-1.59557 z M 81.541548,259.1525 c 0.0039,-1.34268 0.09847,-1.83401 0.210719,-1.09185 0.112291,0.74218 0.109292,1.84075 -0.0065,2.4413 -0.115943,0.60051 -0.207706,-0.008 -0.204054,-1.34945 z m 66.419462,-12.45059 c 0,-1.74552 0.0885,-2.45959 0.19693,-1.58684 0.10838,0.87277 0.10838,2.30091 0,3.17368 -0.10825,0.87276 -0.19693,0.1587 -0.19693,-1.58684 z m -66.445832,-2.44128 c 0,-0.9399 0.100553,-1.3244 0.223304,-0.85444 0.122855,0.46994 0.122855,1.23894 0,1.70888 -0.122855,0.46996 -0.223304,0.0854 -0.223304,-0.85444 z m 65.896492,-5.12669 c 0.009,-0.80562 0.11933,-1.07609 0.24316,-0.60103 0.1239,0.47505 0.11568,1.1342 -0.0185,1.46476 -0.13378,0.33056 -0.23503,-0.0582 -0.22507,-0.86373 z m -65.444419,-0.73239 c 0,-0.67135 0.110856,-0.94599 0.246271,-0.61033 0.135453,0.33569 0.135453,0.88498 0,1.22065 -0.135441,0.33569 -0.246271,0.0612 -0.246271,-0.61032 z m 64.899509,-3.21436 c 0.0235,-0.56877 0.13914,-0.68448 0.295,-0.29497 0.14098,0.35245 0.12363,0.77358 -0.0386,0.93583 -0.16221,0.1622 -0.27766,-0.12599 -0.25646,-0.64086 z m -63.511833,-1.91233 c 0.630708,-0.67133 1.256591,-1.22063 1.390858,-1.22063 0.13428,0 -0.271899,0.5493 -0.902594,1.22063 -0.630708,0.67136 -1.256605,1.22065 -1.390858,1.22065 -0.13428,0 0.271885,-0.54929 0.902594,-1.22065 z m 61.588233,-1.23613 c -0.63396,-0.52814 -0.94265,-0.96027 -0.68598,-0.96027 0.25667,0 0.86433,0.43943 1.35039,0.97651 1.11659,1.2338 0.82763,1.22673 -0.66441,-0.0166 z m -56.705668,-1.93678 c 0.402814,-0.26033 0.952101,-0.4733 1.220635,-0.4733 0.268547,0 0.158694,0.21297 -0.244132,0.4733 -0.402801,0.26031 -0.952088,0.47328 -1.220635,0.47328 -0.268534,0 -0.158681,-0.21297 0.244132,-0.47328 z m 18.187538,0.15168 c 0.46994,-0.12272 1.23894,-0.12272 1.70889,0 0.46994,0.12286 0.0854,0.22331 -0.85445,0.22331 -0.93988,0 -1.32439,-0.10056 -0.85444,-0.22331 z m 16.60069,0 c 0.46996,-0.12272 1.23896,-0.12272 1.70892,0 0.46994,0.12286 0.0854,0.22331 -0.85445,0.22331 -0.93991,0 -1.32441,-0.10056 -0.85447,-0.22331 z m -22.67337,-0.48532 c 0.35246,-0.14098 0.77358,-0.12363 0.93582,0.0386 0.16224,0.1622 -0.12611,0.27765 -0.64084,0.25646 -0.56879,-0.0235 -0.684477,-0.13915 -0.29498,-0.29499 z m 29.29536,0 c 0.35245,-0.14098 0.7736,-0.12363 0.93584,0.0386 0.1622,0.1622 -0.12624,0.27765 -0.64085,0.25646 -0.5688,-0.0235 -0.68448,-0.13915 -0.29499,-0.29499 z m -33.689657,-0.48816 c 0.35244,-0.14099 0.77357,-0.12363 0.93582,0.0386 0.16224,0.1622 -0.12611,0.27765 -0.64084,0.25644 -0.56879,-0.0235 -0.68449,-0.13914 -0.29498,-0.29498 z m 40.309167,-5.03813 c 0,-2.81966 0.0806,-3.97319 0.17936,-2.56335 0.0986,1.40986 0.0986,3.71685 0,5.1267 -0.0985,1.40983 -0.17936,0.25632 -0.17936,-2.56335 z m -13.19509,0.22305 c -0.20794,-0.54191 0.16406,-1.81492 0.98037,-3.35556 0.72347,-1.36535 1.53677,-3.69088 1.80734,-5.16785 1.32325,-7.22359 1.00667,-26.94433 -0.77488,-48.2687 -0.38946,-4.66171 -0.58718,-8.67152 -0.43938,-8.91067 0.57965,-0.93791 1.56527,-0.34996 2.34035,1.39612 2.76672,6.23272 5.67767,31.22048 5.80987,49.87215 0.0373,5.26517 -0.0915,10.23217 -0.28612,11.03779 -0.50637,2.09522 -3.19128,3.77963 -6.4562,4.05041 -2.21505,0.1836 -2.70088,0.0771 -2.98135,-0.65369 z m -29.77375,-8.27946 c 0.0013,-2.68541 0.08321,-3.72169 0.182196,-2.30286 0.09899,1.41884 0.09794,3.61601 -0.0026,4.88257 -0.100032,1.26657 -0.181023,0.10577 -0.179757,-2.57971 z m 42.46018,-12.69466 c 0.003,-1.87978 0.0904,-2.58896 0.1961,-1.57593 0.10577,1.01301 0.10394,2.55102 -0.004,3.41777 -0.10798,0.86678 -0.19434,0.0381 -0.19217,-1.84184 z m -41.993969,-4.14987 c 0,-1.74552 0.08855,-2.4596 0.19692,-1.58684 0.108248,0.87275 0.108248,2.30091 0,3.17366 -0.108248,0.87276 -0.19692,0.15871 -0.19692,-1.58682 z m 41.478459,-7.32384 c 0,-1.20844 0.0952,-1.70281 0.21162,-1.0986 0.11646,0.60422 0.11646,1.59296 0,2.19716 -0.11647,0.60422 -0.21162,0.10982 -0.21162,-1.09856 z m -41.013501,-3.90606 c 0,-1.20844 0.09521,-1.7028 0.211592,-1.09858 0.116332,0.60422 0.116332,1.59295 0,2.19715 -0.116334,0.60421 -0.211592,0.10982 -0.211592,-1.09857 z m 40.505541,-4.3943 c 0,-0.9399 0.10055,-1.3244 0.22329,-0.85446 0.12286,0.46995 0.12286,1.23896 0,1.7089 -0.12272,0.46995 -0.22329,0.0854 -0.22329,-0.85444 z m -40.036997,-4.3943 c 0,-0.9399 0.10055,-1.3244 0.22329,-0.85446 0.12286,0.46995 0.12286,1.23895 0,1.7089 -0.12285,0.46994 -0.22329,0.0854 -0.22329,-0.85444 z m 39.512567,-2.44129 c 0,-0.67136 0.11086,-0.94599 0.24626,-0.61032 0.13545,0.33567 0.13545,0.88497 0,1.22063 -0.13546,0.33569 -0.24626,0.061 -0.24626,-0.61031 z m -39.042407,-4.15018 c 0.0104,-0.80561 0.11934,-1.07608 0.24318,-0.60102 0.12377,0.47505 0.11569,1.1342 -0.0181,1.46476 -0.13371,0.33056 -0.235,-0.0582 -0.22505,-0.86374 z m 38.572227,-1.46477 c 0.009,-0.80561 0.11934,-1.07607 0.2432,-0.60102 0.12377,0.47505 0.11568,1.13421 -0.0185,1.46477 -0.1338,0.33056 -0.235,-0.0582 -0.22505,-0.86375 z m -38.102047,-4.15016 c 0,-0.67136 0.11085,-0.94602 0.24627,-0.61033 0.13544,0.33568 0.13544,0.88496 0,1.22064 -0.13545,0.33567 -0.24627,0.061 -0.24627,-0.61031 z m 37.595697,-0.48827 c 0,-0.67135 0.11086,-0.946 0.24629,-0.61031 0.13545,0.33566 0.13545,0.88495 0,1.22064 -0.13545,0.33567 -0.24629,0.061 -0.24629,-0.61033 z m -37.107447,-4.3943 c 0,-0.67136 0.11086,-0.946 0.24627,-0.61032 0.13544,0.33568 0.13544,0.88497 0,1.22063 -0.13545,0.33569 -0.24627,0.061 -0.24627,-0.61031 z m 36.580657,0.20344 c 0.0235,-0.56878 0.13915,-0.68449 0.295,-0.29498 0.14099,0.35246 0.12363,0.77357 -0.0386,0.93581 -0.1622,0.16226 -0.27762,-0.12612 -0.25643,-0.64083 z m -0.48825,-3.4178 c 0.0235,-0.56878 0.13913,-0.68448 0.29498,-0.29498 0.14099,0.35246 0.12364,0.77358 -0.0386,0.93583 -0.1622,0.16224 -0.27766,-0.12612 -0.25646,-0.64085 z M 96.576393,158.531 c 0.0235,-0.5688 0.13912,-0.68449 0.29498,-0.29499 0.14104,0.35247 0.12364,0.77359 -0.0386,0.93583 -0.16225,0.16225 -0.27764,-0.12611 -0.25644,-0.64084 z m 35.154447,-2.92953 c 0.0235,-0.56879 0.13913,-0.68448 0.29498,-0.295 0.14098,0.35247 0.12364,0.77358 -0.0386,0.93583 -0.16221,0.16224 -0.27764,-0.12612 -0.25643,-0.64083 z m -25.54994,-8.33893 c 0.33567,-0.13544 0.88497,-0.13544 1.22064,0 0.33568,0.13545 0.0612,0.24627 -0.61032,0.24627 -0.67135,0 -0.946,-0.11086 -0.61032,-0.24627 z m 17.11947,-0.0104 c 0.35247,-0.14104 0.77358,-0.12364 0.93584,0.0386 0.1622,0.16225 -0.12625,0.27764 -0.64083,0.25644 -0.5688,-0.0235 -0.6845,-0.13913 -0.29501,-0.29499 z m -11.73992,-0.50861 c 0.87757,-0.10864 2.19587,-0.10643 2.92954,0.005 0.73368,0.11138 0.0147,0.20031 -1.59557,0.19757 -1.61124,-0.003 -2.21152,-0.0939 -1.33397,-0.20255 z m 8.05678,0.0155 c 0.47505,-0.12377 1.13421,-0.11569 1.46478,0.0181 0.33056,0.13375 -0.0582,0.23505 -0.86375,0.22508 -0.80562,-0.0104 -1.07609,-0.11933 -0.60103,-0.24317 z"
     id="path7587-9"
     sodipodi:nodetypes="csscscccssssccssssssssssssssssssssssssssssssscssssssssssssssscscccssssscccccssssssssssssscscccsssssssssssssscssccsssssscssscsssssssssssssssssscsssccssssccssscsscscccssssscsssssssccsssssscssssssscscccssssscsssssssssssssssssssssssssssssssssssssssssss" />
  <path
     style="fill:#952d56;stroke-width:0.488255"
     d="m 112.03998,230.22631 c 1.94691,-0.0926 5.13279,-0.0926 7.0797,0 1.94692,0.0926 0.35399,0.16849 -3.53984,0.16849 -3.89385,0 -5.4868,-0.0758 -3.53986,-0.16849 z m -9.99997,-0.46398 c 0.47507,-0.12377 1.13421,-0.11568 1.46477,0.0185 0.33058,0.13379 -0.0582,0.23503 -0.86374,0.22508 -0.80562,-0.009 -1.07609,-0.11934 -0.60103,-0.24317 z m 25.38932,0 c 0.47505,-0.12377 1.13421,-0.11568 1.46478,0.0185 0.33056,0.13379 -0.0582,0.23503 -0.86375,0.22508 -0.80563,-0.009 -1.0761,-0.11934 -0.60103,-0.24317 z m -30.006517,-0.48344 c 0.35245,-0.14098 0.77357,-0.12364 0.93583,0.0386 0.16224,0.16222 -0.12612,0.27765 -0.64084,0.25645 -0.5688,-0.0235 -0.68448,-0.13915 -0.29499,-0.295 z m -4.135388,-4.79301 c 0.0026,-2.14833 0.08764,-2.96647 0.190764,-1.81807 0.103162,1.14839 0.101728,2.90612 -0.0026,3.90606 -0.104857,0.99993 -0.189304,0.0604 -0.18753,-2.08799 z m 31.965985,0.8871 c 0.35245,-0.14098 0.77359,-0.12363 0.93583,0.0386 0.1622,0.16221 -0.12625,0.27763 -0.64084,0.25643 -0.5688,-0.0235 -0.6845,-0.13913 -0.29499,-0.29499 z m 7.53852,-8.21057 c 0.005,-1.07417 0.10538,-1.4561 0.22218,-0.84875 0.11686,0.60735 0.11243,1.48622 -0.009,1.95303 -0.1222,0.46681 -0.21776,-0.03 -0.21234,-1.10428 z m -6.92017,-3.45846 c 0.0235,-0.5688 0.13914,-0.68448 0.29498,-0.29501 0.14098,0.35247 0.12364,0.77358 -0.0386,0.93584 -0.16221,0.1622 -0.27764,-0.12612 -0.25643,-0.64083 z m 9.87288,-4.59776 c 0,-1.47697 0.0916,-2.08118 0.2034,-1.3427 0.11177,0.73848 0.11177,1.94691 0,2.68541 -0.11177,0.73849 -0.2034,0.13435 -0.2034,-1.34271 z m -9.22236,-8.30035 c 0,-4.69947 0.0733,-6.62198 0.16276,-4.27224 0.0895,2.34973 0.0895,6.19474 0,8.54448 -0.0895,2.34973 -0.16276,0.42722 -0.16276,-4.27224 z m 6.29781,5.61494 c 0.004,-1.61124 0.0939,-2.21152 0.20257,-1.33396 0.10864,0.87758 0.10642,2.19586 -0.005,2.92955 -0.11151,0.73367 -0.20031,0.0147 -0.19759,-1.59559 z m -39.078805,-2.19715 c 0,-1.20844 0.09521,-1.7028 0.211605,-1.09856 0.116334,0.6042 0.116334,1.59293 0,2.19713 -0.116334,0.60421 -0.211605,0.10982 -0.211605,-1.09857 z m 38.534445,-8.05623 c 0.009,-0.80562 0.11933,-1.07608 0.24318,-0.60103 0.12377,0.47507 0.11568,1.13422 -0.0185,1.46477 -0.1338,0.33057 -0.23503,-0.0582 -0.22508,-0.86374 z m 2.92952,-0.97651 c 0.009,-0.80562 0.11934,-1.07609 0.24318,-0.60103 0.1239,0.47506 0.11568,1.1342 -0.0185,1.46476 -0.13379,0.33058 -0.23503,-0.058 -0.22509,-0.86373 z m -40.995407,-3.66193 c 0,-0.93988 0.100553,-1.32438 0.223291,-0.85444 0.122859,0.46995 0.122859,1.23896 0,1.7089 -0.122855,0.46994 -0.223291,0.0854 -0.223291,-0.85446 z m 37.577627,-1.70888 c 0.009,-0.80562 0.11933,-1.07608 0.24316,-0.60101 0.12377,0.47505 0.11569,1.13419 -0.0185,1.46475 -0.13378,0.33056 -0.235,-0.0582 -0.22505,-0.86374 z m 2.91143,-3.66192 c 0,-0.67135 0.11085,-0.946 0.24628,-0.61032 0.13546,0.33568 0.13546,0.88496 0,1.22063 -0.13544,0.33567 -0.24628,0.061 -0.24628,-0.61031 z m -3.41779,-1.46478 c 0,-0.67133 0.11086,-0.94598 0.24627,-0.61031 0.13546,0.33567 0.13546,0.88496 0,1.22063 -0.13545,0.33569 -0.24627,0.061 -0.24627,-0.61032 z m -5.32478,-1.22063 c 0.005,-1.07417 0.10538,-1.4561 0.2222,-0.84876 0.11686,0.60735 0.11242,1.48621 -0.009,1.95303 -0.1222,0.46681 -0.21776,-0.03 -0.21235,-1.10427 z m -31.276317,-1.46477 c 0.0104,-0.80563 0.11934,-1.07608 0.24316,-0.60103 0.12377,0.47506 0.11568,1.13421 -0.0181,1.46477 -0.13372,0.33057 -0.23502,-0.0582 -0.22505,-0.86374 z m 36.074297,-1.99371 c 0.0235,-0.56879 0.13914,-0.68448 0.29498,-0.295 0.141,0.35246 0.12364,0.77359 -0.0386,0.93583 -0.16222,0.16225 -0.27766,-0.12612 -0.25646,-0.64083 z m 3.45635,-1.17996 c 0,-0.67135 0.11086,-0.946 0.24626,-0.61032 0.13545,0.33568 0.13545,0.88497 0,1.22065 -0.13546,0.33567 -0.24626,0.061 -0.24626,-0.61033 z m -8.75244,-3.41778 c 0,-0.93991 0.10043,-1.3244 0.22329,-0.85446 0.12286,0.46994 0.12286,1.23896 0,1.7089 -0.12285,0.46994 -0.22329,0.0854 -0.22329,-0.85444 z m 4.80785,0.69169 c 0.0235,-0.56879 0.13915,-0.68449 0.29498,-0.29498 0.14099,0.35245 0.12364,0.77358 -0.0386,0.93582 -0.1622,0.16224 -0.27764,-0.12611 -0.25643,-0.64084 z m -35.154447,-1.46477 c 0.0235,-0.56878 0.13912,-0.68449 0.29499,-0.29499 0.14105,0.35247 0.12364,0.77359 -0.0386,0.93583 -0.16225,0.16225 -0.27763,-0.12611 -0.25644,-0.64084 z m 38.572237,-1.46478 c 0.0235,-0.56878 0.13914,-0.68448 0.29498,-0.29498 0.14098,0.35246 0.12364,0.77358 -0.0386,0.93582 -0.16222,0.16226 -0.27767,-0.12611 -0.25646,-0.64084 z m -38.083967,-4.3943 c 0.0235,-0.56877 0.1391,-0.68448 0.29497,-0.29498 0.14105,0.35247 0.12377,0.77358 -0.0385,0.93582 -0.16225,0.16224 -0.27764,-0.12611 -0.25645,-0.64084 z m 29.333897,-0.20344 c 0,-0.67135 0.11086,-0.94598 0.24626,-0.61031 0.13546,0.33567 0.13546,0.88496 0,1.22063 -0.13544,0.33569 -0.24626,0.061 -0.24626,-0.61032 z m -28.845657,-4.67911 c 0.0235,-0.5688 0.13913,-0.68448 0.29499,-0.295 0.14105,0.35246 0.12364,0.77359 -0.0386,0.93583 -0.16224,0.16224 -0.27764,-0.12612 -0.25644,-0.64083 z m 36.619207,0 c 0.0235,-0.5688 0.13915,-0.68448 0.295,-0.295 0.14099,0.35246 0.12363,0.77359 -0.0386,0.93583 -0.1622,0.16224 -0.27762,-0.12612 -0.25643,-0.64083 z m -8.26182,-1.17996 c 0,-0.67135 0.11085,-0.94598 0.24628,-0.61032 0.13545,0.33568 0.13545,0.88497 0,1.22065 -0.13544,0.33567 -0.24628,0.061 -0.24628,-0.61033 z m -16.3116,-15.45935 c 0.33567,-0.13544 0.88497,-0.13544 1.22064,0 0.33568,0.13546 0.0612,0.24627 -0.61032,0.24627 -0.67135,0 -0.946,-0.11085 -0.61032,-0.24627 z m 13.70168,-0.0104 c 0.35247,-0.14104 0.77358,-0.12377 0.93584,0.0386 0.1622,0.16226 -0.12599,0.27765 -0.64083,0.25645 -0.56881,-0.0235 -0.68449,-0.13912 -0.29501,-0.29499 z m -5.39563,-0.50002 c 0.60735,-0.11685 1.4862,-0.11229 1.95303,0.009 0.46681,0.12221 -0.03,0.21776 -1.10428,0.21235 -1.07416,-0.005 -1.45609,-0.10538 -0.84875,-0.22221 z"
     id="path7583-1"
     sodipodi:nodetypes="ssssccccccccccssssscscccssssscscccssssssssssssscscccsssscsccccscccsssscccccscssscsscscccssssssssssscssssssssssssssssssssssssssscsssssssssssscsssssssssssccccc" />
  <path
     style="fill:#3f3d56;fill-opacity:1;stroke-width:0.488255"
     d="m 99.711503,229.54406 c -2.41686,-0.23409 -4.83373,-0.52424 -5.370811,-0.64478 -0.959469,-0.21535 -0.970751,-0.48169 -0.646371,-15.25489 0.727258,-33.12138 2.756262,-57.60719 5.190682,-62.64066 0.66951,-1.3843 1.336587,-1.88481 3.511907,-2.63501 2.25548,-0.77785 4.20972,-0.93351 12.20641,-0.97224 14.86631,-0.0721 15.95655,0.5265 17.2489,9.46943 2.36251,16.34824 3.44706,31.69609 4.04321,57.21709 l 0.33866,14.49781 -1.17234,0.27302 c -5.20724,1.21274 -25.80346,1.61489 -35.350247,0.69023 z m 30.133487,-5.36311 c 0.99806,-0.50519 2.07511,-1.40521 2.39345,-2.00004 1.4601,-2.7282 0.934,-22.79133 -1.06366,-40.56323 -1.85429,-16.4964 -3.89898,-24.3013 -6.14099,-23.44096 -0.68897,0.26438 -0.75271,0.87677 -0.46844,4.50067 1.75903,22.42509 2.29989,45.21785 1.24602,52.50987 -0.28453,1.96878 -0.99857,4.26216 -1.69925,5.45776 -1.51223,2.58046 -1.54594,3.9795 -0.10981,4.56387 1.35386,0.5509 3.45329,0.1816 5.84274,-1.02794 z"
     id="path7581-2"
     sodipodi:nodetypes="sssssssscsscssssssscc" />
  <path
     style="fill:#99ffff;fill-opacity:1;stroke-width:0.488255"
     d="m 106.21143,310.32993 c 0.35244,-0.14099 0.77356,-0.12364 0.93581,0.0386 0.1622,0.1622 -0.12625,0.27764 -0.64083,0.25644 -0.5688,-0.0235 -0.68449,-0.13914 -0.29498,-0.29499 z m 15.75426,-9.22824 c 0.0235,-0.56879 0.13915,-0.68448 0.295,-0.29499 0.14098,0.35246 0.12364,0.77358 -0.0386,0.93582 -0.16221,0.16221 -0.27767,-0.12624 -0.25646,-0.64083 z m -15.41859,-1.95322 c -10.917917,-0.8888 -12.299501,-1.25056 -14.696102,-3.84798 -2.197398,-2.38151 -3.530455,-5.55279 -5.035587,-11.97938 -2.149286,-9.17701 -3.694418,-27.10231 -3.387997,-39.30489 0.154312,-6.14483 0.290092,-7.04207 1.344233,-8.88211 2.005851,-3.50131 7.485438,-5.20216 15.916373,-4.94037 9.6584,0.29988 28.85459,0.0167 31.13542,-0.46013 1.31388,-0.27439 2.44326,-0.30024 2.59216,-0.0595 0.14504,0.23481 0.8551,0.42907 1.57775,0.43169 3.38903,0.013 8.84749,4.05509 9.72924,7.20596 0.57202,2.044 0.35413,23.02571 -0.31044,29.89673 -0.72461,7.49161 -2.32482,18.41017 -3.19799,21.82039 -0.35686,1.39387 -1.12693,3.20566 -1.71123,4.02624 -1.80115,2.52946 -6.51728,4.87619 -11.95936,5.9509 -3.75566,0.74168 -13.83297,0.80685 -21.99647,0.14227 z m -1.32929,-5.84578 c 0.83554,-0.58525 1.08516,-1.24346 1.08516,-2.8614 0,-2.29217 -1.1575,-4.36787 -4.4199,-7.92609 -4.183687,-4.56305 -5.033907,-9.22937 -2.547197,-13.98007 1.125177,-2.14956 1.334687,-3.15675 1.342317,-6.45316 0.0104,-4.49727 -1.221727,-7.73096 -4.738147,-12.43495 -2.487168,-3.32712 -8.571014,-9.29243 -9.47709,-9.29243 -0.951841,0 -0.869233,4.78569 0.325188,18.84241 1.393779,16.40275 2.848569,24.98389 4.937537,29.12442 0.656844,1.30195 1.655662,2.20135 3.477195,3.13106 5.015437,2.5599 8.169727,3.14264 10.014937,1.85021 z m 33.17639,-1.02297 c -0.12416,-0.64917 -0.0938,-1.04842 0.0676,-0.88719 0.59186,0.59183 4.33021,-33.81502 4.77616,-43.95823 0.28931,-6.58018 -0.11999,-9.03275 -1.50704,-9.03275 -1.5454,0 -1.88843,2.19154 -2.51965,16.09768 -0.34779,7.66156 -0.8687,18.32438 -1.15759,23.69519 -0.79782,14.83124 -0.79518,16.10705 0.0321,15.59578 0.29382,-0.18159 0.43271,-0.86131 0.30861,-1.51048 z m -49.93266,2.72707 c -0.177006,-0.2864 -0.21711,-0.62547 -0.08908,-0.75345 0.127942,-0.12807 0.362801,0.10629 0.521821,0.52074 0.330144,0.86035 0.04878,1.01169 -0.432692,0.23271 z m 59.4895,-39.02801 c 0,-1.47698 0.0916,-2.08118 0.20342,-1.34271 0.11177,0.73849 0.11177,1.94692 0,2.68542 -0.11177,0.73848 -0.20342,0.13434 -0.20342,-1.34271 z m -0.0511,-5.12669 c 0.009,-0.80562 0.11933,-1.07609 0.24315,-0.60103 0.12377,0.47506 0.11568,1.1342 -0.0185,1.46476 -0.1338,0.33056 -0.23505,-0.0582 -0.22508,-0.86373 z m -66.459486,-4.435 c 0.02348,-0.5688 0.139132,-0.68448 0.294996,-0.29498 0.141036,0.35245 0.123638,0.77357 -0.03847,0.93583 -0.162255,0.16221 -0.27765,-0.12624 -0.256457,-0.64085 z m 65.123566,-12.44232 c -0.17696,-0.28641 -0.21711,-0.62546 -0.0891,-0.75346 0.12807,-0.12807 0.3628,0.10629 0.52182,0.52075 0.33016,0.86038 0.0488,1.01169 -0.43269,0.23271 z m -56.61007,-4.37463 c 0.122203,-0.1977 0.76804,-0.46379 1.435227,-0.59134 0.667186,-0.12755 1.113117,-0.0702 0.99094,0.12755 -0.122203,0.19769 -0.768027,0.46378 -1.435214,0.59133 -0.6672,0.12755 -1.113117,0.0702 -0.990953,-0.12755 z m 46.20972,-11.21699 c 0,-0.67133 0.11085,-0.94598 0.24628,-0.61031 0.13545,0.33567 0.13545,0.88496 0,1.22064 -0.13545,0.33568 -0.24628,0.061 -0.24628,-0.61033 z"
     id="path7589-2-7"
     sodipodi:nodetypes="sssssssssscssssscccsssssccsssscssssssccsssssccsssssssscscccssssssssssssssscss" />
  <path
     style="fill:#e4e4e4;fill-opacity:1;stroke-width:0.488255"
     d="m 103.93634,310.18678 c -2.96201,-0.3369 -3.84128,-0.65006 -5.044607,-1.79666 -1.86666,-1.77863 -2.80182,-4.03322 -3.18212,-7.6717 l -0.30337,-2.90261 1.9085,0.35464 c 2.975287,0.55281 16.367297,1.53954 20.664447,1.52253 l 3.87146,-0.0147 0.30407,2.19717 c 0.1672,1.20842 0.5407,2.80135 0.82989,3.53984 0.49771,1.271 0.69341,1.34271 3.66446,1.34271 3.21462,0 5.67965,0.85079 6.17041,2.12967 0.19369,0.50476 -0.23403,0.78305 -1.52767,0.99401 -3.09415,0.5045 -23.59359,0.73364 -27.35547,0.30574 z m 33.17579,-2.79685 c 0.35551,-0.592 0.75149,-0.97128 0.87994,-0.84282 0.12846,0.12846 -0.16239,0.61282 -0.6464,1.07637 -0.84076,0.80528 -0.85116,0.79488 -0.23354,-0.23355 z M 93.155493,306.4474 c -0.556579,-0.70757 -1.005274,-1.5315 -0.997109,-1.83097 0.0078,-0.29947 0.258647,-0.10498 0.556604,0.43204 0.297969,0.53708 0.874632,1.36103 1.281475,1.83098 0.406831,0.46994 0.61173,0.85444 0.455347,0.85444 -0.156399,0 -0.739752,-0.57893 -1.296317,-1.28649 z m 42.442847,0.55867 c 0,-0.16349 0.31146,-0.89953 0.69217,-1.63571 0.3807,-0.73619 0.97246,-2.69549 1.31501,-4.35404 0.35092,-1.69892 0.9293,-3.1331 1.32472,-3.28486 0.9875,-0.37892 0.42845,2.85261 -1.08579,6.27663 -1.00164,2.26487 -2.24611,3.92594 -2.24611,2.99798 z m 7.85065,-17.13416 c 0.0235,-0.5688 0.13913,-0.68448 0.29498,-0.29501 0.14098,0.35248 0.12364,0.77359 -0.0386,0.93584 -0.16222,0.1622 -0.27765,-0.12624 -0.25645,-0.64083 z m -57.125977,-1.95304 c 0.02347,-0.56877 0.139131,-0.68448 0.294982,-0.29498 0.141049,0.35247 0.123768,0.77358 -0.03847,0.93582 -0.162255,0.16222 -0.277637,-0.12625 -0.256444,-0.64084 z M 145.89024,278.642 c 0.0235,-0.56881 0.13915,-0.68449 0.29501,-0.29499 0.14099,0.35244 0.12364,0.77359 -0.0386,0.93583 -0.16222,0.16221 -0.27764,-0.12611 -0.25644,-0.64084 z m 0.52681,-3.13297 c 0,-0.67138 0.11085,-0.946 0.24628,-0.61033 0.13546,0.33568 0.13546,0.88495 0,1.22065 -0.13545,0.33567 -0.24628,0.0612 -0.24628,-0.61032 z m -63.473284,-2.92955 c 0,-0.67136 0.110857,-0.94598 0.246271,-0.61031 0.135454,0.33567 0.135454,0.88495 0,1.22063 -0.135453,0.33569 -0.246271,0.0612 -0.246271,-0.61032 z m 63.922994,-0.28481 c 0.0235,-0.5688 0.13914,-0.68448 0.295,-0.295 0.14098,0.35246 0.12363,0.77359 -0.0386,0.93583 -0.16221,0.1622 -0.27766,-0.12625 -0.25646,-0.64083 z m -64.411258,-3.13299 c 0,-0.67135 0.110856,-0.94598 0.246271,-0.61032 0.135454,0.33567 0.135454,0.88497 0,1.22065 -0.135441,0.33567 -0.246271,0.0612 -0.246271,-0.61033 z m 64.956168,-1.70888 c 0.009,-0.80563 0.11933,-1.0761 0.24316,-0.60103 0.1239,0.47505 0.11568,1.13421 -0.0185,1.46477 -0.13378,0.33056 -0.23503,-0.0582 -0.22507,-0.86374 z m -65.42633,-2.44122 c 0.01043,-0.80562 0.119334,-1.07608 0.24318,-0.60101 0.123768,0.47505 0.115682,1.1342 -0.01813,1.46475 -0.133759,0.33057 -0.235042,-0.0582 -0.225091,-0.86374 z m 65.9707,-3.90604 c 0.004,-1.61125 0.0939,-2.21153 0.20255,-1.33397 0.10864,0.87757 0.10642,2.19587 -0.005,2.92954 -0.1115,0.73368 -0.20031,0.0166 -0.19756,-1.59557 z M 81.541548,259.1525 c 0.0039,-1.34268 0.09847,-1.83401 0.210719,-1.09185 0.112291,0.74218 0.109292,1.84075 -0.0065,2.4413 -0.115943,0.60051 -0.207706,-0.008 -0.204054,-1.34945 z m 66.419462,-12.45059 c 0,-1.74552 0.0885,-2.45959 0.19693,-1.58684 0.10838,0.87277 0.10838,2.30091 0,3.17368 -0.10825,0.87276 -0.19693,0.1587 -0.19693,-1.58684 z m -66.445832,-2.44128 c 0,-0.9399 0.100553,-1.3244 0.223304,-0.85444 0.122855,0.46994 0.122855,1.23894 0,1.70888 -0.122855,0.46996 -0.223304,0.0854 -0.223304,-0.85444 z m 65.896492,-5.12669 c 0.009,-0.80562 0.11933,-1.07609 0.24316,-0.60103 0.1239,0.47505 0.11568,1.1342 -0.0185,1.46476 -0.13378,0.33056 -0.23503,-0.0582 -0.22507,-0.86373 z m -65.444419,-0.73239 c 0,-0.67135 0.110856,-0.94599 0.246271,-0.61033 0.135453,0.33569 0.135453,0.88498 0,1.22065 -0.135441,0.33569 -0.246271,0.0612 -0.246271,-0.61032 z m 64.899509,-3.21436 c 0.0235,-0.56877 0.13914,-0.68448 0.295,-0.29497 0.14098,0.35245 0.12363,0.77358 -0.0386,0.93583 -0.16221,0.1622 -0.27766,-0.12599 -0.25646,-0.64086 z m -63.511833,-1.91233 c 0.630708,-0.67133 1.256591,-1.22063 1.390858,-1.22063 0.13428,0 -0.271899,0.5493 -0.902594,1.22063 -0.630708,0.67136 -1.256605,1.22065 -1.390858,1.22065 -0.13428,0 0.271885,-0.54929 0.902594,-1.22065 z m 61.588233,-1.23613 c -0.63396,-0.52814 -0.94265,-0.96027 -0.68598,-0.96027 0.25667,0 0.86433,0.43943 1.35039,0.97651 1.11659,1.2338 0.82763,1.22673 -0.66441,-0.0166 z m -56.705668,-1.93678 c 0.402814,-0.26033 0.952101,-0.4733 1.220635,-0.4733 0.268547,0 0.158694,0.21297 -0.244132,0.4733 -0.402801,0.26031 -0.952088,0.47328 -1.220635,0.47328 -0.268534,0 -0.158681,-0.21297 0.244132,-0.47328 z m 18.187538,0.15168 c 0.46994,-0.12272 1.23894,-0.12272 1.70889,0 0.46994,0.12286 0.0854,0.22331 -0.85445,0.22331 -0.93988,0 -1.32439,-0.10056 -0.85444,-0.22331 z m 16.60069,0 c 0.46996,-0.12272 1.23896,-0.12272 1.70892,0 0.46994,0.12286 0.0854,0.22331 -0.85445,0.22331 -0.93991,0 -1.32441,-0.10056 -0.85447,-0.22331 z m -22.67337,-0.48532 c 0.35246,-0.14098 0.77358,-0.12363 0.93582,0.0386 0.16224,0.1622 -0.12611,0.27765 -0.64084,0.25646 -0.56879,-0.0235 -0.684477,-0.13915 -0.29498,-0.29499 z m 29.29536,0 c 0.35245,-0.14098 0.7736,-0.12363 0.93584,0.0386 0.1622,0.1622 -0.12624,0.27765 -0.64085,0.25646 -0.5688,-0.0235 -0.68448,-0.13915 -0.29499,-0.29499 z m -33.689657,-0.48816 c 0.35244,-0.14099 0.77357,-0.12363 0.93582,0.0386 0.16224,0.1622 -0.12611,0.27765 -0.64084,0.25644 -0.56879,-0.0235 -0.68449,-0.13914 -0.29498,-0.29498 z m 40.309167,-5.03813 c 0,-2.81966 0.0806,-3.97319 0.17936,-2.56335 0.0986,1.40986 0.0986,3.71685 0,5.1267 -0.0985,1.40983 -0.17936,0.25632 -0.17936,-2.56335 z m -13.19509,0.22305 c -0.20794,-0.54191 0.16406,-1.81492 0.98037,-3.35556 0.72347,-1.36535 1.53677,-3.69088 1.80734,-5.16785 1.32325,-7.22359 1.00667,-26.94433 -0.77488,-48.2687 -0.38946,-4.66171 -0.58718,-8.67152 -0.43938,-8.91067 0.57965,-0.93791 1.56527,-0.34996 2.34035,1.39612 2.76672,6.23272 5.67767,31.22048 5.80987,49.87215 0.0373,5.26517 -0.0915,10.23217 -0.28612,11.03779 -0.50637,2.09522 -3.19128,3.77963 -6.4562,4.05041 -2.21505,0.1836 -2.70088,0.0771 -2.98135,-0.65369 z m -29.77375,-8.27946 c 0.0013,-2.68541 0.08321,-3.72169 0.182196,-2.30286 0.09899,1.41884 0.09794,3.61601 -0.0026,4.88257 -0.100032,1.26657 -0.181023,0.10577 -0.179757,-2.57971 z m 42.46018,-12.69466 c 0.003,-1.87978 0.0904,-2.58896 0.1961,-1.57593 0.10577,1.01301 0.10394,2.55102 -0.004,3.41777 -0.10798,0.86678 -0.19434,0.0381 -0.19217,-1.84184 z m -41.993969,-4.14987 c 0,-1.74552 0.08855,-2.4596 0.19692,-1.58684 0.108248,0.87275 0.108248,2.30091 0,3.17366 -0.108248,0.87276 -0.19692,0.15871 -0.19692,-1.58682 z m 41.478459,-7.32384 c 0,-1.20844 0.0952,-1.70281 0.21162,-1.0986 0.11646,0.60422 0.11646,1.59296 0,2.19716 -0.11647,0.60422 -0.21162,0.10982 -0.21162,-1.09856 z m -41.013501,-3.90606 c 0,-1.20844 0.09521,-1.7028 0.211592,-1.09858 0.116332,0.60422 0.116332,1.59295 0,2.19715 -0.116334,0.60421 -0.211592,0.10982 -0.211592,-1.09857 z m 40.505541,-4.3943 c 0,-0.9399 0.10055,-1.3244 0.22329,-0.85446 0.12286,0.46995 0.12286,1.23896 0,1.7089 -0.12272,0.46995 -0.22329,0.0854 -0.22329,-0.85444 z m -40.036997,-4.3943 c 0,-0.9399 0.10055,-1.3244 0.22329,-0.85446 0.12286,0.46995 0.12286,1.23895 0,1.7089 -0.12285,0.46994 -0.22329,0.0854 -0.22329,-0.85444 z m 39.512567,-2.44129 c 0,-0.67136 0.11086,-0.94599 0.24626,-0.61032 0.13545,0.33567 0.13545,0.88497 0,1.22063 -0.13546,0.33569 -0.24626,0.061 -0.24626,-0.61031 z m -39.042407,-4.15018 c 0.0104,-0.80561 0.11934,-1.07608 0.24318,-0.60102 0.12377,0.47505 0.11569,1.1342 -0.0181,1.46476 -0.13371,0.33056 -0.235,-0.0582 -0.22505,-0.86374 z m 38.572227,-1.46477 c 0.009,-0.80561 0.11934,-1.07607 0.2432,-0.60102 0.12377,0.47505 0.11568,1.13421 -0.0185,1.46477 -0.1338,0.33056 -0.235,-0.0582 -0.22505,-0.86375 z m -38.102047,-4.15016 c 0,-0.67136 0.11085,-0.94602 0.24627,-0.61033 0.13544,0.33568 0.13544,0.88496 0,1.22064 -0.13545,0.33567 -0.24627,0.061 -0.24627,-0.61031 z m 37.595697,-0.48827 c 0,-0.67135 0.11086,-0.946 0.24629,-0.61031 0.13545,0.33566 0.13545,0.88495 0,1.22064 -0.13545,0.33567 -0.24629,0.061 -0.24629,-0.61033 z m -37.107447,-4.3943 c 0,-0.67136 0.11086,-0.946 0.24627,-0.61032 0.13544,0.33568 0.13544,0.88497 0,1.22063 -0.13545,0.33569 -0.24627,0.061 -0.24627,-0.61031 z m 36.580657,0.20344 c 0.0235,-0.56878 0.13915,-0.68449 0.295,-0.29498 0.14099,0.35246 0.12363,0.77357 -0.0386,0.93581 -0.1622,0.16226 -0.27762,-0.12612 -0.25643,-0.64083 z m -0.48825,-3.4178 c 0.0235,-0.56878 0.13913,-0.68448 0.29498,-0.29498 0.14099,0.35246 0.12364,0.77358 -0.0386,0.93583 -0.1622,0.16224 -0.27766,-0.12612 -0.25646,-0.64085 z M 96.576393,158.531 c 0.0235,-0.5688 0.13912,-0.68449 0.29498,-0.29499 0.14104,0.35247 0.12364,0.77359 -0.0386,0.93583 -0.16225,0.16225 -0.27764,-0.12611 -0.25644,-0.64084 z m 35.154447,-2.92953 c 0.0235,-0.56879 0.13913,-0.68448 0.29498,-0.295 0.14098,0.35247 0.12364,0.77358 -0.0386,0.93583 -0.16221,0.16224 -0.27764,-0.12612 -0.25643,-0.64083 z m -25.54994,-8.33893 c 0.33567,-0.13544 0.88497,-0.13544 1.22064,0 0.33568,0.13545 0.0612,0.24627 -0.61032,0.24627 -0.67135,0 -0.946,-0.11086 -0.61032,-0.24627 z m 17.11947,-0.0104 c 0.35247,-0.14104 0.77358,-0.12364 0.93584,0.0386 0.1622,0.16225 -0.12625,0.27764 -0.64083,0.25644 -0.5688,-0.0235 -0.6845,-0.13913 -0.29501,-0.29499 z m -11.73992,-0.50861 c 0.87757,-0.10864 2.19587,-0.10643 2.92954,0.005 0.73368,0.11138 0.0147,0.20031 -1.59557,0.19757 -1.61124,-0.003 -2.21152,-0.0939 -1.33397,-0.20255 z m 8.05678,0.0155 c 0.47505,-0.12377 1.13421,-0.11569 1.46478,0.0181 0.33056,0.13375 -0.0582,0.23505 -0.86375,0.22508 -0.80562,-0.0104 -1.07609,-0.11933 -0.60103,-0.24317 z"
     id="path7587-9-0"
     sodipodi:nodetypes="csscscccssssccssssssssssssssssssssssssssssssscssssssssssssssscscccssssscccccssssssssssssscscccsssssssssssssscssccsssssscssscsssssssssssssssssscsssccssssccssscsscscccssssscsssssssccsssssscssssssscscccssssscsssssssssssssssssssssssssssssssssssssssssss" />
  <path
     style="fill:#952d56;stroke-width:0.488255"
     d="m 112.03998,230.22631 c 1.94691,-0.0926 5.13279,-0.0926 7.0797,0 1.94692,0.0926 0.35399,0.16849 -3.53984,0.16849 -3.89385,0 -5.4868,-0.0758 -3.53986,-0.16849 z m -9.99997,-0.46398 c 0.47507,-0.12377 1.13421,-0.11568 1.46477,0.0185 0.33058,0.13379 -0.0582,0.23503 -0.86374,0.22508 -0.80562,-0.009 -1.07609,-0.11934 -0.60103,-0.24317 z m 25.38932,0 c 0.47505,-0.12377 1.13421,-0.11568 1.46478,0.0185 0.33056,0.13379 -0.0582,0.23503 -0.86375,0.22508 -0.80563,-0.009 -1.0761,-0.11934 -0.60103,-0.24317 z m -30.006517,-0.48344 c 0.35245,-0.14098 0.77357,-0.12364 0.93583,0.0386 0.16224,0.16222 -0.12612,0.27765 -0.64084,0.25645 -0.5688,-0.0235 -0.68448,-0.13915 -0.29499,-0.295 z m -4.135388,-4.79301 c 0.0026,-2.14833 0.08764,-2.96647 0.190764,-1.81807 0.103162,1.14839 0.101728,2.90612 -0.0026,3.90606 -0.104857,0.99993 -0.189304,0.0604 -0.18753,-2.08799 z m 31.965985,0.8871 c 0.35245,-0.14098 0.77359,-0.12363 0.93583,0.0386 0.1622,0.16221 -0.12625,0.27763 -0.64084,0.25643 -0.5688,-0.0235 -0.6845,-0.13913 -0.29499,-0.29499 z m 7.53852,-8.21057 c 0.005,-1.07417 0.10538,-1.4561 0.22218,-0.84875 0.11686,0.60735 0.11243,1.48622 -0.009,1.95303 -0.1222,0.46681 -0.21776,-0.03 -0.21234,-1.10428 z m -6.92017,-3.45846 c 0.0235,-0.5688 0.13914,-0.68448 0.29498,-0.29501 0.14098,0.35247 0.12364,0.77358 -0.0386,0.93584 -0.16221,0.1622 -0.27764,-0.12612 -0.25643,-0.64083 z m 9.87288,-4.59776 c 0,-1.47697 0.0916,-2.08118 0.2034,-1.3427 0.11177,0.73848 0.11177,1.94691 0,2.68541 -0.11177,0.73849 -0.2034,0.13435 -0.2034,-1.34271 z m -9.22236,-8.30035 c 0,-4.69947 0.0733,-6.62198 0.16276,-4.27224 0.0895,2.34973 0.0895,6.19474 0,8.54448 -0.0895,2.34973 -0.16276,0.42722 -0.16276,-4.27224 z m 6.29781,5.61494 c 0.004,-1.61124 0.0939,-2.21152 0.20257,-1.33396 0.10864,0.87758 0.10642,2.19586 -0.005,2.92955 -0.11151,0.73367 -0.20031,0.0147 -0.19759,-1.59559 z m -39.078805,-2.19715 c 0,-1.20844 0.09521,-1.7028 0.211605,-1.09856 0.116334,0.6042 0.116334,1.59293 0,2.19713 -0.116334,0.60421 -0.211605,0.10982 -0.211605,-1.09857 z m 38.534445,-8.05623 c 0.009,-0.80562 0.11933,-1.07608 0.24318,-0.60103 0.12377,0.47507 0.11568,1.13422 -0.0185,1.46477 -0.1338,0.33057 -0.23503,-0.0582 -0.22508,-0.86374 z m 2.92952,-0.97651 c 0.009,-0.80562 0.11934,-1.07609 0.24318,-0.60103 0.1239,0.47506 0.11568,1.1342 -0.0185,1.46476 -0.13379,0.33058 -0.23503,-0.058 -0.22509,-0.86373 z m -40.995407,-3.66193 c 0,-0.93988 0.100553,-1.32438 0.223291,-0.85444 0.122859,0.46995 0.122859,1.23896 0,1.7089 -0.122855,0.46994 -0.223291,0.0854 -0.223291,-0.85446 z m 37.577627,-1.70888 c 0.009,-0.80562 0.11933,-1.07608 0.24316,-0.60101 0.12377,0.47505 0.11569,1.13419 -0.0185,1.46475 -0.13378,0.33056 -0.235,-0.0582 -0.22505,-0.86374 z m 2.91143,-3.66192 c 0,-0.67135 0.11085,-0.946 0.24628,-0.61032 0.13546,0.33568 0.13546,0.88496 0,1.22063 -0.13544,0.33567 -0.24628,0.061 -0.24628,-0.61031 z m -3.41779,-1.46478 c 0,-0.67133 0.11086,-0.94598 0.24627,-0.61031 0.13546,0.33567 0.13546,0.88496 0,1.22063 -0.13545,0.33569 -0.24627,0.061 -0.24627,-0.61032 z m -5.32478,-1.22063 c 0.005,-1.07417 0.10538,-1.4561 0.2222,-0.84876 0.11686,0.60735 0.11242,1.48621 -0.009,1.95303 -0.1222,0.46681 -0.21776,-0.03 -0.21235,-1.10427 z m -31.276317,-1.46477 c 0.0104,-0.80563 0.11934,-1.07608 0.24316,-0.60103 0.12377,0.47506 0.11568,1.13421 -0.0181,1.46477 -0.13372,0.33057 -0.23502,-0.0582 -0.22505,-0.86374 z m 36.074297,-1.99371 c 0.0235,-0.56879 0.13914,-0.68448 0.29498,-0.295 0.141,0.35246 0.12364,0.77359 -0.0386,0.93583 -0.16222,0.16225 -0.27766,-0.12612 -0.25646,-0.64083 z m 3.45635,-1.17996 c 0,-0.67135 0.11086,-0.946 0.24626,-0.61032 0.13545,0.33568 0.13545,0.88497 0,1.22065 -0.13546,0.33567 -0.24626,0.061 -0.24626,-0.61033 z m -8.75244,-3.41778 c 0,-0.93991 0.10043,-1.3244 0.22329,-0.85446 0.12286,0.46994 0.12286,1.23896 0,1.7089 -0.12285,0.46994 -0.22329,0.0854 -0.22329,-0.85444 z m 4.80785,0.69169 c 0.0235,-0.56879 0.13915,-0.68449 0.29498,-0.29498 0.14099,0.35245 0.12364,0.77358 -0.0386,0.93582 -0.1622,0.16224 -0.27764,-0.12611 -0.25643,-0.64084 z m -35.154447,-1.46477 c 0.0235,-0.56878 0.13912,-0.68449 0.29499,-0.29499 0.14105,0.35247 0.12364,0.77359 -0.0386,0.93583 -0.16225,0.16225 -0.27763,-0.12611 -0.25644,-0.64084 z m 38.572237,-1.46478 c 0.0235,-0.56878 0.13914,-0.68448 0.29498,-0.29498 0.14098,0.35246 0.12364,0.77358 -0.0386,0.93582 -0.16222,0.16226 -0.27767,-0.12611 -0.25646,-0.64084 z m -38.083967,-4.3943 c 0.0235,-0.56877 0.1391,-0.68448 0.29497,-0.29498 0.14105,0.35247 0.12377,0.77358 -0.0385,0.93582 -0.16225,0.16224 -0.27764,-0.12611 -0.25645,-0.64084 z m 29.333897,-0.20344 c 0,-0.67135 0.11086,-0.94598 0.24626,-0.61031 0.13546,0.33567 0.13546,0.88496 0,1.22063 -0.13544,0.33569 -0.24626,0.061 -0.24626,-0.61032 z m -28.845657,-4.67911 c 0.0235,-0.5688 0.13913,-0.68448 0.29499,-0.295 0.14105,0.35246 0.12364,0.77359 -0.0386,0.93583 -0.16224,0.16224 -0.27764,-0.12612 -0.25644,-0.64083 z m 36.619207,0 c 0.0235,-0.5688 0.13915,-0.68448 0.295,-0.295 0.14099,0.35246 0.12363,0.77359 -0.0386,0.93583 -0.1622,0.16224 -0.27762,-0.12612 -0.25643,-0.64083 z m -8.26182,-1.17996 c 0,-0.67135 0.11085,-0.94598 0.24628,-0.61032 0.13545,0.33568 0.13545,0.88497 0,1.22065 -0.13544,0.33567 -0.24628,0.061 -0.24628,-0.61033 z m -16.3116,-15.45935 c 0.33567,-0.13544 0.88497,-0.13544 1.22064,0 0.33568,0.13546 0.0612,0.24627 -0.61032,0.24627 -0.67135,0 -0.946,-0.11085 -0.61032,-0.24627 z m 13.70168,-0.0104 c 0.35247,-0.14104 0.77358,-0.12377 0.93584,0.0386 0.1622,0.16226 -0.12599,0.27765 -0.64083,0.25645 -0.56881,-0.0235 -0.68449,-0.13912 -0.29501,-0.29499 z m -5.39563,-0.50002 c 0.60735,-0.11685 1.4862,-0.11229 1.95303,0.009 0.46681,0.12221 -0.03,0.21776 -1.10428,0.21235 -1.07416,-0.005 -1.45609,-0.10538 -0.84875,-0.22221 z"
     id="path7583-1-9"
     sodipodi:nodetypes="ssssccccccccccssssscscccssssscscccssssssssssssscscccsssscsccccscccsssscccccscssscsscscccssssssssssscssssssssssssssssssssssssssscsssssssssssscsssssssssssccccc" />
  <path
     style="fill:#3f3d56;fill-opacity:1;stroke-width:0.488255"
     d="m 99.711503,229.54406 c -2.41686,-0.23409 -4.83373,-0.52424 -5.370811,-0.64478 -0.959469,-0.21535 -0.970751,-0.48169 -0.646371,-15.25489 0.727258,-33.12138 2.756262,-57.60719 5.190682,-62.64066 0.66951,-1.3843 1.336587,-1.88481 3.511907,-2.63501 2.25548,-0.77785 4.20972,-0.93351 12.20641,-0.97224 14.86631,-0.0721 15.95655,0.5265 17.2489,9.46943 2.36251,16.34824 3.44706,31.69609 4.04321,57.21709 l 0.33866,14.49781 -1.17234,0.27302 c -5.20724,1.21274 -25.80346,1.61489 -35.350247,0.69023 z m 30.133487,-5.36311 c 0.99806,-0.50519 2.07511,-1.40521 2.39345,-2.00004 1.4601,-2.7282 0.934,-22.79133 -1.06366,-40.56323 -1.85429,-16.4964 -3.89898,-24.3013 -6.14099,-23.44096 -0.68897,0.26438 -0.75271,0.87677 -0.46844,4.50067 1.75903,22.42509 2.29989,45.21785 1.24602,52.50987 -0.28453,1.96878 -0.99857,4.26216 -1.69925,5.45776 -1.51223,2.58046 -1.54594,3.9795 -0.10981,4.56387 1.35386,0.5509 3.45329,0.1816 5.84274,-1.02794 z"
     id="path7581-2-3"
     sodipodi:nodetypes="sssssssscsscssssssscc" />
  <g
     id="g30094"
     transform="matrix(1.2060418,0,0,1.2060418,-5.4484707,-148.99063)">
    <path
       style="fill:#99ffff;fill-opacity:1;stroke-width:0.488255"
       d="m 169.96456,503.98753 c 0.35244,-0.14099 0.77356,-0.12364 0.93581,0.0386 0.1622,0.1622 -0.12625,0.27764 -0.64083,0.25644 -0.5688,-0.0235 -0.68449,-0.13914 -0.29498,-0.29499 z m 15.75426,-9.22824 c 0.0235,-0.56879 0.13915,-0.68448 0.295,-0.29499 0.14098,0.35246 0.12364,0.77358 -0.0386,0.93582 -0.16221,0.16221 -0.27767,-0.12624 -0.25646,-0.64083 z m -15.41859,-1.95322 c -10.91792,-0.8888 -12.2995,-1.25056 -14.6961,-3.84798 -2.1974,-2.38151 -3.53046,-5.55279 -5.03559,-11.97938 -2.14929,-9.17701 -3.69442,-27.10231 -3.388,-39.30489 0.15431,-6.14483 0.29009,-7.04207 1.34423,-8.88211 2.00586,-3.50131 7.48544,-5.20216 15.91638,-4.94037 9.6584,0.29988 28.85459,0.0167 31.13542,-0.46013 1.31388,-0.27439 2.44326,-0.30024 2.59216,-0.0595 0.14504,0.23481 0.8551,0.42907 1.57775,0.43169 3.38903,0.013 8.84749,4.05509 9.72924,7.20596 0.57202,2.044 0.35413,23.02571 -0.31044,29.89673 -0.72461,7.49161 -2.32482,18.41017 -3.19799,21.82039 -0.35686,1.39387 -1.12693,3.20566 -1.71123,4.02624 -1.80115,2.52946 -6.51728,4.87619 -11.95936,5.9509 -3.75566,0.74168 -13.83297,0.80685 -21.99647,0.14227 z m -1.32929,-5.84578 c 0.83554,-0.58525 1.08516,-1.24346 1.08516,-2.8614 0,-2.29217 -1.1575,-4.36787 -4.4199,-7.92609 -4.18369,-4.56305 -5.03391,-9.22937 -2.5472,-13.98007 1.12518,-2.14956 1.33469,-3.15675 1.34232,-6.45316 0.0104,-4.49727 -1.22173,-7.73096 -4.73815,-12.43495 -2.48717,-3.32712 -8.57101,-9.29243 -9.47709,-9.29243 -0.95184,0 -0.86923,4.78569 0.32519,18.84241 1.39378,16.40275 2.84857,24.98389 4.93754,29.12442 0.65684,1.30195 1.65566,2.20135 3.47719,3.13106 5.01544,2.5599 8.16973,3.14264 10.01494,1.85021 z m 33.17639,-1.02297 c -0.12416,-0.64917 -0.0938,-1.04842 0.0676,-0.88719 0.59186,0.59183 4.33021,-33.81502 4.77616,-43.95823 0.28931,-6.58018 -0.11999,-9.03275 -1.50704,-9.03275 -1.5454,0 -1.88843,2.19154 -2.51965,16.09768 -0.34779,7.66156 -0.8687,18.32438 -1.15759,23.69519 -0.79782,14.83124 -0.79518,16.10705 0.0321,15.59578 0.29382,-0.18159 0.43271,-0.86131 0.30861,-1.51048 z m -49.93266,2.72707 c -0.17701,-0.2864 -0.21711,-0.62547 -0.0891,-0.75345 0.12794,-0.12807 0.3628,0.10629 0.52182,0.52074 0.33014,0.86035 0.0488,1.01169 -0.43269,0.23271 z m 59.4895,-39.02801 c 0,-1.47698 0.0916,-2.08118 0.20342,-1.34271 0.11177,0.73849 0.11177,1.94692 0,2.68542 -0.11177,0.73848 -0.20342,0.13434 -0.20342,-1.34271 z m -0.0511,-5.12669 c 0.009,-0.80562 0.11933,-1.07609 0.24315,-0.60103 0.12377,0.47506 0.11568,1.1342 -0.0185,1.46476 -0.1338,0.33056 -0.23505,-0.0582 -0.22508,-0.86373 z m -66.45949,-4.435 c 0.0235,-0.5688 0.13913,-0.68448 0.295,-0.29498 0.14103,0.35245 0.12364,0.77357 -0.0385,0.93583 -0.16226,0.16221 -0.27765,-0.12624 -0.25646,-0.64085 z m 65.12357,-12.44232 c -0.17696,-0.28641 -0.21711,-0.62546 -0.0891,-0.75346 0.12807,-0.12807 0.3628,0.10629 0.52182,0.52075 0.33016,0.86038 0.0488,1.01169 -0.43269,0.23271 z m -56.61007,-4.37463 c 0.1222,-0.1977 0.76804,-0.46379 1.43522,-0.59134 0.66719,-0.12755 1.11312,-0.0702 0.99094,0.12755 -0.1222,0.19769 -0.76802,0.46378 -1.43521,0.59133 -0.6672,0.12755 -1.11312,0.0702 -0.99095,-0.12755 z m 46.20972,-11.21699 c 0,-0.67133 0.11085,-0.94598 0.24628,-0.61031 0.13545,0.33567 0.13545,0.88496 0,1.22064 -0.13545,0.33568 -0.24628,0.061 -0.24628,-0.61033 z"
       id="path7589-2-6"
       sodipodi:nodetypes="sssssssssscssssscccsssssccsssscssssssccsssssccsssssssscscccssssssssssssssscss" />
    <path
       style="fill:#e4e4e4;fill-opacity:1;stroke-width:0.488255"
       d="m 167.68947,503.84438 c -2.96201,-0.3369 -3.84128,-0.65006 -5.04461,-1.79666 -1.86666,-1.77863 -2.80182,-4.03322 -3.18212,-7.6717 l -0.30337,-2.90261 1.9085,0.35464 c 2.97529,0.55281 16.3673,1.53954 20.66445,1.52253 l 3.87146,-0.0147 0.30407,2.19717 c 0.1672,1.20842 0.5407,2.80135 0.82989,3.53984 0.49771,1.271 0.69341,1.34271 3.66446,1.34271 3.21462,0 5.67965,0.85079 6.17041,2.12967 0.19369,0.50476 -0.23403,0.78305 -1.52767,0.99401 -3.09415,0.5045 -23.59359,0.73364 -27.35547,0.30574 z m 33.17579,-2.79685 c 0.35551,-0.592 0.75149,-0.97128 0.87994,-0.84282 0.12846,0.12846 -0.16239,0.61282 -0.6464,1.07637 -0.84076,0.80528 -0.85116,0.79488 -0.23354,-0.23355 z M 156.90862,500.105 c -0.55658,-0.70757 -1.00527,-1.5315 -0.99711,-1.83097 0.008,-0.29947 0.25865,-0.10498 0.55661,0.43204 0.29796,0.53708 0.87463,1.36103 1.28147,1.83098 0.40683,0.46994 0.61173,0.85444 0.45535,0.85444 -0.1564,0 -0.73975,-0.57893 -1.29632,-1.28649 z m 42.44285,0.55867 c 0,-0.16349 0.31146,-0.89953 0.69217,-1.63571 0.3807,-0.73619 0.97246,-2.69549 1.31501,-4.35404 0.35092,-1.69892 0.9293,-3.1331 1.32472,-3.28486 0.9875,-0.37892 0.42845,2.85261 -1.08579,6.27663 -1.00164,2.26487 -2.24611,3.92594 -2.24611,2.99798 z m 7.85065,-17.13416 c 0.0235,-0.5688 0.13913,-0.68448 0.29498,-0.29501 0.14098,0.35248 0.12364,0.77359 -0.0386,0.93584 -0.16222,0.1622 -0.27765,-0.12624 -0.25645,-0.64083 z m -57.12598,-1.95304 c 0.0235,-0.56877 0.13913,-0.68448 0.29498,-0.29498 0.14105,0.35247 0.12377,0.77358 -0.0385,0.93582 -0.16225,0.16222 -0.27763,-0.12625 -0.25644,-0.64084 z m 59.56723,-9.27687 c 0.0235,-0.56881 0.13915,-0.68449 0.29501,-0.29499 0.14099,0.35244 0.12364,0.77359 -0.0386,0.93583 -0.16222,0.16221 -0.27764,-0.12611 -0.25644,-0.64084 z m 0.52681,-3.13297 c 0,-0.67138 0.11085,-0.946 0.24628,-0.61033 0.13546,0.33568 0.13546,0.88495 0,1.22065 -0.13545,0.33567 -0.24628,0.0612 -0.24628,-0.61032 z m -63.47329,-2.92955 c 0,-0.67136 0.11086,-0.94598 0.24627,-0.61031 0.13546,0.33567 0.13546,0.88495 0,1.22063 -0.13545,0.33569 -0.24627,0.0612 -0.24627,-0.61032 z m 63.923,-0.28481 c 0.0235,-0.5688 0.13914,-0.68448 0.295,-0.295 0.14098,0.35246 0.12363,0.77359 -0.0386,0.93583 -0.16221,0.1622 -0.27766,-0.12625 -0.25646,-0.64083 z m -64.41126,-3.13299 c 0,-0.67135 0.11086,-0.94598 0.24627,-0.61032 0.13545,0.33567 0.13545,0.88497 0,1.22065 -0.13544,0.33567 -0.24627,0.0612 -0.24627,-0.61033 z m 64.95617,-1.70888 c 0.009,-0.80563 0.11933,-1.0761 0.24316,-0.60103 0.1239,0.47505 0.11568,1.13421 -0.0185,1.46477 -0.13378,0.33056 -0.23503,-0.0582 -0.22507,-0.86374 z m -65.42633,-2.44122 c 0.0104,-0.80562 0.11933,-1.07608 0.24318,-0.60101 0.12377,0.47505 0.11568,1.1342 -0.0181,1.46475 -0.13376,0.33057 -0.23504,-0.0582 -0.22509,-0.86374 z m 65.9707,-3.90604 c 0.004,-1.61125 0.0939,-2.21153 0.20255,-1.33397 0.10864,0.87757 0.10642,2.19587 -0.005,2.92954 -0.1115,0.73368 -0.20031,0.0166 -0.19756,-1.59557 z m -66.41449,-1.95304 c 0.004,-1.34268 0.0985,-1.83401 0.21071,-1.09185 0.1123,0.74218 0.1093,1.84075 -0.007,2.4413 -0.11594,0.60051 -0.2077,-0.008 -0.20405,-1.34945 z m 66.41946,-12.45059 c 0,-1.74552 0.0885,-2.45959 0.19693,-1.58684 0.10838,0.87277 0.10838,2.30091 0,3.17368 -0.10825,0.87276 -0.19693,0.1587 -0.19693,-1.58684 z m -66.44583,-2.44128 c 0,-0.9399 0.10055,-1.3244 0.2233,-0.85444 0.12285,0.46994 0.12285,1.23894 0,1.70888 -0.12286,0.46996 -0.2233,0.0854 -0.2233,-0.85444 z m 65.89649,-5.12669 c 0.009,-0.80562 0.11933,-1.07609 0.24316,-0.60103 0.1239,0.47505 0.11568,1.1342 -0.0185,1.46476 -0.13378,0.33056 -0.23503,-0.0582 -0.22507,-0.86373 z m -65.44442,-0.73239 c 0,-0.67135 0.11085,-0.94599 0.24627,-0.61033 0.13545,0.33569 0.13545,0.88498 0,1.22065 -0.13544,0.33569 -0.24627,0.0612 -0.24627,-0.61032 z m 64.89951,-3.21436 c 0.0235,-0.56877 0.13914,-0.68448 0.295,-0.29497 0.14098,0.35245 0.12363,0.77358 -0.0386,0.93583 -0.16221,0.1622 -0.27766,-0.12599 -0.25646,-0.64086 z m -63.51184,-1.91233 c 0.63071,-0.67133 1.2566,-1.22063 1.39086,-1.22063 0.13428,0 -0.2719,0.5493 -0.90259,1.22063 -0.63071,0.67136 -1.25661,1.22065 -1.39086,1.22065 -0.13428,0 0.27189,-0.54929 0.90259,-1.22065 z m 61.58824,-1.23613 c -0.63396,-0.52814 -0.94265,-0.96027 -0.68598,-0.96027 0.25667,0 0.86433,0.43943 1.35039,0.97651 1.11659,1.2338 0.82763,1.22673 -0.66441,-0.0166 z m -56.70567,-1.93678 c 0.40281,-0.26033 0.9521,-0.4733 1.22063,-0.4733 0.26855,0 0.1587,0.21297 -0.24413,0.4733 -0.4028,0.26031 -0.95209,0.47328 -1.22063,0.47328 -0.26854,0 -0.15868,-0.21297 0.24413,-0.47328 z m 18.18754,0.15168 c 0.46994,-0.12272 1.23894,-0.12272 1.70889,0 0.46994,0.12286 0.0854,0.22331 -0.85445,0.22331 -0.93988,0 -1.32439,-0.10056 -0.85444,-0.22331 z m 16.60069,0 c 0.46996,-0.12272 1.23896,-0.12272 1.70892,0 0.46994,0.12286 0.0854,0.22331 -0.85445,0.22331 -0.93991,0 -1.32441,-0.10056 -0.85447,-0.22331 z m -22.67337,-0.48532 c 0.35246,-0.14098 0.77358,-0.12363 0.93582,0.0386 0.16224,0.1622 -0.12611,0.27765 -0.64084,0.25646 -0.56879,-0.0235 -0.68448,-0.13915 -0.29498,-0.29499 z m 29.29536,0 c 0.35245,-0.14098 0.7736,-0.12363 0.93584,0.0386 0.1622,0.1622 -0.12624,0.27765 -0.64085,0.25646 -0.5688,-0.0235 -0.68448,-0.13915 -0.29499,-0.29499 z m -33.68966,-0.48816 c 0.35244,-0.14099 0.77357,-0.12363 0.93582,0.0386 0.16224,0.1622 -0.12611,0.27765 -0.64084,0.25644 -0.56879,-0.0235 -0.68449,-0.13914 -0.29498,-0.29498 z m 40.30917,-5.03813 c 0,-2.81966 0.0806,-3.97319 0.17936,-2.56335 0.0986,1.40986 0.0986,3.71685 0,5.1267 -0.0985,1.40983 -0.17936,0.25632 -0.17936,-2.56335 z m -13.19509,0.22305 c -0.20794,-0.54191 0.16406,-1.81492 0.98037,-3.35556 0.72347,-1.36535 1.53677,-3.69088 1.80734,-5.16785 1.32325,-7.22359 1.00667,-26.94433 -0.77488,-48.2687 -0.38946,-4.66171 -0.58718,-8.67152 -0.43938,-8.91067 0.57965,-0.93791 1.56527,-0.34996 2.34035,1.39612 2.76672,6.23272 5.67767,31.22048 5.80987,49.87215 0.0373,5.26517 -0.0915,10.23217 -0.28612,11.03779 -0.50637,2.09522 -3.19128,3.77963 -6.4562,4.05041 -2.21505,0.1836 -2.70088,0.0771 -2.98135,-0.65369 z m -29.77375,-8.27946 c 0.001,-2.68541 0.0832,-3.72169 0.18219,-2.30286 0.099,1.41884 0.0979,3.61601 -0.003,4.88257 -0.10003,1.26657 -0.18102,0.10577 -0.17975,-2.57971 z m 42.46018,-12.69466 c 0.003,-1.87978 0.0904,-2.58896 0.1961,-1.57593 0.10577,1.01301 0.10394,2.55102 -0.004,3.41777 -0.10798,0.86678 -0.19434,0.0381 -0.19217,-1.84184 z m -41.99397,-4.14987 c 0,-1.74552 0.0885,-2.4596 0.19692,-1.58684 0.10825,0.87275 0.10825,2.30091 0,3.17366 -0.10825,0.87276 -0.19692,0.15871 -0.19692,-1.58682 z m 41.47846,-7.32384 c 0,-1.20844 0.0952,-1.70281 0.21162,-1.0986 0.11646,0.60422 0.11646,1.59296 0,2.19716 -0.11647,0.60422 -0.21162,0.10982 -0.21162,-1.09856 z m -41.0135,-3.90606 c 0,-1.20844 0.0952,-1.7028 0.21159,-1.09858 0.11633,0.60422 0.11633,1.59295 0,2.19715 -0.11634,0.60421 -0.21159,0.10982 -0.21159,-1.09857 z m 40.50554,-4.3943 c 0,-0.9399 0.10055,-1.3244 0.22329,-0.85446 0.12286,0.46995 0.12286,1.23896 0,1.7089 -0.12272,0.46995 -0.22329,0.0854 -0.22329,-0.85444 z m -40.037,-4.3943 c 0,-0.9399 0.10055,-1.3244 0.22329,-0.85446 0.12286,0.46995 0.12286,1.23895 0,1.7089 -0.12285,0.46994 -0.22329,0.0854 -0.22329,-0.85444 z m 39.51257,-2.44129 c 0,-0.67136 0.11086,-0.94599 0.24626,-0.61032 0.13545,0.33567 0.13545,0.88497 0,1.22063 -0.13546,0.33569 -0.24626,0.061 -0.24626,-0.61031 z m -39.04241,-4.15018 c 0.0104,-0.80561 0.11934,-1.07608 0.24318,-0.60102 0.12377,0.47505 0.11569,1.1342 -0.0181,1.46476 -0.13371,0.33056 -0.235,-0.0582 -0.22505,-0.86374 z m 38.57223,-1.46477 c 0.009,-0.80561 0.11934,-1.07607 0.2432,-0.60102 0.12377,0.47505 0.11568,1.13421 -0.0185,1.46477 -0.1338,0.33056 -0.235,-0.0582 -0.22505,-0.86375 z m -38.10205,-4.15016 c 0,-0.67136 0.11085,-0.94602 0.24627,-0.61033 0.13544,0.33568 0.13544,0.88496 0,1.22064 -0.13545,0.33567 -0.24627,0.061 -0.24627,-0.61031 z m 37.5957,-0.48827 c 0,-0.67135 0.11086,-0.946 0.24629,-0.61031 0.13545,0.33566 0.13545,0.88495 0,1.22064 -0.13545,0.33567 -0.24629,0.061 -0.24629,-0.61033 z m -37.10745,-4.3943 c 0,-0.67136 0.11086,-0.946 0.24627,-0.61032 0.13544,0.33568 0.13544,0.88497 0,1.22063 -0.13545,0.33569 -0.24627,0.061 -0.24627,-0.61031 z m 36.58066,0.20344 c 0.0235,-0.56878 0.13915,-0.68449 0.295,-0.29498 0.14099,0.35246 0.12363,0.77357 -0.0386,0.93581 -0.1622,0.16226 -0.27762,-0.12612 -0.25643,-0.64083 z m -0.48825,-3.4178 c 0.0235,-0.56878 0.13913,-0.68448 0.29498,-0.29498 0.14099,0.35246 0.12364,0.77358 -0.0386,0.93583 -0.1622,0.16224 -0.27766,-0.12612 -0.25646,-0.64085 z m -35.6427,-0.48825 c 0.0235,-0.5688 0.13912,-0.68449 0.29498,-0.29499 0.14104,0.35247 0.12364,0.77359 -0.0386,0.93583 -0.16225,0.16225 -0.27764,-0.12611 -0.25644,-0.64084 z m 35.15445,-2.92953 c 0.0235,-0.56879 0.13913,-0.68448 0.29498,-0.295 0.14098,0.35247 0.12364,0.77358 -0.0386,0.93583 -0.16221,0.16224 -0.27764,-0.12612 -0.25643,-0.64083 z m -25.54994,-8.33893 c 0.33567,-0.13544 0.88497,-0.13544 1.22064,0 0.33568,0.13545 0.0612,0.24627 -0.61032,0.24627 -0.67135,0 -0.946,-0.11086 -0.61032,-0.24627 z m 17.11947,-0.0104 c 0.35247,-0.14104 0.77358,-0.12364 0.93584,0.0386 0.1622,0.16225 -0.12625,0.27764 -0.64083,0.25644 -0.5688,-0.0235 -0.6845,-0.13913 -0.29501,-0.29499 z m -11.73992,-0.50861 c 0.87757,-0.10864 2.19587,-0.10643 2.92954,0.005 0.73368,0.11138 0.0147,0.20031 -1.59557,0.19757 -1.61124,-0.003 -2.21152,-0.0939 -1.33397,-0.20255 z m 8.05678,0.0155 c 0.47505,-0.12377 1.13421,-0.11569 1.46478,0.0181 0.33056,0.13375 -0.0582,0.23505 -0.86375,0.22508 -0.80562,-0.0104 -1.07609,-0.11933 -0.60103,-0.24317 z"
       id="path7587-9-06"
       sodipodi:nodetypes="csscscccssssccssssssssssssssssssssssssssssssscssssssssssssssscscccssssscccccssssssssssssscscccsssssssssssssscssccsssssscssscsssssssssssssssssscsssccssssccssscsscscccssssscsssssssccsssssscssssssscscccssssscsssssssssssssssssssssssssssssssssssssssssss" />
    <path
       style="fill:#952d56;stroke-width:0.488255"
       d="m 175.79311,423.88391 c 1.94691,-0.0926 5.13279,-0.0926 7.0797,0 1.94692,0.0926 0.35399,0.16849 -3.53984,0.16849 -3.89385,0 -5.4868,-0.0758 -3.53986,-0.16849 z m -9.99997,-0.46398 c 0.47507,-0.12377 1.13421,-0.11568 1.46477,0.0185 0.33058,0.13379 -0.0582,0.23503 -0.86374,0.22508 -0.80562,-0.009 -1.07609,-0.11934 -0.60103,-0.24317 z m 25.38932,0 c 0.47505,-0.12377 1.13421,-0.11568 1.46478,0.0185 0.33056,0.13379 -0.0582,0.23503 -0.86375,0.22508 -0.80563,-0.009 -1.0761,-0.11934 -0.60103,-0.24317 z m -30.00652,-0.48344 c 0.35245,-0.14098 0.77357,-0.12364 0.93583,0.0386 0.16224,0.16222 -0.12612,0.27765 -0.64084,0.25645 -0.5688,-0.0235 -0.68448,-0.13915 -0.29499,-0.295 z m -4.13539,-4.79301 c 0.003,-2.14833 0.0876,-2.96647 0.19077,-1.81807 0.10316,1.14839 0.10172,2.90612 -0.003,3.90606 -0.10486,0.99993 -0.18931,0.0604 -0.18753,-2.08799 z m 31.96599,0.8871 c 0.35245,-0.14098 0.77359,-0.12363 0.93583,0.0386 0.1622,0.16221 -0.12625,0.27763 -0.64084,0.25643 -0.5688,-0.0235 -0.6845,-0.13913 -0.29499,-0.29499 z m 7.53852,-8.21057 c 0.005,-1.07417 0.10538,-1.4561 0.22218,-0.84875 0.11686,0.60735 0.11243,1.48622 -0.009,1.95303 -0.1222,0.46681 -0.21776,-0.03 -0.21234,-1.10428 z m -6.92017,-3.45846 c 0.0235,-0.5688 0.13914,-0.68448 0.29498,-0.29501 0.14098,0.35247 0.12364,0.77358 -0.0386,0.93584 -0.16221,0.1622 -0.27764,-0.12612 -0.25643,-0.64083 z m 9.87288,-4.59776 c 0,-1.47697 0.0916,-2.08118 0.2034,-1.3427 0.11177,0.73848 0.11177,1.94691 0,2.68541 -0.11177,0.73849 -0.2034,0.13435 -0.2034,-1.34271 z m -9.22236,-8.30035 c 0,-4.69947 0.0733,-6.62198 0.16276,-4.27224 0.0895,2.34973 0.0895,6.19474 0,8.54448 -0.0895,2.34973 -0.16276,0.42722 -0.16276,-4.27224 z m 6.29781,5.61494 c 0.004,-1.61124 0.0939,-2.21152 0.20257,-1.33396 0.10864,0.87758 0.10642,2.19586 -0.005,2.92955 -0.11151,0.73367 -0.20031,0.0147 -0.19759,-1.59559 z m -39.07881,-2.19715 c 0,-1.20844 0.0952,-1.7028 0.21161,-1.09856 0.11633,0.6042 0.11633,1.59293 0,2.19713 -0.11634,0.60421 -0.21161,0.10982 -0.21161,-1.09857 z m 38.53445,-8.05623 c 0.009,-0.80562 0.11933,-1.07608 0.24318,-0.60103 0.12377,0.47507 0.11568,1.13422 -0.0185,1.46477 -0.1338,0.33057 -0.23503,-0.0582 -0.22508,-0.86374 z m 2.92952,-0.97651 c 0.009,-0.80562 0.11934,-1.07609 0.24318,-0.60103 0.1239,0.47506 0.11568,1.1342 -0.0185,1.46476 -0.13379,0.33058 -0.23503,-0.058 -0.22509,-0.86373 z m -40.99541,-3.66193 c 0,-0.93988 0.10055,-1.32438 0.22329,-0.85444 0.12286,0.46995 0.12286,1.23896 0,1.7089 -0.12285,0.46994 -0.22329,0.0854 -0.22329,-0.85446 z m 37.57763,-1.70888 c 0.009,-0.80562 0.11933,-1.07608 0.24316,-0.60101 0.12377,0.47505 0.11569,1.13419 -0.0185,1.46475 -0.13378,0.33056 -0.235,-0.0582 -0.22505,-0.86374 z m 2.91143,-3.66192 c 0,-0.67135 0.11085,-0.946 0.24628,-0.61032 0.13546,0.33568 0.13546,0.88496 0,1.22063 -0.13544,0.33567 -0.24628,0.061 -0.24628,-0.61031 z m -3.41779,-1.46478 c 0,-0.67133 0.11086,-0.94598 0.24627,-0.61031 0.13546,0.33567 0.13546,0.88496 0,1.22063 -0.13545,0.33569 -0.24627,0.061 -0.24627,-0.61032 z m -5.32478,-1.22063 c 0.005,-1.07417 0.10538,-1.4561 0.2222,-0.84876 0.11686,0.60735 0.11242,1.48621 -0.009,1.95303 -0.1222,0.46681 -0.21776,-0.03 -0.21235,-1.10427 z m -31.27632,-1.46477 c 0.0104,-0.80563 0.11934,-1.07608 0.24316,-0.60103 0.12377,0.47506 0.11568,1.13421 -0.0181,1.46477 -0.13372,0.33057 -0.23502,-0.0582 -0.22505,-0.86374 z m 36.0743,-1.99371 c 0.0235,-0.56879 0.13914,-0.68448 0.29498,-0.295 0.141,0.35246 0.12364,0.77359 -0.0386,0.93583 -0.16222,0.16225 -0.27766,-0.12612 -0.25646,-0.64083 z m 3.45635,-1.17996 c 0,-0.67135 0.11086,-0.946 0.24626,-0.61032 0.13545,0.33568 0.13545,0.88497 0,1.22065 -0.13546,0.33567 -0.24626,0.061 -0.24626,-0.61033 z m -8.75244,-3.41778 c 0,-0.93991 0.10043,-1.3244 0.22329,-0.85446 0.12286,0.46994 0.12286,1.23896 0,1.7089 -0.12285,0.46994 -0.22329,0.0854 -0.22329,-0.85444 z m 4.80785,0.69169 c 0.0235,-0.56879 0.13915,-0.68449 0.29498,-0.29498 0.14099,0.35245 0.12364,0.77358 -0.0386,0.93582 -0.1622,0.16224 -0.27764,-0.12611 -0.25643,-0.64084 z m -35.15445,-1.46477 c 0.0235,-0.56878 0.13912,-0.68449 0.29499,-0.29499 0.14105,0.35247 0.12364,0.77359 -0.0386,0.93583 -0.16225,0.16225 -0.27763,-0.12611 -0.25644,-0.64084 z m 38.57224,-1.46478 c 0.0235,-0.56878 0.13914,-0.68448 0.29498,-0.29498 0.14098,0.35246 0.12364,0.77358 -0.0386,0.93582 -0.16222,0.16226 -0.27767,-0.12611 -0.25646,-0.64084 z m -38.08397,-4.3943 c 0.0235,-0.56877 0.1391,-0.68448 0.29497,-0.29498 0.14105,0.35247 0.12377,0.77358 -0.0385,0.93582 -0.16225,0.16224 -0.27764,-0.12611 -0.25645,-0.64084 z m 29.3339,-0.20344 c 0,-0.67135 0.11086,-0.94598 0.24626,-0.61031 0.13546,0.33567 0.13546,0.88496 0,1.22063 -0.13544,0.33569 -0.24626,0.061 -0.24626,-0.61032 z m -28.84566,-4.67911 c 0.0235,-0.5688 0.13913,-0.68448 0.29499,-0.295 0.14105,0.35246 0.12364,0.77359 -0.0386,0.93583 -0.16224,0.16224 -0.27764,-0.12612 -0.25644,-0.64083 z m 36.61921,0 c 0.0235,-0.5688 0.13915,-0.68448 0.295,-0.295 0.14099,0.35246 0.12363,0.77359 -0.0386,0.93583 -0.1622,0.16224 -0.27762,-0.12612 -0.25643,-0.64083 z m -8.26182,-1.17996 c 0,-0.67135 0.11085,-0.94598 0.24628,-0.61032 0.13545,0.33568 0.13545,0.88497 0,1.22065 -0.13544,0.33567 -0.24628,0.061 -0.24628,-0.61033 z m -16.3116,-15.45935 c 0.33567,-0.13544 0.88497,-0.13544 1.22064,0 0.33568,0.13546 0.0612,0.24627 -0.61032,0.24627 -0.67135,0 -0.946,-0.11085 -0.61032,-0.24627 z m 13.70168,-0.0104 c 0.35247,-0.14104 0.77358,-0.12377 0.93584,0.0386 0.1622,0.16226 -0.12599,0.27765 -0.64083,0.25645 -0.56881,-0.0235 -0.68449,-0.13912 -0.29501,-0.29499 z m -5.39563,-0.50002 c 0.60735,-0.11685 1.4862,-0.11229 1.95303,0.009 0.46681,0.12221 -0.03,0.21776 -1.10428,0.21235 -1.07416,-0.005 -1.45609,-0.10538 -0.84875,-0.22221 z"
       id="path7583-1-2"
       sodipodi:nodetypes="ssssccccccccccssssscscccssssscscccssssssssssssscscccsssscsccccscccsssscccccscssscsscscccssssssssssscssssssssssssssssssssssssssscsssssssssssscsssssssssssccccc" />
    <path
       style="fill:#3f3d56;fill-opacity:1;stroke-width:0.488255"
       d="m 163.46463,423.20166 c -2.41686,-0.23409 -4.83373,-0.52424 -5.37081,-0.64478 -0.95947,-0.21535 -0.97075,-0.48169 -0.64637,-15.25489 0.72726,-33.12138 2.75626,-57.60719 5.19068,-62.64066 0.66951,-1.3843 1.33659,-1.88481 3.51191,-2.63501 2.25548,-0.77785 4.20972,-0.93351 12.20641,-0.97224 14.86631,-0.0721 15.95655,0.5265 17.2489,9.46943 2.36251,16.34824 3.44706,31.69609 4.04321,57.21709 l 0.33866,14.49781 -1.17234,0.27302 c -5.20724,1.21274 -25.80346,1.61489 -35.35025,0.69023 z m 30.13349,-5.36311 c 0.99806,-0.50519 2.07511,-1.40521 2.39345,-2.00004 1.4601,-2.7282 0.934,-22.79133 -1.06366,-40.56323 -1.85429,-16.4964 -3.89898,-24.3013 -6.14099,-23.44096 -0.68897,0.26438 -0.75271,0.87677 -0.46844,4.50067 1.75903,22.42509 2.29989,45.21785 1.24602,52.50987 -0.28453,1.96878 -0.99857,4.26216 -1.69925,5.45776 -1.51223,2.58046 -1.54594,3.9795 -0.10981,4.56387 1.35386,0.5509 3.45329,0.1816 5.84274,-1.02794 z"
       id="path7581-2-6"
       sodipodi:nodetypes="sssssssscsscssssssscc" />
  </g>
</svg>
